G75*
G70*
%OFA0B0*%
%FSLAX24Y24*%
%IPPOS*%
%LPD*%
%AMOC8*
5,1,8,0,0,1.08239X$1,22.5*
%
%ADD10R,0.0220X0.0500*%
%ADD11R,0.0500X0.0220*%
%ADD12C,0.0650*%
%ADD13R,0.0650X0.0650*%
%ADD14C,0.0740*%
%ADD15C,0.0800*%
%ADD16C,0.0780*%
%ADD17C,0.0480*%
%ADD18OC8,0.0600*%
%ADD19C,0.0600*%
%ADD20OC8,0.0740*%
%ADD21C,0.0060*%
%ADD22C,0.0270*%
D10*
X006619Y010740D03*
X006934Y010740D03*
X007248Y010740D03*
X007563Y010740D03*
X007878Y010740D03*
X008193Y010740D03*
X008508Y010740D03*
X008823Y010740D03*
X008823Y014120D03*
X008508Y014120D03*
X008193Y014120D03*
X007878Y014120D03*
X007563Y014120D03*
X007248Y014120D03*
X006934Y014120D03*
X006619Y014120D03*
D11*
X006031Y013533D03*
X006031Y013218D03*
X006031Y012903D03*
X006031Y012588D03*
X006031Y012273D03*
X006031Y011958D03*
X006031Y011643D03*
X006031Y011328D03*
X009411Y011328D03*
X009411Y011643D03*
X009411Y011958D03*
X009411Y012273D03*
X009411Y012588D03*
X009411Y012903D03*
X009411Y013218D03*
X009411Y013533D03*
D12*
X004639Y013887D03*
X004639Y014887D03*
X004596Y011650D03*
X004596Y010650D03*
X002786Y006100D03*
X006536Y004850D03*
D13*
X007536Y004850D03*
X001786Y006100D03*
D14*
X001036Y004100D03*
X002536Y008350D03*
X002536Y009600D03*
X001286Y009850D03*
X001286Y013850D03*
X005786Y015600D03*
X006536Y009600D03*
X006536Y008350D03*
X005036Y004100D03*
X005036Y001850D03*
X005036Y000850D03*
X006756Y000710D03*
X006756Y002490D03*
X009316Y002490D03*
X009316Y000710D03*
X009786Y015600D03*
D15*
X009536Y005400D03*
X009536Y004300D03*
D16*
X009305Y006945D03*
X005305Y006945D03*
D17*
X002979Y011707D03*
X002979Y013607D03*
D18*
X005536Y021350D03*
X005536Y022350D03*
X006536Y022350D03*
X006536Y021350D03*
X007536Y021350D03*
X007536Y022350D03*
X008536Y022350D03*
X008536Y021350D03*
D19*
X011736Y019350D02*
X012336Y019350D01*
X012336Y018350D02*
X011736Y018350D01*
X011736Y017350D02*
X012336Y017350D01*
X012336Y016350D02*
X011736Y016350D01*
X011736Y014850D02*
X012336Y014850D01*
X012336Y013850D02*
X011736Y013850D01*
X011736Y012850D02*
X012336Y012850D01*
X012336Y011850D02*
X011736Y011850D01*
X011736Y010850D02*
X012336Y010850D01*
X012336Y009850D02*
X011736Y009850D01*
X011736Y008850D02*
X012336Y008850D01*
X012336Y006850D02*
X011736Y006850D01*
X011736Y005850D02*
X012336Y005850D01*
X012336Y004850D02*
X011736Y004850D01*
D20*
X008686Y017550D03*
X008686Y018550D03*
X007686Y018550D03*
X007686Y017550D03*
X006686Y017550D03*
X006686Y018550D03*
D21*
X006686Y018500D01*
X002086Y013900D01*
X001286Y013900D01*
X001286Y013850D01*
X000686Y014100D02*
X000686Y013500D01*
X001486Y012700D01*
X004286Y015500D01*
X004686Y015500D01*
X005486Y016300D01*
X006486Y016300D01*
X007686Y017500D01*
X007686Y017550D01*
X008486Y016300D02*
X009686Y017500D01*
X009686Y018500D01*
X008286Y019900D01*
X008686Y018550D02*
X008686Y018500D01*
X009486Y017700D01*
X009286Y017500D01*
X009286Y017300D01*
X007086Y015100D01*
X007686Y014500D01*
X008086Y014500D01*
X008286Y014300D01*
X008193Y014120D01*
X008508Y014120D02*
X008486Y014300D01*
X008486Y016300D01*
X008886Y016500D02*
X009886Y017500D01*
X009886Y019100D01*
X007686Y021300D01*
X007536Y021350D01*
X008536Y021350D02*
X008686Y021300D01*
X010086Y019900D01*
X010086Y018300D01*
X012036Y016350D01*
X011686Y015900D02*
X012086Y015500D01*
X012086Y014900D01*
X012036Y014850D01*
X012486Y014300D02*
X012886Y014700D01*
X012886Y019500D01*
X012086Y020300D01*
X011886Y020100D01*
X010486Y020100D01*
X008686Y021900D01*
X006086Y021900D01*
X005536Y021350D01*
X005086Y021500D02*
X005486Y021900D01*
X005686Y021900D01*
X006086Y022300D01*
X006486Y022300D01*
X006536Y022350D01*
X005086Y021500D02*
X005086Y018500D01*
X000686Y014100D01*
X002979Y013607D02*
X003086Y013700D01*
X004486Y013700D01*
X004639Y013887D01*
X004686Y013700D01*
X006286Y015300D01*
X006886Y014700D01*
X006886Y014300D01*
X006934Y014120D01*
X006686Y014300D02*
X006619Y014120D01*
X006686Y014300D02*
X005686Y014300D01*
X003086Y011700D01*
X002979Y011707D01*
X001886Y009900D02*
X001886Y008300D01*
X003286Y006900D01*
X004286Y006900D01*
X006286Y008900D01*
X007486Y008900D01*
X009886Y011300D01*
X009886Y011700D01*
X012036Y013850D01*
X012486Y014300D02*
X011486Y014300D01*
X010686Y013500D01*
X009486Y013500D01*
X009411Y013533D01*
X009086Y013700D02*
X009286Y013900D01*
X010086Y013900D01*
X011686Y015500D01*
X011686Y015900D02*
X010086Y015900D01*
X009786Y015600D01*
X008886Y016500D02*
X008886Y014300D01*
X008823Y014120D01*
X008886Y013700D02*
X009086Y013700D01*
X008886Y013700D02*
X007286Y012100D01*
X006486Y012100D01*
X006286Y011900D01*
X006086Y011900D01*
X006031Y011958D01*
X006086Y011700D02*
X006031Y011643D01*
X006086Y011700D02*
X006486Y011700D01*
X006886Y011700D02*
X006486Y011300D01*
X006086Y011300D01*
X006031Y011328D01*
X006686Y010900D02*
X006619Y010740D01*
X006686Y010900D02*
X006686Y011100D01*
X007686Y012100D01*
X007286Y012500D02*
X007486Y012700D01*
X007486Y013500D01*
X007886Y013900D01*
X007886Y014100D01*
X007878Y014120D01*
X007563Y014120D02*
X007486Y014300D01*
X007686Y014500D01*
X007286Y014100D02*
X007248Y014120D01*
X007286Y014100D02*
X007286Y013700D01*
X007486Y013500D01*
X006486Y013500D02*
X006486Y013700D01*
X006086Y014100D01*
X001886Y009900D01*
X002536Y009600D02*
X002686Y009700D01*
X004486Y011500D01*
X004596Y011650D01*
X004686Y011500D01*
X005886Y010300D01*
X007686Y010300D01*
X007886Y010500D01*
X007886Y010700D01*
X007878Y010740D01*
X007886Y010300D02*
X007686Y010100D01*
X007086Y010100D01*
X006686Y009700D01*
X006536Y009600D01*
X006486Y009500D01*
X005486Y008500D01*
X002686Y008500D01*
X002536Y008350D01*
X002686Y006700D02*
X004286Y006700D01*
X005086Y007500D01*
X005686Y007500D01*
X006086Y007900D01*
X006886Y007100D01*
X007086Y007100D01*
X007286Y007300D01*
X008686Y007300D01*
X008886Y007500D01*
X012086Y007500D01*
X012086Y006900D01*
X012036Y006850D01*
X012086Y007500D02*
X012086Y008700D01*
X012036Y008850D01*
X012036Y010850D02*
X008686Y007500D01*
X007086Y007500D01*
X007086Y007900D02*
X006886Y007900D01*
X007086Y007900D02*
X012036Y012850D01*
X010886Y013100D02*
X009686Y011900D01*
X009486Y011900D01*
X009411Y011958D01*
X009411Y012273D02*
X009486Y012300D01*
X009686Y012300D01*
X010486Y013100D01*
X009411Y012588D02*
X009286Y012500D01*
X008686Y013100D01*
X007286Y011300D02*
X006886Y010900D01*
X006934Y010740D01*
X006031Y012273D02*
X005886Y012300D01*
X005686Y012300D01*
X005486Y012100D01*
X005086Y011900D02*
X005086Y012900D01*
X005686Y013500D01*
X005886Y013500D01*
X006031Y013533D01*
X006086Y013300D02*
X006031Y013218D01*
X006086Y013300D02*
X006286Y013300D01*
X006486Y013500D01*
X006031Y012903D02*
X005886Y012900D01*
X005486Y012900D01*
X004686Y014900D02*
X004639Y014887D01*
X004686Y014900D02*
X005286Y015500D01*
X005286Y015900D01*
X005486Y016100D01*
X006086Y016100D01*
X007086Y015100D01*
X008508Y010740D02*
X008486Y010700D01*
X008486Y010500D01*
X008286Y010300D01*
X007886Y010300D01*
X006536Y008350D02*
X006086Y007900D01*
X005305Y006945D02*
X005286Y006900D01*
X004886Y006500D01*
X006536Y004850D01*
X007486Y004900D02*
X007536Y004850D01*
X007686Y004900D01*
X008086Y005300D01*
X009486Y005300D01*
X009536Y005400D01*
X009486Y005500D01*
X009486Y006900D01*
X009305Y006945D01*
X011086Y005700D02*
X009686Y004300D01*
X009536Y004300D01*
X009486Y004300D01*
X009486Y002500D01*
X009316Y002490D01*
X009286Y002500D01*
X006886Y002500D01*
X006756Y002490D01*
X006686Y002300D01*
X005286Y000900D01*
X005086Y000900D01*
X005036Y000850D01*
X005486Y002900D02*
X007486Y004900D01*
X005486Y002900D02*
X004286Y004100D01*
X001036Y004100D01*
X001786Y006100D02*
X002086Y006100D01*
X002686Y006700D01*
X002786Y006100D02*
X004486Y006100D01*
X004886Y006500D01*
X006756Y000710D02*
X006886Y000700D01*
X009286Y000700D01*
X009316Y000710D01*
X011086Y005700D02*
X011886Y005700D01*
X012036Y005850D01*
D22*
X010886Y013100D03*
X010486Y013100D03*
X011686Y015500D03*
X008686Y013100D03*
X007686Y012100D03*
X007286Y012500D03*
X006886Y011700D03*
X006486Y011700D03*
X007286Y011300D03*
X005486Y012100D03*
X005086Y011900D03*
X005486Y012900D03*
X006886Y007900D03*
X007086Y007500D03*
X008286Y019900D03*
M02*
