G75*
G70*
%OFA0B0*%
%FSLAX24Y24*%
%IPPOS*%
%LPD*%
%AMOC8*
5,1,8,0,0,1.08239X$1,22.5*
%
%ADD10R,0.0280X0.0560*%
%ADD11R,0.0560X0.0280*%
%ADD12C,0.0710*%
%ADD13R,0.0710X0.0710*%
%ADD14C,0.0800*%
%ADD15C,0.0050*%
%ADD16C,0.0840*%
%ADD17C,0.0540*%
%ADD18OC8,0.0660*%
%ADD19C,0.0660*%
%ADD20OC8,0.0800*%
%ADD21C,0.1241*%
D10*
X006619Y010740D03*
X006934Y010740D03*
X007248Y010740D03*
X007563Y010740D03*
X007878Y010740D03*
X008193Y010740D03*
X008508Y010740D03*
X008823Y010740D03*
X008823Y014120D03*
X008508Y014120D03*
X008193Y014120D03*
X007878Y014120D03*
X007563Y014120D03*
X007248Y014120D03*
X006934Y014120D03*
X006619Y014120D03*
D11*
X006031Y013533D03*
X006031Y013218D03*
X006031Y012903D03*
X006031Y012588D03*
X006031Y012273D03*
X006031Y011958D03*
X006031Y011643D03*
X006031Y011328D03*
X009411Y011328D03*
X009411Y011643D03*
X009411Y011958D03*
X009411Y012273D03*
X009411Y012588D03*
X009411Y012903D03*
X009411Y013218D03*
X009411Y013533D03*
D12*
X004639Y013887D03*
X004639Y014887D03*
X004596Y011650D03*
X004596Y010650D03*
X002786Y006100D03*
X006536Y004850D03*
D13*
X007536Y004850D03*
X001786Y006100D03*
D14*
X001036Y004100D03*
X002536Y008350D03*
X002536Y009600D03*
X001286Y009850D03*
X001286Y013850D03*
X005786Y015600D03*
X006536Y009600D03*
X006536Y008350D03*
X005036Y004100D03*
X005036Y001850D03*
X005036Y000850D03*
X006756Y000710D03*
X006756Y002490D03*
X009316Y002490D03*
X009316Y000710D03*
X009786Y015600D03*
D15*
X009530Y005578D02*
X009570Y005574D01*
X009608Y005562D01*
X009643Y005542D01*
X009672Y005514D01*
X009694Y005480D01*
X009708Y005443D01*
X009714Y005403D01*
X009709Y005364D01*
X009695Y005327D01*
X009673Y005293D01*
X009645Y005266D01*
X009611Y005245D01*
X009573Y005233D01*
X009534Y005229D01*
X009496Y005234D01*
X009459Y005247D01*
X009427Y005268D01*
X009400Y005295D01*
X009379Y005328D01*
X009367Y005365D01*
X009363Y005403D01*
X009366Y005441D01*
X009378Y005478D01*
X009398Y005510D01*
X009424Y005538D01*
X009456Y005559D01*
X009492Y005573D01*
X009530Y005578D01*
X009418Y005532D02*
X009653Y005532D01*
X009692Y005484D02*
X009382Y005484D01*
X009366Y005435D02*
X009710Y005435D01*
X009712Y005387D02*
X009365Y005387D01*
X009376Y005338D02*
X009699Y005338D01*
X009670Y005290D02*
X009405Y005290D01*
X009475Y005241D02*
X009598Y005241D01*
X009530Y004476D02*
X009570Y004472D01*
X009608Y004460D01*
X009643Y004440D01*
X009672Y004412D01*
X009694Y004378D01*
X009708Y004341D01*
X009714Y004301D01*
X009709Y004262D01*
X009695Y004224D01*
X009673Y004191D01*
X009645Y004164D01*
X009611Y004143D01*
X009573Y004131D01*
X009534Y004127D01*
X009496Y004132D01*
X009459Y004145D01*
X009427Y004166D01*
X009400Y004193D01*
X009379Y004226D01*
X009367Y004263D01*
X009363Y004301D01*
X009366Y004339D01*
X009378Y004376D01*
X009398Y004408D01*
X009424Y004436D01*
X009456Y004457D01*
X009492Y004471D01*
X009530Y004476D01*
X009477Y004465D02*
X009593Y004465D01*
X009667Y004417D02*
X009405Y004417D01*
X009376Y004368D02*
X009698Y004368D01*
X009711Y004320D02*
X009365Y004320D01*
X009366Y004271D02*
X009710Y004271D01*
X009694Y004223D02*
X009382Y004223D01*
X009418Y004174D02*
X009656Y004174D01*
D16*
X009305Y006945D03*
X005305Y006945D03*
D17*
X002979Y011707D03*
X002979Y013607D03*
D18*
X005536Y021350D03*
X005536Y022350D03*
X006536Y022350D03*
X006536Y021350D03*
X007536Y021350D03*
X007536Y022350D03*
X008536Y022350D03*
X008536Y021350D03*
D19*
X011736Y019350D02*
X012336Y019350D01*
X012336Y018350D02*
X011736Y018350D01*
X011736Y017350D02*
X012336Y017350D01*
X012336Y016350D02*
X011736Y016350D01*
X011736Y014850D02*
X012336Y014850D01*
X012336Y013850D02*
X011736Y013850D01*
X011736Y012850D02*
X012336Y012850D01*
X012336Y011850D02*
X011736Y011850D01*
X011736Y010850D02*
X012336Y010850D01*
X012336Y009850D02*
X011736Y009850D01*
X011736Y008850D02*
X012336Y008850D01*
X012336Y006850D02*
X011736Y006850D01*
X011736Y005850D02*
X012336Y005850D01*
X012336Y004850D02*
X011736Y004850D01*
D20*
X008686Y017550D03*
X008686Y018550D03*
X007686Y018550D03*
X007686Y017550D03*
X006686Y017550D03*
X006686Y018550D03*
D21*
X002036Y001850D03*
X011536Y001850D03*
X011536Y021850D03*
X002286Y021850D03*
M02*
