G75*
G70*
%OFA0B0*%
%FSLAX24Y24*%
%IPPOS*%
%LPD*%
%AMOC8*
5,1,8,0,0,1.08239X$1,22.5*
%
%ADD10C,0.0000*%
%ADD11C,0.0030*%
D10*
X000286Y000100D02*
X000286Y023596D01*
X013406Y023596D01*
X013406Y000100D01*
X000286Y000100D01*
X001445Y001850D02*
X001447Y001898D01*
X001453Y001946D01*
X001463Y001993D01*
X001476Y002039D01*
X001494Y002084D01*
X001514Y002128D01*
X001539Y002170D01*
X001567Y002209D01*
X001597Y002246D01*
X001631Y002280D01*
X001668Y002312D01*
X001706Y002341D01*
X001747Y002366D01*
X001790Y002388D01*
X001835Y002406D01*
X001881Y002420D01*
X001928Y002431D01*
X001976Y002438D01*
X002024Y002441D01*
X002072Y002440D01*
X002120Y002435D01*
X002168Y002426D01*
X002214Y002414D01*
X002259Y002397D01*
X002303Y002377D01*
X002345Y002354D01*
X002385Y002327D01*
X002423Y002297D01*
X002458Y002264D01*
X002490Y002228D01*
X002520Y002190D01*
X002546Y002149D01*
X002568Y002106D01*
X002588Y002062D01*
X002603Y002017D01*
X002615Y001970D01*
X002623Y001922D01*
X002627Y001874D01*
X002627Y001826D01*
X002623Y001778D01*
X002615Y001730D01*
X002603Y001683D01*
X002588Y001638D01*
X002568Y001594D01*
X002546Y001551D01*
X002520Y001510D01*
X002490Y001472D01*
X002458Y001436D01*
X002423Y001403D01*
X002385Y001373D01*
X002345Y001346D01*
X002303Y001323D01*
X002259Y001303D01*
X002214Y001286D01*
X002168Y001274D01*
X002120Y001265D01*
X002072Y001260D01*
X002024Y001259D01*
X001976Y001262D01*
X001928Y001269D01*
X001881Y001280D01*
X001835Y001294D01*
X001790Y001312D01*
X001747Y001334D01*
X001706Y001359D01*
X001668Y001388D01*
X001631Y001420D01*
X001597Y001454D01*
X001567Y001491D01*
X001539Y001530D01*
X001514Y001572D01*
X001494Y001616D01*
X001476Y001661D01*
X001463Y001707D01*
X001453Y001754D01*
X001447Y001802D01*
X001445Y001850D01*
X010945Y001850D02*
X010947Y001898D01*
X010953Y001946D01*
X010963Y001993D01*
X010976Y002039D01*
X010994Y002084D01*
X011014Y002128D01*
X011039Y002170D01*
X011067Y002209D01*
X011097Y002246D01*
X011131Y002280D01*
X011168Y002312D01*
X011206Y002341D01*
X011247Y002366D01*
X011290Y002388D01*
X011335Y002406D01*
X011381Y002420D01*
X011428Y002431D01*
X011476Y002438D01*
X011524Y002441D01*
X011572Y002440D01*
X011620Y002435D01*
X011668Y002426D01*
X011714Y002414D01*
X011759Y002397D01*
X011803Y002377D01*
X011845Y002354D01*
X011885Y002327D01*
X011923Y002297D01*
X011958Y002264D01*
X011990Y002228D01*
X012020Y002190D01*
X012046Y002149D01*
X012068Y002106D01*
X012088Y002062D01*
X012103Y002017D01*
X012115Y001970D01*
X012123Y001922D01*
X012127Y001874D01*
X012127Y001826D01*
X012123Y001778D01*
X012115Y001730D01*
X012103Y001683D01*
X012088Y001638D01*
X012068Y001594D01*
X012046Y001551D01*
X012020Y001510D01*
X011990Y001472D01*
X011958Y001436D01*
X011923Y001403D01*
X011885Y001373D01*
X011845Y001346D01*
X011803Y001323D01*
X011759Y001303D01*
X011714Y001286D01*
X011668Y001274D01*
X011620Y001265D01*
X011572Y001260D01*
X011524Y001259D01*
X011476Y001262D01*
X011428Y001269D01*
X011381Y001280D01*
X011335Y001294D01*
X011290Y001312D01*
X011247Y001334D01*
X011206Y001359D01*
X011168Y001388D01*
X011131Y001420D01*
X011097Y001454D01*
X011067Y001491D01*
X011039Y001530D01*
X011014Y001572D01*
X010994Y001616D01*
X010976Y001661D01*
X010963Y001707D01*
X010953Y001754D01*
X010947Y001802D01*
X010945Y001850D01*
X010945Y021850D02*
X010947Y021898D01*
X010953Y021946D01*
X010963Y021993D01*
X010976Y022039D01*
X010994Y022084D01*
X011014Y022128D01*
X011039Y022170D01*
X011067Y022209D01*
X011097Y022246D01*
X011131Y022280D01*
X011168Y022312D01*
X011206Y022341D01*
X011247Y022366D01*
X011290Y022388D01*
X011335Y022406D01*
X011381Y022420D01*
X011428Y022431D01*
X011476Y022438D01*
X011524Y022441D01*
X011572Y022440D01*
X011620Y022435D01*
X011668Y022426D01*
X011714Y022414D01*
X011759Y022397D01*
X011803Y022377D01*
X011845Y022354D01*
X011885Y022327D01*
X011923Y022297D01*
X011958Y022264D01*
X011990Y022228D01*
X012020Y022190D01*
X012046Y022149D01*
X012068Y022106D01*
X012088Y022062D01*
X012103Y022017D01*
X012115Y021970D01*
X012123Y021922D01*
X012127Y021874D01*
X012127Y021826D01*
X012123Y021778D01*
X012115Y021730D01*
X012103Y021683D01*
X012088Y021638D01*
X012068Y021594D01*
X012046Y021551D01*
X012020Y021510D01*
X011990Y021472D01*
X011958Y021436D01*
X011923Y021403D01*
X011885Y021373D01*
X011845Y021346D01*
X011803Y021323D01*
X011759Y021303D01*
X011714Y021286D01*
X011668Y021274D01*
X011620Y021265D01*
X011572Y021260D01*
X011524Y021259D01*
X011476Y021262D01*
X011428Y021269D01*
X011381Y021280D01*
X011335Y021294D01*
X011290Y021312D01*
X011247Y021334D01*
X011206Y021359D01*
X011168Y021388D01*
X011131Y021420D01*
X011097Y021454D01*
X011067Y021491D01*
X011039Y021530D01*
X011014Y021572D01*
X010994Y021616D01*
X010976Y021661D01*
X010963Y021707D01*
X010953Y021754D01*
X010947Y021802D01*
X010945Y021850D01*
X001695Y021850D02*
X001697Y021898D01*
X001703Y021946D01*
X001713Y021993D01*
X001726Y022039D01*
X001744Y022084D01*
X001764Y022128D01*
X001789Y022170D01*
X001817Y022209D01*
X001847Y022246D01*
X001881Y022280D01*
X001918Y022312D01*
X001956Y022341D01*
X001997Y022366D01*
X002040Y022388D01*
X002085Y022406D01*
X002131Y022420D01*
X002178Y022431D01*
X002226Y022438D01*
X002274Y022441D01*
X002322Y022440D01*
X002370Y022435D01*
X002418Y022426D01*
X002464Y022414D01*
X002509Y022397D01*
X002553Y022377D01*
X002595Y022354D01*
X002635Y022327D01*
X002673Y022297D01*
X002708Y022264D01*
X002740Y022228D01*
X002770Y022190D01*
X002796Y022149D01*
X002818Y022106D01*
X002838Y022062D01*
X002853Y022017D01*
X002865Y021970D01*
X002873Y021922D01*
X002877Y021874D01*
X002877Y021826D01*
X002873Y021778D01*
X002865Y021730D01*
X002853Y021683D01*
X002838Y021638D01*
X002818Y021594D01*
X002796Y021551D01*
X002770Y021510D01*
X002740Y021472D01*
X002708Y021436D01*
X002673Y021403D01*
X002635Y021373D01*
X002595Y021346D01*
X002553Y021323D01*
X002509Y021303D01*
X002464Y021286D01*
X002418Y021274D01*
X002370Y021265D01*
X002322Y021260D01*
X002274Y021259D01*
X002226Y021262D01*
X002178Y021269D01*
X002131Y021280D01*
X002085Y021294D01*
X002040Y021312D01*
X001997Y021334D01*
X001956Y021359D01*
X001918Y021388D01*
X001881Y021420D01*
X001847Y021454D01*
X001817Y021491D01*
X001789Y021530D01*
X001764Y021572D01*
X001744Y021616D01*
X001726Y021661D01*
X001713Y021707D01*
X001703Y021754D01*
X001697Y021802D01*
X001695Y021850D01*
D11*
X008251Y010773D02*
X008396Y010773D01*
X008445Y010724D01*
X008445Y010579D01*
X008251Y010579D01*
X008348Y010478D02*
X008348Y010285D01*
X008300Y010285D02*
X008396Y010285D01*
X008445Y010333D01*
X008445Y010430D01*
X008396Y010478D01*
X008348Y010478D01*
X008251Y010430D02*
X008251Y010333D01*
X008300Y010285D01*
X008251Y010183D02*
X008396Y010183D01*
X008445Y010135D01*
X008445Y010038D01*
X008396Y009990D01*
X008300Y009889D02*
X008251Y009840D01*
X008251Y009744D01*
X008300Y009695D01*
X008493Y009695D01*
X008542Y009744D01*
X008542Y009840D01*
X008493Y009889D01*
X008542Y009990D02*
X008251Y009990D01*
X008300Y009300D02*
X008396Y009300D01*
X008445Y009251D01*
X008445Y009154D01*
X008396Y009106D01*
X008300Y009106D01*
X008251Y009154D01*
X008251Y009251D01*
X008300Y009300D01*
X008348Y009005D02*
X008348Y008860D01*
X008300Y008811D01*
X008251Y008860D01*
X008251Y009005D01*
X008396Y009005D01*
X008445Y008957D01*
X008445Y008860D01*
X008396Y008710D02*
X008396Y008517D01*
X008251Y008517D02*
X008542Y008517D01*
X008542Y008710D02*
X008251Y008710D01*
X008731Y008662D02*
X008731Y008517D01*
X009022Y008517D01*
X009022Y008662D01*
X008973Y008710D01*
X008780Y008710D01*
X008731Y008662D01*
X008780Y008811D02*
X008828Y008860D01*
X008828Y009005D01*
X008876Y009005D02*
X008731Y009005D01*
X008731Y008860D01*
X008780Y008811D01*
X008925Y008860D02*
X008925Y008957D01*
X008876Y009005D01*
X008828Y009106D02*
X008925Y009203D01*
X008925Y009251D01*
X008925Y009352D02*
X008731Y009352D01*
X008828Y009352D02*
X008925Y009448D01*
X008925Y009497D01*
X008876Y009597D02*
X008925Y009646D01*
X008925Y009742D01*
X008876Y009791D01*
X008828Y009791D01*
X008828Y009597D01*
X008780Y009597D02*
X008876Y009597D01*
X008780Y009597D02*
X008731Y009646D01*
X008731Y009742D01*
X008731Y009892D02*
X008925Y009892D01*
X008925Y010037D01*
X008876Y010085D01*
X008731Y010085D01*
X008780Y010481D02*
X008731Y010529D01*
X008731Y010626D01*
X008780Y010675D01*
X008828Y010675D01*
X008876Y010626D01*
X008876Y010529D01*
X008925Y010481D01*
X008973Y010481D01*
X009022Y010529D01*
X009022Y010626D01*
X008973Y010675D01*
X008925Y010776D02*
X008925Y010872D01*
X008973Y010824D02*
X008780Y010824D01*
X008731Y010872D01*
X008780Y010972D02*
X008828Y011021D01*
X008828Y011166D01*
X008876Y011166D02*
X008731Y011166D01*
X008731Y011021D01*
X008780Y010972D01*
X008925Y011021D02*
X008925Y011117D01*
X008876Y011166D01*
X008876Y011267D02*
X008925Y011315D01*
X008925Y011412D01*
X008876Y011460D01*
X008731Y011460D01*
X008731Y011561D02*
X008731Y011658D01*
X008731Y011610D02*
X009022Y011610D01*
X009022Y011561D01*
X009211Y011561D02*
X009211Y011657D01*
X009260Y011706D01*
X009356Y011706D01*
X009405Y011657D01*
X009405Y011561D01*
X009356Y011512D01*
X009260Y011512D01*
X009211Y011561D01*
X009260Y011411D02*
X009211Y011363D01*
X009211Y011218D01*
X009211Y011118D02*
X009211Y011021D01*
X009211Y011070D02*
X009502Y011070D01*
X009502Y011021D01*
X009405Y010872D02*
X009356Y010920D01*
X009308Y010920D01*
X009308Y010727D01*
X009260Y010727D02*
X009356Y010727D01*
X009405Y010775D01*
X009405Y010872D01*
X009260Y010727D02*
X009211Y010775D01*
X009211Y010872D01*
X009211Y010625D02*
X009502Y010625D01*
X009502Y010432D02*
X009211Y010625D01*
X009211Y010432D02*
X009502Y010432D01*
X009691Y010480D02*
X009788Y010383D01*
X009982Y010383D01*
X009982Y010576D02*
X009788Y010576D01*
X009691Y010480D01*
X009691Y010678D02*
X009691Y010774D01*
X009691Y010726D02*
X009885Y010726D01*
X009885Y010678D01*
X009982Y010726D02*
X010030Y010726D01*
X009885Y010922D02*
X009836Y010874D01*
X009740Y010874D01*
X009691Y010922D01*
X009691Y011067D01*
X009982Y011067D01*
X009885Y011067D02*
X009885Y010922D01*
X009740Y011169D02*
X009788Y011217D01*
X009788Y011362D01*
X009836Y011362D02*
X009691Y011362D01*
X009691Y011217D01*
X009740Y011169D01*
X009885Y011217D02*
X009885Y011314D01*
X009836Y011362D01*
X009885Y011463D02*
X009691Y011463D01*
X009691Y011657D02*
X009836Y011657D01*
X009885Y011608D01*
X009885Y011463D01*
X009740Y011758D02*
X009788Y011806D01*
X009788Y011951D01*
X009836Y011951D02*
X009691Y011951D01*
X009691Y011806D01*
X009740Y011758D01*
X009885Y011806D02*
X009885Y011903D01*
X009836Y011951D01*
X009885Y012053D02*
X009885Y012101D01*
X009836Y012149D01*
X009885Y012198D01*
X009836Y012246D01*
X009691Y012246D01*
X009691Y012149D02*
X009836Y012149D01*
X009885Y012053D02*
X009691Y012053D01*
X009740Y012347D02*
X009788Y012396D01*
X009788Y012541D01*
X009836Y012541D02*
X009691Y012541D01*
X009691Y012396D01*
X009740Y012347D01*
X009885Y012396D02*
X009885Y012492D01*
X009836Y012541D01*
X009836Y012642D02*
X009740Y012642D01*
X009691Y012690D01*
X009691Y012835D01*
X009982Y012835D01*
X009885Y012835D02*
X009885Y012690D01*
X009836Y012642D01*
X009885Y012937D02*
X009740Y012937D01*
X009691Y012985D01*
X009691Y013130D01*
X009885Y013130D01*
X009885Y013231D02*
X009691Y013231D01*
X009788Y013231D02*
X009885Y013328D01*
X009885Y013376D01*
X009885Y013525D02*
X009885Y013622D01*
X009836Y013670D01*
X009691Y013670D01*
X009691Y013525D01*
X009740Y013477D01*
X009788Y013525D01*
X009788Y013670D01*
X009740Y013820D02*
X009691Y013820D01*
X009691Y013868D01*
X009740Y013868D01*
X009740Y013820D01*
X009691Y013868D02*
X009595Y013771D01*
X009260Y012198D02*
X009211Y012198D01*
X009211Y012150D01*
X009260Y012150D01*
X009260Y012198D01*
X009211Y012198D02*
X009115Y012102D01*
X009211Y012001D02*
X009356Y012001D01*
X009405Y011952D01*
X009405Y011807D01*
X009211Y011807D01*
X009260Y011411D02*
X009308Y011363D01*
X009308Y011266D01*
X009356Y011218D01*
X009405Y011266D01*
X009405Y011411D01*
X009022Y011267D02*
X008731Y011267D01*
X008635Y011758D02*
X008731Y011855D01*
X008731Y011806D01*
X008780Y011806D01*
X008780Y011855D01*
X008731Y011855D01*
X009211Y010038D02*
X009260Y009989D01*
X009453Y009989D01*
X009405Y009941D02*
X009405Y010038D01*
X009405Y009840D02*
X009405Y009792D01*
X009308Y009695D01*
X009211Y009695D02*
X009405Y009695D01*
X009356Y009594D02*
X009405Y009546D01*
X009405Y009449D01*
X009356Y009401D01*
X009260Y009401D01*
X009211Y009449D01*
X009211Y009546D01*
X009308Y009594D02*
X009308Y009401D01*
X009260Y009300D02*
X009356Y009300D01*
X009405Y009251D01*
X009405Y009106D01*
X009502Y009106D02*
X009211Y009106D01*
X009211Y009251D01*
X009260Y009300D01*
X009260Y009005D02*
X009356Y009005D01*
X009405Y008957D01*
X009405Y008860D01*
X009356Y008811D01*
X009260Y008811D01*
X009211Y008860D01*
X009211Y008957D01*
X009260Y009005D01*
X009211Y008710D02*
X009308Y008613D01*
X009308Y008662D02*
X009308Y008517D01*
X009211Y008517D02*
X009502Y008517D01*
X009502Y008662D01*
X009453Y008710D01*
X009356Y008710D01*
X009308Y008662D01*
X009691Y008710D02*
X009982Y008710D01*
X009836Y008710D02*
X009836Y008517D01*
X009691Y008517D02*
X009982Y008517D01*
X009885Y008860D02*
X009885Y008957D01*
X009836Y009005D01*
X009691Y009005D01*
X009691Y008860D01*
X009740Y008811D01*
X009788Y008860D01*
X009788Y009005D01*
X009836Y009106D02*
X009788Y009154D01*
X009788Y009251D01*
X009740Y009300D01*
X009691Y009251D01*
X009691Y009106D01*
X009836Y009106D02*
X009885Y009154D01*
X009885Y009300D01*
X009885Y009401D02*
X009885Y009449D01*
X009691Y009449D01*
X009691Y009401D02*
X009691Y009497D01*
X009740Y009646D02*
X009691Y009694D01*
X009740Y009646D02*
X009933Y009646D01*
X009885Y009694D02*
X009885Y009597D01*
X009982Y009449D02*
X010030Y009449D01*
X009982Y009794D02*
X009691Y009794D01*
X009836Y009794D02*
X009885Y009842D01*
X009885Y009939D01*
X009836Y009987D01*
X009691Y009987D01*
X009356Y009594D02*
X009308Y009594D01*
X008925Y009106D02*
X008731Y009106D01*
M02*
