G75*
G70*
%OFA0B0*%
%FSLAX24Y24*%
%IPPOS*%
%LPD*%
%AMOC8*
5,1,8,0,0,1.08239X$1,22.5*
%
%ADD10C,0.0650*%
%ADD11R,0.0650X0.0650*%
%ADD12C,0.0740*%
%ADD13C,0.0800*%
%ADD14C,0.0780*%
%ADD15C,0.0480*%
%ADD16OC8,0.0600*%
%ADD17C,0.0600*%
%ADD18OC8,0.0740*%
%ADD19C,0.0060*%
%ADD20C,0.0270*%
D10*
X002786Y006100D03*
X004596Y010650D03*
X004596Y011650D03*
X004639Y013887D03*
X004639Y014887D03*
X006536Y004850D03*
D11*
X007536Y004850D03*
X001786Y006100D03*
D12*
X001036Y004100D03*
X002536Y008350D03*
X002536Y009600D03*
X001286Y009850D03*
X001286Y013850D03*
X005786Y015600D03*
X006536Y009600D03*
X006536Y008350D03*
X005036Y004100D03*
X005036Y001850D03*
X005036Y000850D03*
X006756Y000710D03*
X006756Y002490D03*
X009316Y002490D03*
X009316Y000710D03*
X009786Y015600D03*
D13*
X009536Y005400D03*
X009536Y004300D03*
D14*
X009305Y006945D03*
X005305Y006945D03*
D15*
X002979Y011707D03*
X002979Y013607D03*
D16*
X005536Y021350D03*
X005536Y022350D03*
X006536Y022350D03*
X006536Y021350D03*
X007536Y021350D03*
X007536Y022350D03*
X008536Y022350D03*
X008536Y021350D03*
D17*
X011736Y019350D02*
X012336Y019350D01*
X012336Y018350D02*
X011736Y018350D01*
X011736Y017350D02*
X012336Y017350D01*
X012336Y016350D02*
X011736Y016350D01*
X011736Y014850D02*
X012336Y014850D01*
X012336Y013850D02*
X011736Y013850D01*
X011736Y012850D02*
X012336Y012850D01*
X012336Y011850D02*
X011736Y011850D01*
X011736Y010850D02*
X012336Y010850D01*
X012336Y009850D02*
X011736Y009850D01*
X011736Y008850D02*
X012336Y008850D01*
X012336Y006850D02*
X011736Y006850D01*
X011736Y005850D02*
X012336Y005850D01*
X012336Y004850D02*
X011736Y004850D01*
D18*
X008686Y017550D03*
X008686Y018550D03*
X007686Y018550D03*
X007686Y017550D03*
X006686Y017550D03*
X006686Y018550D03*
D19*
X001036Y004100D02*
X000886Y004100D01*
X000686Y004300D01*
X000686Y013100D01*
X001286Y013700D01*
X001286Y013850D01*
X002979Y011707D02*
X003086Y011700D01*
X003086Y010700D01*
X004486Y010700D01*
X004596Y010650D01*
X004596Y011650D02*
X004486Y011700D01*
X004086Y012100D01*
X004086Y014300D01*
X004486Y014700D01*
X004639Y014887D01*
X005686Y015500D02*
X005686Y013100D01*
X005486Y012900D01*
X005086Y012900D02*
X006086Y011900D01*
X006086Y011700D01*
X006486Y011300D01*
X006886Y011300D01*
X006886Y011700D01*
X006686Y011900D01*
X006686Y017550D01*
X006286Y017100D02*
X006086Y017300D01*
X006086Y020300D01*
X007686Y018700D01*
X007686Y018550D01*
X007686Y017550D02*
X007686Y012100D01*
X007286Y012500D02*
X007286Y011300D01*
X007486Y011100D01*
X007486Y004900D01*
X007536Y004850D01*
X006686Y004700D02*
X006536Y004850D01*
X006686Y004700D02*
X006686Y002500D01*
X006756Y002490D01*
X006286Y001300D02*
X006686Y000900D01*
X006756Y000710D01*
X006286Y001300D02*
X006286Y003700D01*
X001886Y008100D01*
X001886Y009100D01*
X001286Y009700D01*
X001286Y009850D01*
X002536Y009600D02*
X002686Y009500D01*
X005286Y006900D01*
X005305Y006945D01*
X006886Y007900D02*
X007086Y008100D01*
X007086Y009900D01*
X005086Y011900D01*
X005486Y012100D02*
X007286Y010300D01*
X007286Y007700D01*
X007086Y007500D01*
X005086Y004100D02*
X005036Y004100D01*
X005086Y004100D02*
X005086Y001900D01*
X005036Y001850D01*
X008686Y001500D02*
X009286Y000900D01*
X009316Y000710D01*
X008686Y001500D02*
X008686Y013100D01*
X008686Y017550D01*
X008686Y018550D02*
X008686Y018700D01*
X009086Y019100D01*
X009086Y021900D01*
X008686Y022300D01*
X008536Y022350D01*
X007536Y022350D02*
X007086Y021900D01*
X007086Y021100D01*
X008286Y019900D01*
X006536Y021350D02*
X006086Y020900D01*
X006086Y020300D01*
X005086Y021900D02*
X005086Y012900D01*
X006286Y011900D02*
X006286Y017100D01*
X005786Y015600D02*
X005686Y015500D01*
X006286Y011900D02*
X006486Y011700D01*
X009536Y005400D02*
X009686Y005300D01*
X009686Y004900D01*
X011886Y004900D01*
X012036Y004850D01*
X013086Y005900D01*
X013086Y016300D01*
X012086Y016300D01*
X012036Y016350D01*
X011686Y015500D02*
X012886Y015500D01*
X012886Y012700D01*
X012036Y011850D01*
X010886Y013100D02*
X011086Y013300D01*
X011086Y018500D01*
X011886Y019300D01*
X012036Y019350D01*
X011686Y019900D02*
X012886Y019900D01*
X012886Y019300D01*
X012086Y018500D01*
X012036Y018350D01*
X012036Y017350D02*
X011886Y017300D01*
X011286Y016700D01*
X011286Y009100D01*
X011286Y006500D01*
X011886Y005900D01*
X012036Y005850D01*
X011286Y009100D02*
X012036Y009850D01*
X010486Y013100D02*
X010886Y013500D01*
X010886Y019100D01*
X011686Y019900D01*
X005536Y022350D02*
X005086Y021900D01*
D20*
X008286Y019900D03*
X011686Y015500D03*
X010886Y013100D03*
X010486Y013100D03*
X008686Y013100D03*
X007686Y012100D03*
X007286Y012500D03*
X006886Y011700D03*
X006486Y011700D03*
X007286Y011300D03*
X005486Y012100D03*
X005086Y011900D03*
X005486Y012900D03*
X006886Y007900D03*
X007086Y007500D03*
M02*
