%
M48
M72
T01C0.0130
T02C0.0276
T03C0.0320
T04C0.0354
T05C0.0394
T06C0.0400
T07C0.1181
%
T01
X6486Y11700
X6886Y11700
X7286Y11300
X7686Y12100
X7286Y12500
X8686Y13100
X10486Y13100
X10886Y13100
X11686Y15500
X8286Y19900
X5486Y12900
X5486Y12100
X5086Y11900
X6886Y7900
X7086Y7500
T02
X7536Y4850
X6536Y4850
X4596Y10650
X4596Y11650
X4639Y13887
X4639Y14887
X2786Y6100
X1786Y6100
T03
X5036Y1850
X5036Y850
X2979Y11707
X2979Y13607
T04
X1286Y13850
X1286Y9850
X2536Y9600
X2536Y8350
X1036Y4100
X5036Y4100
X6536Y8350
X6536Y9600
X5786Y15600
X9786Y15600
T05
X9305Y6945
X5305Y6945
T06
X6756Y2490
X6756Y710
X9316Y710
X9316Y2490
X9536Y4300
X9536Y5400
X12036Y5850
X12036Y4850
X12036Y6850
X12036Y8850
X12036Y9850
X12036Y10850
X12036Y11850
X12036Y12850
X12036Y13850
X12036Y14850
X12036Y16350
X12036Y17350
X12036Y18350
X12036Y19350
X8686Y18550
X8686Y17550
X7686Y17550
X7686Y18550
X6686Y18550
X6686Y17550
X6536Y21350
X6536Y22350
X7536Y22350
X7536Y21350
X8536Y21350
X8536Y22350
X5536Y22350
X5536Y21350
T07
X2036Y1850
X11536Y1850
X11536Y21850
X2286Y21850
M30
