G75*
G70*
%OFA0B0*%
%FSLAX24Y24*%
%IPPOS*%
%LPD*%
%AMOC8*
5,1,8,0,0,1.08239X$1,22.5*
%
%ADD10C,0.0000*%
%ADD11C,0.0020*%
%ADD12C,0.0030*%
%ADD13R,0.0003X0.0007*%
%ADD14R,0.0003X0.0010*%
%ADD15R,0.0003X0.0017*%
%ADD16R,0.0003X0.0020*%
%ADD17R,0.0003X0.0003*%
%ADD18R,0.0003X0.0017*%
%ADD19R,0.0003X0.0020*%
%ADD20R,0.0003X0.0007*%
%ADD21R,0.0003X0.0004*%
%ADD22R,0.0003X0.0004*%
%ADD23R,0.0003X0.0003*%
%ADD24R,0.0003X0.0124*%
%ADD25R,0.0003X0.0043*%
%ADD26R,0.0003X0.0006*%
%ADD27R,0.0003X0.0013*%
%ADD28R,0.0003X0.0030*%
%ADD29R,0.0003X0.0460*%
%ADD30R,0.0003X0.0024*%
%ADD31R,0.0003X0.0036*%
%ADD32R,0.0003X0.0023*%
%ADD33R,0.0003X0.0463*%
%ADD34R,0.0003X0.0033*%
%ADD35R,0.0003X0.0023*%
%ADD36R,0.0003X0.0470*%
%ADD37R,0.0003X0.0030*%
%ADD38R,0.0003X0.0474*%
%ADD39R,0.0003X0.0474*%
%ADD40R,0.0003X0.0027*%
%ADD41R,0.0003X0.0033*%
%ADD42R,0.0003X0.0470*%
%ADD43R,0.0003X0.0024*%
%ADD44R,0.0003X0.0040*%
%ADD45R,0.0003X0.0473*%
%ADD46R,0.0003X0.0036*%
%ADD47R,0.0003X0.0016*%
%ADD48R,0.0003X0.0037*%
%ADD49R,0.0003X0.0016*%
%ADD50R,0.0003X0.0477*%
%ADD51R,0.0003X0.0477*%
%ADD52R,0.0003X0.0480*%
%ADD53R,0.0003X0.0483*%
%ADD54R,0.0003X0.0040*%
%ADD55R,0.0003X0.0480*%
%ADD56R,0.0003X0.0027*%
%ADD57R,0.0003X0.0026*%
%ADD58R,0.0003X0.0484*%
%ADD59R,0.0003X0.0490*%
%ADD60R,0.0003X0.0490*%
%ADD61R,0.0003X0.0494*%
%ADD62R,0.0003X0.0026*%
%ADD63R,0.0003X0.0494*%
%ADD64R,0.0003X0.0037*%
%ADD65R,0.0003X0.0497*%
%ADD66R,0.0003X0.0496*%
%ADD67R,0.0003X0.0034*%
%ADD68R,0.0003X0.0496*%
%ADD69R,0.0003X0.0493*%
%ADD70R,0.0003X0.0500*%
%ADD71R,0.0003X0.0503*%
%ADD72R,0.0003X0.0507*%
%ADD73R,0.0003X0.0043*%
%ADD74R,0.0003X0.0507*%
%ADD75R,0.0003X0.0047*%
%ADD76R,0.0003X0.0510*%
%ADD77R,0.0003X0.0503*%
%ADD78R,0.0003X0.0506*%
%ADD79R,0.0003X0.0510*%
%ADD80R,0.0003X0.0044*%
%ADD81R,0.0003X0.0513*%
%ADD82R,0.0003X0.0514*%
%ADD83R,0.0003X0.0067*%
%ADD84R,0.0003X0.0517*%
%ADD85R,0.0003X0.0066*%
%ADD86R,0.0003X0.0517*%
%ADD87R,0.0003X0.0066*%
%ADD88R,0.0003X0.0060*%
%ADD89R,0.0003X0.0056*%
%ADD90R,0.0003X0.0057*%
%ADD91R,0.0003X0.0054*%
%ADD92R,0.0003X0.0513*%
%ADD93R,0.0003X0.0050*%
%ADD94R,0.0003X0.0050*%
%ADD95R,0.0003X0.0516*%
%ADD96R,0.0003X0.0316*%
%ADD97R,0.0003X0.0120*%
%ADD98R,0.0003X0.0290*%
%ADD99R,0.0003X0.0093*%
%ADD100R,0.0003X0.0254*%
%ADD101R,0.0003X0.0090*%
%ADD102R,0.0003X0.0240*%
%ADD103R,0.0003X0.0083*%
%ADD104R,0.0003X0.0224*%
%ADD105R,0.0003X0.0080*%
%ADD106R,0.0003X0.0200*%
%ADD107R,0.0003X0.0077*%
%ADD108R,0.0003X0.0193*%
%ADD109R,0.0003X0.0003*%
%ADD110R,0.0003X0.0074*%
%ADD111R,0.0003X0.0173*%
%ADD112R,0.0003X0.0074*%
%ADD113R,0.0003X0.0160*%
%ADD114R,0.0003X0.0150*%
%ADD115R,0.0003X0.0063*%
%ADD116R,0.0003X0.0140*%
%ADD117R,0.0003X0.0123*%
%ADD118R,0.0003X0.0057*%
%ADD119R,0.0003X0.0114*%
%ADD120R,0.0003X0.0100*%
%ADD121R,0.0003X0.0093*%
%ADD122R,0.0003X0.0046*%
%ADD123R,0.0003X0.0086*%
%ADD124R,0.0003X0.0046*%
%ADD125R,0.0003X0.0073*%
%ADD126R,0.0003X0.0070*%
%ADD127R,0.0003X0.0047*%
%ADD128R,0.0003X0.0073*%
%ADD129R,0.0003X0.0070*%
%ADD130R,0.0003X0.0063*%
%ADD131R,0.0003X0.0060*%
%ADD132R,0.0003X0.0053*%
%ADD133R,0.0003X0.0034*%
%ADD134R,0.0003X0.0053*%
%ADD135R,0.0003X0.0453*%
%ADD136R,0.0003X0.0216*%
%ADD137R,0.0003X0.0056*%
%ADD138R,0.0003X0.0044*%
%ADD139R,0.0003X0.0083*%
%ADD140R,0.0003X0.0104*%
%ADD141R,0.0003X0.0107*%
%ADD142R,0.0003X0.0120*%
%ADD143R,0.0003X0.0127*%
%ADD144R,0.0003X0.0084*%
%ADD145R,0.0003X0.0013*%
%ADD146R,0.0003X0.0010*%
%ADD147R,0.0003X0.0077*%
%ADD148R,0.0003X0.0014*%
%ADD149R,0.0003X0.0150*%
%ADD150R,0.0003X0.0160*%
%ADD151R,0.0003X0.0156*%
%ADD152R,0.0003X0.0064*%
%ADD153R,0.0003X0.0014*%
%ADD154R,0.0003X0.0006*%
%ADD155R,0.0003X0.0097*%
%ADD156R,0.0003X0.0110*%
%ADD157R,0.0003X0.0116*%
%ADD158R,0.0003X0.0123*%
%ADD159R,0.0003X0.0134*%
%ADD160R,0.0003X0.0147*%
%ADD161R,0.0003X0.0157*%
%ADD162R,0.0003X0.0163*%
%ADD163R,0.0003X0.0170*%
%ADD164R,0.0003X0.0177*%
%ADD165R,0.0003X0.0183*%
%ADD166R,0.0003X0.0190*%
%ADD167R,0.0003X0.0197*%
%ADD168R,0.0003X0.0203*%
%ADD169R,0.0003X0.0217*%
%ADD170R,0.0003X0.0223*%
%ADD171R,0.0003X0.0220*%
%ADD172R,0.0003X0.0076*%
%ADD173R,0.0003X0.0237*%
%ADD174R,0.0003X0.0076*%
%ADD175R,0.0003X0.0234*%
%ADD176R,0.0003X0.0086*%
%ADD177R,0.0003X0.0253*%
%ADD178R,0.0003X0.0257*%
%ADD179R,0.0003X0.0090*%
%ADD180R,0.0003X0.0270*%
%ADD181R,0.0003X0.0153*%
%ADD182R,0.0003X0.0180*%
%ADD183R,0.0003X0.0280*%
%ADD184R,0.0003X0.0170*%
%ADD185R,0.0003X0.0286*%
%ADD186R,0.0003X0.0167*%
%ADD187R,0.0003X0.0294*%
%ADD188R,0.0003X0.0117*%
%ADD189R,0.0003X0.0297*%
%ADD190R,0.0003X0.0117*%
%ADD191R,0.0003X0.0103*%
%ADD192R,0.0003X0.0307*%
%ADD193R,0.0003X0.0310*%
%ADD194R,0.0003X0.0317*%
%ADD195R,0.0003X0.0130*%
%ADD196R,0.0003X0.0326*%
%ADD197R,0.0003X0.0137*%
%ADD198R,0.0003X0.0330*%
%ADD199R,0.0003X0.0136*%
%ADD200R,0.0003X0.0340*%
%ADD201R,0.0003X0.0140*%
%ADD202R,0.0003X0.0360*%
%ADD203R,0.0003X0.0536*%
%ADD204R,0.0003X0.0536*%
%ADD205R,0.0003X0.0540*%
%ADD206R,0.0003X0.0543*%
%ADD207R,0.0003X0.0550*%
%ADD208R,0.0003X0.0553*%
%ADD209R,0.0003X0.0550*%
%ADD210R,0.0003X0.0553*%
%ADD211R,0.0003X0.0556*%
%ADD212R,0.0003X0.0560*%
%ADD213R,0.0003X0.0563*%
%ADD214R,0.0003X0.0563*%
%ADD215R,0.0003X0.0560*%
%ADD216R,0.0003X0.0564*%
%ADD217R,0.0003X0.0567*%
%ADD218R,0.0003X0.0567*%
%ADD219R,0.0003X0.0064*%
%ADD220R,0.0003X0.0240*%
%ADD221R,0.0003X0.0566*%
%ADD222R,0.0003X0.0196*%
%ADD223R,0.0003X0.0566*%
%ADD224R,0.0003X0.0210*%
%ADD225R,0.0003X0.0177*%
%ADD226R,0.0003X0.0094*%
%ADD227R,0.0003X0.0214*%
%ADD228R,0.0003X0.0153*%
%ADD229R,0.0003X0.0183*%
%ADD230R,0.0003X0.0556*%
%ADD231R,0.0003X0.0146*%
%ADD232R,0.0003X0.0107*%
%ADD233R,0.0003X0.0546*%
%ADD234R,0.0003X0.0540*%
%ADD235R,0.0540X0.0003*%
%ADD236R,0.0003X0.0537*%
%ADD237R,0.0003X0.0533*%
%ADD238R,0.0003X0.0530*%
%ADD239R,0.0003X0.0533*%
%ADD240R,0.0003X0.0534*%
%ADD241R,0.0003X0.0534*%
%ADD242R,0.0003X0.0526*%
%ADD243R,0.0003X0.0523*%
%ADD244R,0.0003X0.0520*%
%ADD245R,0.0003X0.0504*%
%ADD246R,0.0003X0.0504*%
%ADD247R,0.0003X0.0500*%
%ADD248R,0.0003X0.0493*%
%ADD249R,0.0003X0.0054*%
%ADD250R,0.0003X0.0487*%
%ADD251R,0.0003X0.0483*%
%ADD252R,0.0003X0.0466*%
%ADD253R,0.0003X0.0466*%
%ADD254R,0.0003X0.0463*%
%ADD255R,0.0003X0.0460*%
%ADD256R,0.0003X0.0457*%
%ADD257R,0.0003X0.0453*%
%ADD258R,0.0003X0.0450*%
%ADD259R,0.0003X0.0444*%
%ADD260R,0.0003X0.0440*%
%ADD261R,0.0003X0.0433*%
%ADD262R,0.0003X0.0433*%
%ADD263R,0.0003X0.0430*%
%ADD264R,0.0003X0.0424*%
%ADD265R,0.0003X0.0423*%
%ADD266R,0.0003X0.0417*%
%ADD267R,0.0003X0.0414*%
%ADD268R,0.0003X0.0410*%
%ADD269R,0.0003X0.0403*%
%ADD270R,0.0003X0.0400*%
%ADD271R,0.0003X0.0397*%
%ADD272R,0.0003X0.0397*%
%ADD273R,0.0003X0.0390*%
%ADD274R,0.0003X0.0386*%
%ADD275R,0.0003X0.0383*%
%ADD276R,0.0003X0.0377*%
%ADD277R,0.0003X0.0374*%
%ADD278R,0.0003X0.0370*%
%ADD279R,0.0003X0.0364*%
%ADD280R,0.0003X0.0360*%
%ADD281R,0.0003X0.0356*%
%ADD282R,0.0003X0.0096*%
%ADD283R,0.0003X0.0353*%
%ADD284R,0.0003X0.0103*%
%ADD285R,0.0003X0.0353*%
%ADD286R,0.0003X0.0350*%
%ADD287R,0.0003X0.0354*%
%ADD288R,0.0003X0.0520*%
%ADD289R,0.0003X0.0537*%
%ADD290R,0.0003X0.0544*%
%ADD291R,0.0003X0.0547*%
%ADD292R,0.0003X0.0176*%
%ADD293R,0.0003X0.0196*%
%ADD294R,0.0003X0.0227*%
%ADD295R,0.0003X0.0246*%
%ADD296R,0.0003X0.0580*%
%ADD297R,0.0003X0.0276*%
%ADD298R,0.0003X0.0583*%
%ADD299R,0.0003X0.0293*%
%ADD300R,0.0003X0.0587*%
%ADD301R,0.0003X0.0314*%
%ADD302R,0.0003X0.0590*%
%ADD303R,0.0003X0.0337*%
%ADD304R,0.0003X0.0590*%
%ADD305R,0.0003X0.0370*%
%ADD306R,0.0003X0.0604*%
%ADD307R,0.0003X0.0610*%
%ADD308R,0.0003X0.0613*%
%ADD309R,0.0003X0.0614*%
%ADD310R,0.0003X0.0447*%
%ADD311R,0.0003X0.0616*%
%ADD312R,0.0003X0.0456*%
%ADD313R,0.0003X0.0617*%
%ADD314R,0.0003X0.0623*%
%ADD315R,0.0003X0.0634*%
%ADD316R,0.0003X0.0637*%
%ADD317R,0.0003X0.0650*%
%ADD318R,0.0003X0.0627*%
%ADD319R,0.0003X0.0547*%
%ADD320R,0.0003X0.0616*%
%ADD321R,0.0003X0.0574*%
%ADD322R,0.0003X0.0597*%
%ADD323R,0.0003X0.0600*%
%ADD324R,0.0003X0.0586*%
%ADD325R,0.0003X0.0647*%
%ADD326R,0.0003X0.0564*%
%ADD327R,0.0003X0.0660*%
%ADD328R,0.0003X0.0673*%
%ADD329R,0.0003X0.0697*%
%ADD330R,0.0003X0.0710*%
%ADD331R,0.0003X0.0524*%
%ADD332R,0.0003X0.0727*%
%ADD333R,0.0003X0.0753*%
%ADD334R,0.0003X0.0777*%
%ADD335R,0.0003X0.0830*%
%ADD336R,0.0003X0.1406*%
%ADD337R,0.0003X0.1400*%
%ADD338R,0.0003X0.1397*%
%ADD339R,0.0003X0.1390*%
%ADD340R,0.0003X0.1384*%
%ADD341R,0.0003X0.1374*%
%ADD342R,0.0003X0.1370*%
%ADD343R,0.0003X0.1364*%
%ADD344R,0.0003X0.1360*%
%ADD345R,0.0003X0.1350*%
%ADD346R,0.0003X0.1344*%
%ADD347R,0.0003X0.1337*%
%ADD348R,0.0003X0.1330*%
%ADD349R,0.0003X0.1330*%
%ADD350R,0.0003X0.1323*%
%ADD351R,0.0003X0.1317*%
%ADD352R,0.0003X0.1317*%
%ADD353R,0.0003X0.1313*%
%ADD354R,0.0003X0.1313*%
%ADD355R,0.0003X0.1324*%
%ADD356R,0.0003X0.1327*%
%ADD357R,0.0003X0.1323*%
%ADD358R,0.0003X0.1327*%
%ADD359R,0.0003X0.1333*%
%ADD360R,0.0003X0.1340*%
%ADD361R,0.0003X0.1334*%
%ADD362R,0.0003X0.1334*%
%ADD363R,0.0003X0.1340*%
%ADD364R,0.0003X0.1180*%
%ADD365R,0.0003X0.0147*%
%ADD366R,0.0003X0.1174*%
%ADD367R,0.0003X0.1166*%
%ADD368R,0.0003X0.0134*%
%ADD369R,0.0003X0.1163*%
%ADD370R,0.0003X0.0130*%
%ADD371R,0.0003X0.1163*%
%ADD372R,0.0003X0.1160*%
%ADD373R,0.0003X0.0116*%
%ADD374R,0.0003X0.1153*%
%ADD375R,0.0003X0.1153*%
%ADD376R,0.0003X0.1150*%
%ADD377R,0.0003X0.1147*%
%ADD378R,0.0003X0.1144*%
%ADD379R,0.0003X0.0087*%
%ADD380R,0.0003X0.1143*%
%ADD381R,0.0003X0.1140*%
%ADD382R,0.0003X0.1137*%
%ADD383R,0.0003X0.1133*%
%ADD384R,0.0003X0.1130*%
%ADD385R,0.0003X0.1126*%
%ADD386R,0.0003X0.1123*%
%ADD387R,0.0003X0.1123*%
%ADD388R,0.0003X0.1116*%
%ADD389R,0.0003X0.1110*%
%ADD390R,0.0003X0.1113*%
%ADD391R,0.0003X0.1113*%
%ADD392R,0.0003X0.1104*%
%ADD393R,0.0003X0.1093*%
%ADD394R,0.0003X0.1090*%
%ADD395R,0.0003X0.1086*%
%ADD396R,0.0003X0.1083*%
%ADD397R,0.0003X0.1080*%
%ADD398R,0.0003X0.1074*%
%ADD399R,0.0003X0.1070*%
%ADD400R,0.0003X0.1067*%
%ADD401R,0.0003X0.1056*%
%ADD402R,0.0003X0.1047*%
%ADD403R,0.0003X0.1043*%
%ADD404R,0.0003X0.1040*%
%ADD405R,0.0003X0.1037*%
%ADD406R,0.0003X0.1023*%
%ADD407R,0.0003X0.1024*%
%ADD408R,0.0003X0.1020*%
%ADD409R,0.0003X0.1010*%
%ADD410R,0.0003X0.1003*%
%ADD411R,0.0003X0.1000*%
%ADD412R,0.0003X0.0990*%
%ADD413R,0.0003X0.0987*%
%ADD414R,0.0003X0.0976*%
%ADD415R,0.0003X0.0970*%
%ADD416R,0.0003X0.0957*%
%ADD417R,0.0003X0.0954*%
%ADD418R,0.0003X0.0940*%
%ADD419R,0.0003X0.0434*%
%ADD420R,0.0003X0.0267*%
%ADD421R,0.0003X0.0214*%
%ADD422R,0.0003X0.0260*%
%ADD423R,0.0003X0.0394*%
%ADD424R,0.0003X0.0257*%
%ADD425R,0.0003X0.0213*%
%ADD426R,0.0003X0.0254*%
%ADD427R,0.0003X0.0207*%
%ADD428R,0.0003X0.0204*%
%ADD429R,0.0003X0.0316*%
%ADD430R,0.0003X0.0250*%
%ADD431R,0.0003X0.0207*%
%ADD432R,0.0003X0.0293*%
%ADD433R,0.0003X0.0247*%
%ADD434R,0.0003X0.0273*%
%ADD435R,0.0003X0.0247*%
%ADD436R,0.0003X0.0244*%
%ADD437R,0.0003X0.0210*%
%ADD438R,0.0003X0.0243*%
%ADD439R,0.0003X0.0197*%
%ADD440R,0.0003X0.0097*%
%ADD441R,0.0003X0.0193*%
%ADD442R,0.0003X0.0190*%
%ADD443R,0.0003X0.0236*%
%ADD444R,0.0003X0.0187*%
%ADD445R,0.0003X0.0233*%
%ADD446R,0.0003X0.0230*%
%ADD447R,0.0003X0.0226*%
%ADD448R,0.0003X0.0180*%
%ADD449R,0.0003X0.0176*%
%ADD450R,0.0003X0.0227*%
%ADD451R,0.0003X0.0220*%
%ADD452R,0.0003X0.0216*%
%ADD453R,0.0003X0.0167*%
%ADD454R,0.0003X0.0206*%
%ADD455R,0.0003X0.0163*%
%ADD456R,0.0003X0.0206*%
%ADD457R,0.0003X0.0200*%
%ADD458R,0.0003X0.0146*%
%ADD459R,0.0003X0.0154*%
%ADD460R,0.0003X0.0143*%
%ADD461R,0.0003X0.0184*%
%ADD462R,0.0003X0.0136*%
%ADD463R,0.0003X0.0173*%
%ADD464R,0.0003X0.0127*%
%ADD465R,0.0003X0.0166*%
%ADD466R,0.0003X0.0164*%
%ADD467R,0.0003X0.0113*%
%ADD468R,0.0003X0.0100*%
%ADD469R,0.0003X0.0144*%
%ADD470R,0.0003X0.0106*%
%ADD471R,0.0003X0.0133*%
%ADD472R,0.0003X0.0087*%
%ADD473R,0.0003X0.0080*%
%ADD474R,0.0003X0.0114*%
%ADD475R,0.0003X0.0067*%
%ADD476R,0.0003X0.0094*%
%ADD477C,0.0060*%
%ADD478C,0.0010*%
%ADD479C,0.0080*%
%ADD480C,0.0050*%
%ADD481C,0.0100*%
%ADD482C,0.0160*%
%ADD483R,0.0300X0.4200*%
%ADD484R,0.0200X0.0750*%
%ADD485R,0.0200X0.0300*%
D10*
X000286Y000100D02*
X000286Y023596D01*
X013406Y023596D01*
X013406Y000100D01*
X000286Y000100D01*
X001445Y001850D02*
X001447Y001898D01*
X001453Y001946D01*
X001463Y001993D01*
X001476Y002039D01*
X001494Y002084D01*
X001514Y002128D01*
X001539Y002170D01*
X001567Y002209D01*
X001597Y002246D01*
X001631Y002280D01*
X001668Y002312D01*
X001706Y002341D01*
X001747Y002366D01*
X001790Y002388D01*
X001835Y002406D01*
X001881Y002420D01*
X001928Y002431D01*
X001976Y002438D01*
X002024Y002441D01*
X002072Y002440D01*
X002120Y002435D01*
X002168Y002426D01*
X002214Y002414D01*
X002259Y002397D01*
X002303Y002377D01*
X002345Y002354D01*
X002385Y002327D01*
X002423Y002297D01*
X002458Y002264D01*
X002490Y002228D01*
X002520Y002190D01*
X002546Y002149D01*
X002568Y002106D01*
X002588Y002062D01*
X002603Y002017D01*
X002615Y001970D01*
X002623Y001922D01*
X002627Y001874D01*
X002627Y001826D01*
X002623Y001778D01*
X002615Y001730D01*
X002603Y001683D01*
X002588Y001638D01*
X002568Y001594D01*
X002546Y001551D01*
X002520Y001510D01*
X002490Y001472D01*
X002458Y001436D01*
X002423Y001403D01*
X002385Y001373D01*
X002345Y001346D01*
X002303Y001323D01*
X002259Y001303D01*
X002214Y001286D01*
X002168Y001274D01*
X002120Y001265D01*
X002072Y001260D01*
X002024Y001259D01*
X001976Y001262D01*
X001928Y001269D01*
X001881Y001280D01*
X001835Y001294D01*
X001790Y001312D01*
X001747Y001334D01*
X001706Y001359D01*
X001668Y001388D01*
X001631Y001420D01*
X001597Y001454D01*
X001567Y001491D01*
X001539Y001530D01*
X001514Y001572D01*
X001494Y001616D01*
X001476Y001661D01*
X001463Y001707D01*
X001453Y001754D01*
X001447Y001802D01*
X001445Y001850D01*
X000721Y017083D02*
X000719Y017083D01*
X000718Y017084D01*
X000723Y017089D01*
X000723Y017084D01*
X000721Y017083D01*
X000718Y017084D02*
X000718Y017089D01*
X000719Y017090D01*
X000721Y017090D01*
X000723Y017089D01*
X000716Y017084D02*
X000716Y017083D01*
X000715Y017083D01*
X000715Y017084D01*
X000716Y017084D01*
X000713Y017083D02*
X000708Y017083D01*
X000711Y017083D02*
X000711Y017090D01*
X000708Y017088D01*
X000706Y017088D02*
X000704Y017083D01*
X000702Y017088D01*
X000694Y017088D02*
X000692Y017088D01*
X000690Y017085D01*
X000688Y017085D02*
X000684Y017085D01*
X000684Y017084D02*
X000684Y017087D01*
X000685Y017088D01*
X000687Y017088D01*
X000688Y017087D01*
X000688Y017085D01*
X000687Y017083D02*
X000685Y017083D01*
X000684Y017084D01*
X000682Y017083D02*
X000679Y017083D01*
X000680Y017083D02*
X000680Y017090D01*
X000679Y017090D01*
X000676Y017090D02*
X000676Y017083D01*
X000675Y017083D02*
X000677Y017083D01*
X000673Y017084D02*
X000673Y017087D01*
X000672Y017088D01*
X000670Y017088D01*
X000669Y017087D01*
X000669Y017084D01*
X000670Y017083D01*
X000672Y017083D01*
X000673Y017084D01*
X000675Y017090D02*
X000676Y017090D01*
X000667Y017088D02*
X000665Y017088D01*
X000663Y017085D01*
X000663Y017083D02*
X000663Y017088D01*
X000661Y017088D02*
X000659Y017088D01*
X000660Y017089D02*
X000660Y017084D01*
X000661Y017083D01*
X000657Y017083D02*
X000657Y017087D01*
X000656Y017088D01*
X000652Y017088D01*
X000652Y017083D01*
X000651Y017084D02*
X000651Y017087D01*
X000649Y017088D01*
X000647Y017088D01*
X000646Y017087D01*
X000646Y017084D01*
X000647Y017083D01*
X000649Y017083D01*
X000651Y017084D01*
X000644Y017084D02*
X000643Y017083D01*
X000641Y017083D01*
X000640Y017084D01*
X000640Y017089D01*
X000641Y017090D01*
X000643Y017090D01*
X000644Y017089D01*
X000631Y017090D02*
X000631Y017083D01*
X000628Y017083D01*
X000627Y017084D01*
X000627Y017087D01*
X000628Y017088D01*
X000631Y017088D01*
X000625Y017088D02*
X000624Y017088D01*
X000621Y017085D01*
X000619Y017085D02*
X000616Y017085D01*
X000615Y017084D01*
X000616Y017083D01*
X000619Y017083D01*
X000619Y017087D01*
X000618Y017088D01*
X000616Y017088D01*
X000613Y017088D02*
X000608Y017083D01*
X000613Y017083D01*
X000613Y017088D02*
X000608Y017088D01*
X000607Y017088D02*
X000602Y017083D01*
X000607Y017083D01*
X000607Y017088D02*
X000602Y017088D01*
X000600Y017087D02*
X000600Y017083D01*
X000597Y017083D01*
X000595Y017084D01*
X000597Y017085D01*
X000600Y017085D01*
X000600Y017087D02*
X000599Y017088D01*
X000597Y017088D01*
X000594Y017087D02*
X000589Y017087D01*
X000589Y017090D02*
X000589Y017083D01*
X000594Y017083D02*
X000594Y017090D01*
X000621Y017083D02*
X000621Y017088D01*
X000690Y017083D02*
X000690Y017088D01*
X001695Y021850D02*
X001697Y021898D01*
X001703Y021946D01*
X001713Y021993D01*
X001726Y022039D01*
X001744Y022084D01*
X001764Y022128D01*
X001789Y022170D01*
X001817Y022209D01*
X001847Y022246D01*
X001881Y022280D01*
X001918Y022312D01*
X001956Y022341D01*
X001997Y022366D01*
X002040Y022388D01*
X002085Y022406D01*
X002131Y022420D01*
X002178Y022431D01*
X002226Y022438D01*
X002274Y022441D01*
X002322Y022440D01*
X002370Y022435D01*
X002418Y022426D01*
X002464Y022414D01*
X002509Y022397D01*
X002553Y022377D01*
X002595Y022354D01*
X002635Y022327D01*
X002673Y022297D01*
X002708Y022264D01*
X002740Y022228D01*
X002770Y022190D01*
X002796Y022149D01*
X002818Y022106D01*
X002838Y022062D01*
X002853Y022017D01*
X002865Y021970D01*
X002873Y021922D01*
X002877Y021874D01*
X002877Y021826D01*
X002873Y021778D01*
X002865Y021730D01*
X002853Y021683D01*
X002838Y021638D01*
X002818Y021594D01*
X002796Y021551D01*
X002770Y021510D01*
X002740Y021472D01*
X002708Y021436D01*
X002673Y021403D01*
X002635Y021373D01*
X002595Y021346D01*
X002553Y021323D01*
X002509Y021303D01*
X002464Y021286D01*
X002418Y021274D01*
X002370Y021265D01*
X002322Y021260D01*
X002274Y021259D01*
X002226Y021262D01*
X002178Y021269D01*
X002131Y021280D01*
X002085Y021294D01*
X002040Y021312D01*
X001997Y021334D01*
X001956Y021359D01*
X001918Y021388D01*
X001881Y021420D01*
X001847Y021454D01*
X001817Y021491D01*
X001789Y021530D01*
X001764Y021572D01*
X001744Y021616D01*
X001726Y021661D01*
X001713Y021707D01*
X001703Y021754D01*
X001697Y021802D01*
X001695Y021850D01*
X004116Y018054D02*
X004118Y018054D01*
X004119Y018053D01*
X004119Y018050D01*
X004119Y018048D02*
X004116Y018048D01*
X004115Y018047D01*
X004116Y018046D01*
X004119Y018046D01*
X004119Y018043D02*
X004115Y018043D01*
X004115Y018045D01*
X004116Y018046D01*
X004115Y018050D02*
X004115Y018053D01*
X004116Y018054D01*
X004115Y018050D02*
X004122Y018050D01*
X004118Y018042D02*
X004116Y018042D01*
X004115Y018040D01*
X004115Y018037D01*
X004112Y018037D02*
X004119Y018037D01*
X004119Y018040D01*
X004118Y018042D01*
X004118Y018035D02*
X004119Y018035D01*
X004119Y018034D01*
X004118Y018034D01*
X004118Y018035D01*
X004119Y018032D02*
X004119Y018027D01*
X004115Y018032D01*
X004113Y018032D01*
X004112Y018031D01*
X004112Y018028D01*
X004113Y018027D01*
X004113Y018025D02*
X004118Y018021D01*
X004119Y018021D01*
X004119Y018019D02*
X004119Y018014D01*
X004119Y018013D02*
X004119Y018008D01*
X004118Y018006D02*
X004119Y018005D01*
X004119Y018003D01*
X004118Y018001D01*
X004119Y018000D02*
X004119Y017996D01*
X004118Y017995D01*
X004116Y017995D01*
X004115Y017996D01*
X004115Y018000D01*
X004120Y018000D01*
X004122Y017998D01*
X004122Y017997D01*
X004119Y017989D02*
X004112Y017993D01*
X004116Y017987D02*
X004119Y017987D01*
X004116Y017987D02*
X004115Y017986D01*
X004115Y017983D01*
X004116Y017982D01*
X004115Y017980D02*
X004115Y017978D01*
X004113Y017979D02*
X004118Y017979D01*
X004119Y017980D01*
X004119Y017982D02*
X004112Y017982D01*
X004111Y017975D02*
X004112Y017975D01*
X004115Y017975D02*
X004119Y017975D01*
X004119Y017974D02*
X004119Y017976D01*
X004118Y017972D02*
X004117Y017971D01*
X004117Y017968D01*
X004116Y017967D01*
X004115Y017968D01*
X004115Y017972D01*
X004115Y017974D02*
X004115Y017975D01*
X004118Y017972D02*
X004119Y017971D01*
X004119Y017967D01*
X004119Y017965D02*
X004119Y017962D01*
X004118Y017961D01*
X004117Y017962D01*
X004117Y017965D01*
X004116Y017965D02*
X004119Y017965D01*
X004116Y017965D02*
X004115Y017964D01*
X004115Y017962D01*
X004116Y017959D02*
X004119Y017959D01*
X004116Y017959D02*
X004115Y017958D01*
X004115Y017955D01*
X004116Y017954D01*
X004119Y017954D02*
X004112Y017954D01*
X004112Y017952D02*
X004119Y017948D01*
X004117Y017946D02*
X004117Y017941D01*
X004118Y017941D02*
X004116Y017941D01*
X004115Y017942D01*
X004115Y017945D01*
X004116Y017946D01*
X004117Y017946D01*
X004119Y017945D02*
X004119Y017942D01*
X004118Y017941D01*
X004119Y017940D02*
X004116Y017940D01*
X004115Y017938D01*
X004116Y017937D01*
X004119Y017937D01*
X004119Y017935D02*
X004115Y017935D01*
X004115Y017936D01*
X004116Y017937D01*
X004116Y017933D02*
X004115Y017932D01*
X004115Y017930D01*
X004116Y017928D01*
X004118Y017928D01*
X004119Y017930D01*
X004119Y017932D01*
X004118Y017933D01*
X004116Y017933D01*
X004116Y017927D02*
X004119Y017927D01*
X004116Y017927D02*
X004115Y017925D01*
X004115Y017923D01*
X004116Y017922D01*
X004119Y017922D02*
X004112Y017922D01*
X004112Y017920D02*
X004119Y017916D01*
X004113Y018001D02*
X004112Y018003D01*
X004112Y018005D01*
X004113Y018006D01*
X004115Y018006D01*
X004116Y018005D01*
X004117Y018006D01*
X004118Y018006D01*
X004116Y018005D02*
X004116Y018004D01*
X004115Y018008D02*
X004112Y018010D01*
X004119Y018010D01*
X004115Y018014D02*
X004112Y018017D01*
X004119Y018017D01*
X004112Y018021D02*
X004112Y018025D01*
X004113Y018025D01*
X010945Y021850D02*
X010947Y021898D01*
X010953Y021946D01*
X010963Y021993D01*
X010976Y022039D01*
X010994Y022084D01*
X011014Y022128D01*
X011039Y022170D01*
X011067Y022209D01*
X011097Y022246D01*
X011131Y022280D01*
X011168Y022312D01*
X011206Y022341D01*
X011247Y022366D01*
X011290Y022388D01*
X011335Y022406D01*
X011381Y022420D01*
X011428Y022431D01*
X011476Y022438D01*
X011524Y022441D01*
X011572Y022440D01*
X011620Y022435D01*
X011668Y022426D01*
X011714Y022414D01*
X011759Y022397D01*
X011803Y022377D01*
X011845Y022354D01*
X011885Y022327D01*
X011923Y022297D01*
X011958Y022264D01*
X011990Y022228D01*
X012020Y022190D01*
X012046Y022149D01*
X012068Y022106D01*
X012088Y022062D01*
X012103Y022017D01*
X012115Y021970D01*
X012123Y021922D01*
X012127Y021874D01*
X012127Y021826D01*
X012123Y021778D01*
X012115Y021730D01*
X012103Y021683D01*
X012088Y021638D01*
X012068Y021594D01*
X012046Y021551D01*
X012020Y021510D01*
X011990Y021472D01*
X011958Y021436D01*
X011923Y021403D01*
X011885Y021373D01*
X011845Y021346D01*
X011803Y021323D01*
X011759Y021303D01*
X011714Y021286D01*
X011668Y021274D01*
X011620Y021265D01*
X011572Y021260D01*
X011524Y021259D01*
X011476Y021262D01*
X011428Y021269D01*
X011381Y021280D01*
X011335Y021294D01*
X011290Y021312D01*
X011247Y021334D01*
X011206Y021359D01*
X011168Y021388D01*
X011131Y021420D01*
X011097Y021454D01*
X011067Y021491D01*
X011039Y021530D01*
X011014Y021572D01*
X010994Y021616D01*
X010976Y021661D01*
X010963Y021707D01*
X010953Y021754D01*
X010947Y021802D01*
X010945Y021850D01*
X010945Y001850D02*
X010947Y001898D01*
X010953Y001946D01*
X010963Y001993D01*
X010976Y002039D01*
X010994Y002084D01*
X011014Y002128D01*
X011039Y002170D01*
X011067Y002209D01*
X011097Y002246D01*
X011131Y002280D01*
X011168Y002312D01*
X011206Y002341D01*
X011247Y002366D01*
X011290Y002388D01*
X011335Y002406D01*
X011381Y002420D01*
X011428Y002431D01*
X011476Y002438D01*
X011524Y002441D01*
X011572Y002440D01*
X011620Y002435D01*
X011668Y002426D01*
X011714Y002414D01*
X011759Y002397D01*
X011803Y002377D01*
X011845Y002354D01*
X011885Y002327D01*
X011923Y002297D01*
X011958Y002264D01*
X011990Y002228D01*
X012020Y002190D01*
X012046Y002149D01*
X012068Y002106D01*
X012088Y002062D01*
X012103Y002017D01*
X012115Y001970D01*
X012123Y001922D01*
X012127Y001874D01*
X012127Y001826D01*
X012123Y001778D01*
X012115Y001730D01*
X012103Y001683D01*
X012088Y001638D01*
X012068Y001594D01*
X012046Y001551D01*
X012020Y001510D01*
X011990Y001472D01*
X011958Y001436D01*
X011923Y001403D01*
X011885Y001373D01*
X011845Y001346D01*
X011803Y001323D01*
X011759Y001303D01*
X011714Y001286D01*
X011668Y001274D01*
X011620Y001265D01*
X011572Y001260D01*
X011524Y001259D01*
X011476Y001262D01*
X011428Y001269D01*
X011381Y001280D01*
X011335Y001294D01*
X011290Y001312D01*
X011247Y001334D01*
X011206Y001359D01*
X011168Y001388D01*
X011131Y001420D01*
X011097Y001454D01*
X011067Y001491D01*
X011039Y001530D01*
X011014Y001572D01*
X010994Y001616D01*
X010976Y001661D01*
X010963Y001707D01*
X010953Y001754D01*
X010947Y001802D01*
X010945Y001850D01*
D11*
X009690Y003424D02*
X009603Y003424D01*
X009560Y003468D01*
X009476Y003468D02*
X009432Y003424D01*
X009346Y003424D01*
X009302Y003468D01*
X009302Y003641D01*
X009346Y003684D01*
X009432Y003684D01*
X009476Y003641D01*
X009560Y003641D02*
X009603Y003684D01*
X009690Y003684D01*
X009734Y003641D01*
X009734Y003598D01*
X009690Y003554D01*
X009734Y003511D01*
X009734Y003468D01*
X009690Y003424D01*
X009690Y003554D02*
X009647Y003554D01*
X010439Y008560D02*
X010346Y008653D01*
X010346Y008840D01*
X010533Y008653D02*
X010439Y008560D01*
X010533Y008653D02*
X010533Y008840D01*
X010622Y008840D02*
X010622Y008560D01*
X010762Y008560D01*
X010809Y008607D01*
X010809Y008653D01*
X010762Y008700D01*
X010622Y008700D01*
X010622Y008840D02*
X010762Y008840D01*
X010809Y008794D01*
X010809Y008747D01*
X010762Y008700D01*
X010898Y008700D02*
X011085Y008700D01*
X011085Y008747D02*
X011085Y008560D01*
X011268Y008560D02*
X011268Y008840D01*
X011175Y008840D02*
X011362Y008840D01*
X011085Y008747D02*
X010992Y008840D01*
X010898Y008747D01*
X010898Y008560D01*
X010822Y009610D02*
X010822Y009890D01*
X011009Y009610D01*
X011009Y009890D01*
X011098Y009890D02*
X011098Y009610D01*
X011239Y009610D01*
X011285Y009657D01*
X011285Y009844D01*
X011239Y009890D01*
X011098Y009890D01*
X010733Y009844D02*
X010686Y009890D01*
X010593Y009890D01*
X010546Y009844D01*
X010546Y009657D01*
X010593Y009610D01*
X010686Y009610D01*
X010733Y009657D01*
X010733Y009750D01*
X010639Y009750D01*
X010546Y010610D02*
X010546Y010890D01*
X010733Y010890D01*
X010822Y010890D02*
X010822Y010610D01*
X010916Y010703D01*
X011009Y010610D01*
X011009Y010890D01*
X011098Y010890D02*
X011098Y010610D01*
X011239Y010610D01*
X011285Y010657D01*
X011285Y010844D01*
X011239Y010890D01*
X011098Y010890D01*
X010639Y010750D02*
X010546Y010750D01*
X010546Y011610D02*
X010546Y011890D01*
X010686Y011890D01*
X010733Y011844D01*
X010733Y011750D01*
X010686Y011703D01*
X010546Y011703D01*
X010639Y011703D02*
X010733Y011610D01*
X010822Y011610D02*
X011009Y011610D01*
X011098Y011703D02*
X011192Y011610D01*
X011285Y011703D01*
X011285Y011890D01*
X011098Y011890D02*
X011098Y011703D01*
X010916Y011750D02*
X010822Y011750D01*
X010822Y011890D02*
X010822Y011610D01*
X010822Y011890D02*
X011009Y011890D01*
X010848Y012610D02*
X010848Y012890D01*
X011035Y012890D01*
X011125Y012890D02*
X011312Y012890D01*
X011218Y012890D02*
X011218Y012610D01*
X010942Y012750D02*
X010848Y012750D01*
X010759Y012610D02*
X010572Y012610D01*
X010572Y012890D01*
X010759Y012890D01*
X010666Y012750D02*
X010572Y012750D01*
X010483Y012610D02*
X010296Y012610D01*
X010296Y012890D01*
X010333Y013710D02*
X010239Y013803D01*
X010286Y013803D02*
X010146Y013803D01*
X010146Y013710D02*
X010146Y013990D01*
X010286Y013990D01*
X010333Y013944D01*
X010333Y013850D01*
X010286Y013803D01*
X010422Y013710D02*
X010516Y013710D01*
X010469Y013710D02*
X010469Y013990D01*
X010422Y013990D02*
X010516Y013990D01*
X010606Y013944D02*
X010606Y013757D01*
X010653Y013710D01*
X010747Y013710D01*
X010793Y013757D01*
X010793Y013850D01*
X010700Y013850D01*
X010793Y013944D02*
X010747Y013990D01*
X010653Y013990D01*
X010606Y013944D01*
X010883Y013990D02*
X010883Y013710D01*
X010883Y013850D02*
X011069Y013850D01*
X011069Y013990D02*
X011069Y013710D01*
X011252Y013710D02*
X011252Y013990D01*
X011159Y013990D02*
X011346Y013990D01*
X011333Y014610D02*
X011240Y014610D01*
X011193Y014657D01*
X011193Y014844D01*
X011240Y014890D01*
X011333Y014890D01*
X011380Y014844D01*
X011380Y014750D02*
X011286Y014750D01*
X011380Y014750D02*
X011380Y014657D01*
X011333Y014610D01*
X011102Y014610D02*
X011009Y014610D01*
X011056Y014610D02*
X011056Y014890D01*
X011102Y014890D02*
X011009Y014890D01*
X010919Y014844D02*
X010873Y014890D01*
X010779Y014890D01*
X010733Y014844D01*
X010733Y014797D01*
X010779Y014750D01*
X010873Y014750D01*
X010919Y014703D01*
X010919Y014657D01*
X010873Y014610D01*
X010779Y014610D01*
X010733Y014657D01*
X010643Y014563D02*
X010456Y014563D01*
X010367Y014610D02*
X010274Y014703D01*
X010320Y014703D02*
X010180Y014703D01*
X010180Y014610D02*
X010180Y014890D01*
X010320Y014890D01*
X010367Y014844D01*
X010367Y014750D01*
X010320Y014703D01*
X010089Y014610D02*
X009996Y014610D01*
X010043Y014610D02*
X010043Y014890D01*
X010089Y014890D02*
X009996Y014890D01*
X008998Y016310D02*
X008998Y016570D01*
X008912Y016570D02*
X009085Y016570D01*
X008827Y016527D02*
X008784Y016570D01*
X008697Y016570D01*
X008654Y016527D01*
X008654Y016483D01*
X008697Y016440D01*
X008784Y016440D01*
X008827Y016397D01*
X008827Y016353D01*
X008784Y016310D01*
X008697Y016310D01*
X008654Y016353D01*
X008569Y016310D02*
X008483Y016397D01*
X008526Y016397D02*
X008396Y016397D01*
X008396Y016310D02*
X008396Y016570D01*
X008526Y016570D01*
X008569Y016527D01*
X008569Y016440D01*
X008526Y016397D01*
X008085Y016310D02*
X007955Y016440D01*
X007912Y016397D02*
X008085Y016570D01*
X007912Y016570D02*
X007912Y016310D01*
X007827Y016353D02*
X007784Y016310D01*
X007697Y016310D01*
X007654Y016353D01*
X007654Y016527D01*
X007697Y016570D01*
X007784Y016570D01*
X007827Y016527D01*
X007569Y016527D02*
X007526Y016570D01*
X007439Y016570D01*
X007396Y016527D01*
X007396Y016483D01*
X007439Y016440D01*
X007526Y016440D01*
X007569Y016397D01*
X007569Y016353D01*
X007526Y016310D01*
X007439Y016310D01*
X007396Y016353D01*
X007057Y016353D02*
X007014Y016310D01*
X006927Y016310D01*
X006884Y016353D01*
X006884Y016527D01*
X006927Y016570D01*
X007014Y016570D01*
X007057Y016527D01*
X007057Y016353D01*
X006799Y016353D02*
X006756Y016310D01*
X006669Y016310D01*
X006626Y016353D01*
X006541Y016310D02*
X006454Y016310D01*
X006497Y016310D02*
X006497Y016570D01*
X006454Y016570D02*
X006541Y016570D01*
X006626Y016527D02*
X006626Y016483D01*
X006669Y016440D01*
X006756Y016440D01*
X006799Y016397D01*
X006799Y016353D01*
X006799Y016527D02*
X006756Y016570D01*
X006669Y016570D01*
X006626Y016527D01*
X006369Y016570D02*
X006369Y016310D01*
X006196Y016310D02*
X006196Y016570D01*
X006283Y016483D01*
X006369Y016570D01*
X006283Y019410D02*
X006369Y019497D01*
X006369Y019670D01*
X006454Y019627D02*
X006454Y019453D01*
X006497Y019410D01*
X006584Y019410D01*
X006627Y019453D01*
X006712Y019453D02*
X006755Y019410D01*
X006842Y019410D01*
X006885Y019453D01*
X006712Y019453D02*
X006712Y019627D01*
X006755Y019670D01*
X006842Y019670D01*
X006885Y019627D01*
X006627Y019627D02*
X006584Y019670D01*
X006497Y019670D01*
X006454Y019627D01*
X006283Y019410D02*
X006196Y019497D01*
X006196Y019670D01*
X007396Y019670D02*
X007396Y019410D01*
X007569Y019410D02*
X007569Y019670D01*
X007483Y019583D01*
X007396Y019670D01*
X007654Y019627D02*
X007654Y019453D01*
X007697Y019410D01*
X007784Y019410D01*
X007827Y019453D01*
X007827Y019627D01*
X007784Y019670D01*
X007697Y019670D01*
X007654Y019627D01*
X007912Y019627D02*
X007912Y019583D01*
X007955Y019540D01*
X008042Y019540D01*
X008085Y019497D01*
X008085Y019453D01*
X008042Y019410D01*
X007955Y019410D01*
X007912Y019453D01*
X007912Y019627D02*
X007955Y019670D01*
X008042Y019670D01*
X008085Y019627D01*
X008169Y019670D02*
X008256Y019670D01*
X008213Y019670D02*
X008213Y019410D01*
X008256Y019410D02*
X008169Y019410D01*
X008496Y019453D02*
X008539Y019410D01*
X008626Y019410D01*
X008669Y019453D01*
X008669Y019540D01*
X008583Y019540D01*
X008669Y019627D02*
X008626Y019670D01*
X008539Y019670D01*
X008496Y019627D01*
X008496Y019453D01*
X008754Y019410D02*
X008754Y019670D01*
X008927Y019410D01*
X008927Y019670D01*
X009012Y019670D02*
X009142Y019670D01*
X009185Y019627D01*
X009185Y019453D01*
X009142Y019410D01*
X009012Y019410D01*
X009012Y019670D01*
X006460Y007825D02*
X006460Y007605D01*
X006533Y007605D02*
X006386Y007605D01*
X006312Y007642D02*
X006312Y007789D01*
X006275Y007825D01*
X006165Y007825D01*
X006165Y007605D01*
X006275Y007605D01*
X006312Y007642D01*
X006386Y007752D02*
X006460Y007825D01*
D12*
X006696Y004455D02*
X006551Y004310D01*
X006744Y004310D01*
X006846Y004213D02*
X006846Y004165D01*
X006846Y004213D02*
X007039Y004407D01*
X007039Y004455D01*
X006846Y004455D01*
X006696Y004455D02*
X006696Y004165D01*
X007140Y004213D02*
X007189Y004165D01*
X007334Y004165D01*
X007334Y004358D01*
X007435Y004310D02*
X007532Y004310D01*
X007628Y004455D02*
X007435Y004455D01*
X007435Y004165D01*
X007140Y004213D02*
X007140Y004358D01*
X002878Y006955D02*
X002685Y006955D01*
X002685Y006665D01*
X002584Y006665D02*
X002584Y006858D01*
X002685Y006810D02*
X002782Y006810D01*
X002584Y006665D02*
X002439Y006665D01*
X002390Y006713D01*
X002390Y006858D01*
X002289Y006907D02*
X002096Y006713D01*
X002096Y006665D01*
X001946Y006665D02*
X001946Y006955D01*
X001801Y006810D01*
X001994Y006810D01*
X002096Y006955D02*
X002289Y006955D01*
X002289Y006907D01*
X000771Y006928D02*
X000771Y006831D01*
X000723Y006783D01*
X000626Y006783D01*
X000578Y006831D01*
X000578Y006928D01*
X000626Y006976D01*
X000723Y006976D01*
X000771Y006928D01*
X000578Y007078D02*
X000771Y007174D01*
X000578Y007271D01*
X000626Y007372D02*
X000626Y007566D01*
X000723Y007667D02*
X000529Y007667D01*
X000481Y007715D01*
X000481Y007812D01*
X000529Y007860D01*
X000723Y007667D01*
X000771Y007715D01*
X000771Y007812D01*
X000723Y007860D01*
X000529Y007860D01*
X000529Y007962D02*
X000578Y007962D01*
X000626Y008010D01*
X000626Y008107D01*
X000674Y008155D01*
X000723Y008155D01*
X000771Y008107D01*
X000771Y008010D01*
X000723Y007962D01*
X000674Y007962D01*
X000626Y008010D01*
X000626Y008107D02*
X000578Y008155D01*
X000529Y008155D01*
X000481Y008107D01*
X000481Y008010D01*
X000529Y007962D01*
X000481Y006682D02*
X000771Y006682D01*
X000481Y006488D01*
X000771Y006488D01*
X000626Y006387D02*
X000626Y006194D01*
X000674Y006092D02*
X000723Y006092D01*
X000771Y006044D01*
X000771Y005947D01*
X000723Y005899D01*
X000771Y005798D02*
X000771Y005604D01*
X000771Y005701D02*
X000481Y005701D01*
X000578Y005604D01*
X000529Y005503D02*
X000723Y005310D01*
X000771Y005358D01*
X000771Y005455D01*
X000723Y005503D01*
X000529Y005503D01*
X000481Y005455D01*
X000481Y005358D01*
X000529Y005310D01*
X000723Y005310D01*
X000771Y005208D02*
X000771Y005015D01*
X000578Y005208D01*
X000529Y005208D01*
X000481Y005160D01*
X000481Y005063D01*
X000529Y005015D01*
X000529Y005899D02*
X000481Y005947D01*
X000481Y006044D01*
X000529Y006092D01*
X000578Y006092D01*
X000626Y006044D01*
X000674Y006092D01*
X000626Y006044D02*
X000626Y005996D01*
X000632Y014754D02*
X000632Y014947D01*
X000729Y015048D02*
X000680Y015097D01*
X000680Y015242D01*
X000632Y015242D02*
X000777Y015242D01*
X000777Y015097D01*
X000729Y015048D01*
X000777Y014947D02*
X000487Y014947D01*
X000584Y015097D02*
X000584Y015193D01*
X000632Y015242D01*
X000584Y015343D02*
X000584Y015536D01*
X000777Y015343D01*
X000777Y015536D01*
X000777Y015638D02*
X000777Y015831D01*
X000729Y015932D02*
X000680Y015981D01*
X000680Y016126D01*
X000632Y016126D02*
X000777Y016126D01*
X000777Y015981D01*
X000729Y015932D01*
X000584Y015981D02*
X000584Y016077D01*
X000632Y016126D01*
X000584Y016227D02*
X000777Y016227D01*
X000680Y016227D02*
X000584Y016324D01*
X000584Y016372D01*
X000632Y016472D02*
X000584Y016521D01*
X000584Y016666D01*
X000487Y016666D02*
X000777Y016666D01*
X000777Y016521D01*
X000729Y016472D01*
X000632Y016472D01*
X000535Y017062D02*
X000729Y017062D01*
X000777Y017110D01*
X000777Y017207D01*
X000729Y017255D01*
X000729Y017356D02*
X000632Y017356D01*
X000584Y017405D01*
X000584Y017502D01*
X000632Y017550D01*
X000729Y017550D01*
X000777Y017502D01*
X000777Y017405D01*
X000729Y017356D01*
X000777Y017651D02*
X000584Y017651D01*
X000584Y017796D01*
X000632Y017845D01*
X000777Y017845D01*
X000729Y017994D02*
X000777Y018042D01*
X000729Y017994D02*
X000535Y017994D01*
X000584Y017946D02*
X000584Y018042D01*
X000584Y018142D02*
X000777Y018142D01*
X000680Y018142D02*
X000584Y018239D01*
X000584Y018287D01*
X000632Y018388D02*
X000729Y018388D01*
X000777Y018436D01*
X000777Y018533D01*
X000729Y018581D01*
X000632Y018581D01*
X000584Y018533D01*
X000584Y018436D01*
X000632Y018388D01*
X000487Y018682D02*
X000487Y018731D01*
X000777Y018731D01*
X000777Y018779D02*
X000777Y018682D01*
X000777Y018879D02*
X000777Y018976D01*
X000777Y018927D02*
X000487Y018927D01*
X000487Y018879D01*
X000632Y019075D02*
X000584Y019124D01*
X000584Y019220D01*
X000632Y019269D01*
X000680Y019269D01*
X000680Y019075D01*
X000632Y019075D02*
X000729Y019075D01*
X000777Y019124D01*
X000777Y019220D01*
X000777Y019370D02*
X000584Y019370D01*
X000680Y019370D02*
X000584Y019467D01*
X000584Y019515D01*
X000584Y019910D02*
X000777Y020007D01*
X000584Y020104D01*
X000584Y020205D02*
X000487Y020301D01*
X000777Y020301D01*
X000777Y020205D02*
X000777Y020398D01*
X000777Y020499D02*
X000777Y020548D01*
X000729Y020548D01*
X000729Y020499D01*
X000777Y020499D01*
X000729Y020647D02*
X000535Y020840D01*
X000729Y020840D01*
X000777Y020792D01*
X000777Y020695D01*
X000729Y020647D01*
X000535Y020647D01*
X000487Y020695D01*
X000487Y020792D01*
X000535Y020840D01*
X000535Y017255D02*
X000487Y017207D01*
X000487Y017110D01*
X000535Y017062D01*
X000584Y015831D02*
X000777Y015638D01*
X000584Y015638D02*
X000584Y015831D01*
X000487Y014754D02*
X000777Y014754D01*
X004290Y018839D02*
X004661Y018839D01*
X004661Y019085D02*
X004290Y019085D01*
X004290Y019207D02*
X004661Y019207D01*
X004661Y019454D01*
X004661Y019575D02*
X004414Y019575D01*
X004290Y019699D01*
X004414Y019822D01*
X004661Y019822D01*
X004661Y019943D02*
X004661Y020129D01*
X004599Y020190D01*
X004352Y020190D01*
X004290Y020129D01*
X004290Y019943D01*
X004661Y019943D01*
X004661Y020312D02*
X004661Y020559D01*
X004661Y020680D02*
X004290Y020680D01*
X004290Y020865D01*
X004352Y020927D01*
X004476Y020927D01*
X004537Y020865D01*
X004537Y020680D01*
X004537Y020804D02*
X004661Y020927D01*
X004722Y021048D02*
X004722Y021295D01*
X004661Y021417D02*
X004290Y021417D01*
X004290Y021602D01*
X004352Y021664D01*
X004476Y021664D01*
X004537Y021602D01*
X004537Y021417D01*
X004537Y021540D02*
X004661Y021664D01*
X004661Y021785D02*
X004414Y021785D01*
X004290Y021908D01*
X004414Y022032D01*
X004661Y022032D01*
X004661Y022153D02*
X004661Y022338D01*
X004599Y022400D01*
X004352Y022400D01*
X004290Y022338D01*
X004290Y022153D01*
X004661Y022153D01*
X004476Y022032D02*
X004476Y021785D01*
X004661Y022522D02*
X004661Y022645D01*
X004661Y022583D02*
X004290Y022583D01*
X004290Y022522D02*
X004290Y022645D01*
X004352Y022767D02*
X004599Y022767D01*
X004661Y022829D01*
X004661Y022952D01*
X004599Y023014D01*
X004352Y023014D01*
X004290Y022952D01*
X004290Y022829D01*
X004352Y022767D01*
X004971Y023045D02*
X004971Y023335D01*
X005067Y023238D01*
X005164Y023335D01*
X005164Y023045D01*
X005265Y023045D02*
X005362Y023045D01*
X005314Y023045D02*
X005314Y023335D01*
X005362Y023335D02*
X005265Y023335D01*
X005462Y023287D02*
X005462Y023238D01*
X005510Y023190D01*
X005607Y023190D01*
X005655Y023142D01*
X005655Y023093D01*
X005607Y023045D01*
X005510Y023045D01*
X005462Y023093D01*
X005462Y023287D02*
X005510Y023335D01*
X005607Y023335D01*
X005655Y023287D01*
X005756Y023287D02*
X005756Y023093D01*
X005805Y023045D01*
X005901Y023045D01*
X005950Y023093D01*
X005950Y023287D01*
X005901Y023335D01*
X005805Y023335D01*
X005756Y023287D01*
X006167Y023287D02*
X006167Y023238D01*
X006215Y023190D01*
X006312Y023190D01*
X006361Y023142D01*
X006361Y023093D01*
X006312Y023045D01*
X006215Y023045D01*
X006167Y023093D01*
X006167Y023287D02*
X006215Y023335D01*
X006312Y023335D01*
X006361Y023287D01*
X006462Y023287D02*
X006462Y023093D01*
X006510Y023045D01*
X006607Y023045D01*
X006655Y023093D01*
X006756Y023045D02*
X006756Y023335D01*
X006655Y023287D02*
X006607Y023335D01*
X006510Y023335D01*
X006462Y023287D01*
X006756Y023142D02*
X006950Y023335D01*
X006805Y023190D02*
X006950Y023045D01*
X007212Y023093D02*
X007212Y023287D01*
X007260Y023335D01*
X007357Y023335D01*
X007405Y023287D01*
X007506Y023335D02*
X007506Y023045D01*
X007700Y023045D01*
X007603Y023190D02*
X007506Y023190D01*
X007405Y023093D02*
X007357Y023045D01*
X007260Y023045D01*
X007212Y023093D01*
X007506Y023335D02*
X007700Y023335D01*
X008167Y023287D02*
X008167Y023093D01*
X008215Y023045D01*
X008312Y023045D01*
X008361Y023093D01*
X008361Y023190D01*
X008264Y023190D01*
X008361Y023287D02*
X008312Y023335D01*
X008215Y023335D01*
X008167Y023287D01*
X008462Y023335D02*
X008462Y023045D01*
X008655Y023045D02*
X008462Y023335D01*
X008655Y023335D02*
X008655Y023045D01*
X008756Y023045D02*
X008756Y023335D01*
X008901Y023335D01*
X008950Y023287D01*
X008950Y023093D01*
X008901Y023045D01*
X008756Y023045D01*
X007786Y020645D02*
X007197Y020645D01*
X007260Y020585D02*
X007212Y020537D01*
X007212Y020343D01*
X007260Y020295D01*
X007357Y020295D01*
X007405Y020343D01*
X007506Y020343D02*
X007555Y020295D01*
X007651Y020295D01*
X007700Y020343D01*
X007700Y020392D01*
X007651Y020440D01*
X007555Y020440D01*
X007506Y020488D01*
X007506Y020537D01*
X007555Y020585D01*
X007651Y020585D01*
X007700Y020537D01*
X007405Y020537D02*
X007357Y020585D01*
X007260Y020585D01*
X006951Y020585D02*
X006855Y020585D01*
X006903Y020585D02*
X006903Y020295D01*
X006855Y020295D02*
X006951Y020295D01*
X006753Y020343D02*
X006705Y020295D01*
X006608Y020295D01*
X006560Y020343D01*
X006459Y020343D02*
X006459Y020537D01*
X006410Y020585D01*
X006314Y020585D01*
X006265Y020537D01*
X006265Y020343D01*
X006314Y020295D01*
X006410Y020295D01*
X006459Y020343D01*
X006560Y020488D02*
X006608Y020440D01*
X006705Y020440D01*
X006753Y020392D01*
X006753Y020343D01*
X006753Y020537D02*
X006705Y020585D01*
X006608Y020585D01*
X006560Y020537D01*
X006560Y020488D01*
X006164Y020585D02*
X006164Y020295D01*
X006067Y020488D02*
X006164Y020585D01*
X006067Y020488D02*
X005971Y020585D01*
X005971Y020295D01*
X005603Y020295D02*
X005603Y020585D01*
X005506Y020585D02*
X005700Y020585D01*
X005405Y020585D02*
X005405Y020295D01*
X005212Y020585D01*
X005212Y020295D01*
X005112Y020295D02*
X005015Y020295D01*
X005064Y020295D02*
X005064Y020585D01*
X005112Y020585D02*
X005015Y020585D01*
X004661Y020312D02*
X004290Y020312D01*
X004290Y020559D01*
X004476Y020435D02*
X004476Y020312D01*
X004476Y019822D02*
X004476Y019575D01*
X004290Y019454D02*
X004290Y019207D01*
X004476Y019207D02*
X004476Y019330D01*
X004476Y019085D02*
X004476Y018839D01*
X008167Y020392D02*
X008264Y020295D01*
X008361Y020392D01*
X008361Y020585D01*
X008462Y020537D02*
X008462Y020343D01*
X008510Y020295D01*
X008607Y020295D01*
X008655Y020343D01*
X008756Y020343D02*
X008756Y020537D01*
X008805Y020585D01*
X008901Y020585D01*
X008950Y020537D01*
X008950Y020343D02*
X008901Y020295D01*
X008805Y020295D01*
X008756Y020343D01*
X008655Y020537D02*
X008607Y020585D01*
X008510Y020585D01*
X008462Y020537D01*
X008167Y020585D02*
X008167Y020392D01*
X010551Y019357D02*
X010551Y019308D01*
X010599Y019260D01*
X010696Y019260D01*
X010744Y019212D01*
X010744Y019163D01*
X010696Y019115D01*
X010599Y019115D01*
X010551Y019163D01*
X010551Y019357D02*
X010599Y019405D01*
X010696Y019405D01*
X010744Y019357D01*
X010846Y019405D02*
X010846Y019115D01*
X010991Y019115D01*
X011039Y019163D01*
X011039Y019357D01*
X010991Y019405D01*
X010846Y019405D01*
X011140Y019308D02*
X011140Y019115D01*
X011140Y019260D02*
X011334Y019260D01*
X011334Y019308D02*
X011334Y019115D01*
X011334Y019308D02*
X011237Y019405D01*
X011140Y019308D01*
X011140Y018405D02*
X011140Y018115D01*
X011334Y018115D01*
X011039Y018163D02*
X010991Y018115D01*
X010894Y018115D01*
X010846Y018163D01*
X010846Y018357D01*
X010894Y018405D01*
X010991Y018405D01*
X011039Y018357D01*
X010744Y018357D02*
X010696Y018405D01*
X010599Y018405D01*
X010551Y018357D01*
X010551Y018308D01*
X010599Y018260D01*
X010696Y018260D01*
X010744Y018212D01*
X010744Y018163D01*
X010696Y018115D01*
X010599Y018115D01*
X010551Y018163D01*
X010599Y017405D02*
X010551Y017357D01*
X010551Y017163D01*
X010599Y017115D01*
X010696Y017115D01*
X010744Y017163D01*
X010744Y017260D01*
X010648Y017260D01*
X010744Y017357D02*
X010696Y017405D01*
X010599Y017405D01*
X010846Y017405D02*
X010846Y017115D01*
X011039Y017115D02*
X010846Y017405D01*
X011039Y017405D02*
X011039Y017115D01*
X011140Y017115D02*
X011285Y017115D01*
X011334Y017163D01*
X011334Y017357D01*
X011285Y017405D01*
X011140Y017405D01*
X011140Y017115D01*
X011189Y016405D02*
X011140Y016357D01*
X011140Y016163D01*
X011189Y016115D01*
X011285Y016115D01*
X011334Y016163D01*
X011334Y016357D02*
X011285Y016405D01*
X011189Y016405D01*
X011039Y016357D02*
X010991Y016405D01*
X010894Y016405D01*
X010846Y016357D01*
X010846Y016163D01*
X010894Y016115D01*
X010991Y016115D01*
X011039Y016163D01*
X010744Y016212D02*
X010744Y016405D01*
X010551Y016405D02*
X010551Y016212D01*
X010648Y016115D01*
X010744Y016212D01*
D13*
X004099Y017934D03*
X003859Y018814D03*
X003869Y018917D03*
X004096Y019314D03*
X003466Y019084D03*
X003186Y019344D03*
X003026Y019317D03*
X002999Y019347D03*
X002906Y019174D03*
X002906Y019164D03*
X002836Y019234D03*
X002836Y019244D03*
X002819Y019234D03*
X002819Y019357D03*
X002839Y019404D03*
X002699Y019304D03*
X002549Y019194D03*
X002546Y019167D03*
X002839Y019077D03*
X002849Y019054D03*
X002886Y019044D03*
X002846Y018967D03*
X002826Y018904D03*
X002896Y018854D03*
X003119Y018544D03*
X003189Y018534D03*
X003149Y018624D03*
X003146Y018624D03*
X003139Y018624D03*
X003056Y018494D03*
X002436Y018524D03*
X002439Y018687D03*
X002079Y018737D03*
X001776Y019057D03*
D14*
X002079Y018716D03*
X002069Y018619D03*
X002726Y019053D03*
X002826Y018989D03*
X002879Y018983D03*
X002886Y019026D03*
X002906Y019069D03*
X002886Y018923D03*
X002936Y018756D03*
X002939Y018756D03*
X003129Y018623D03*
X003116Y018556D03*
X003206Y018529D03*
X003279Y018563D03*
X003136Y018366D03*
X003056Y018483D03*
X002979Y018479D03*
X002879Y019233D03*
X002879Y019246D03*
X003159Y019336D03*
X003186Y019326D03*
X003436Y019473D03*
X003486Y019283D03*
X003439Y019126D03*
X003869Y018903D03*
X003869Y018889D03*
X004089Y019129D03*
X004099Y018376D03*
D15*
X003919Y018379D03*
X003916Y018379D03*
X003879Y018382D03*
X003876Y018382D03*
X003849Y018382D03*
X003739Y018559D03*
X003539Y018569D03*
X003536Y018569D03*
X003529Y018569D03*
X003436Y018569D03*
X003156Y018472D03*
X003149Y018472D03*
X003116Y018472D03*
X003109Y018472D03*
X003099Y018432D03*
X003106Y018429D03*
X002939Y018719D03*
X002919Y018712D03*
X002916Y018712D03*
X002899Y018709D03*
X002969Y018729D03*
X002976Y018732D03*
X002979Y019099D03*
X002959Y019109D03*
X002956Y019112D03*
X002939Y019119D03*
X002936Y019119D03*
X002929Y019122D03*
X002916Y019122D03*
X002859Y019129D03*
X002826Y019119D03*
X002789Y019099D03*
X002729Y019052D03*
X002616Y018632D03*
X002206Y018062D03*
X004009Y019309D03*
X004019Y019312D03*
X004056Y019319D03*
X004059Y019319D03*
X004089Y019322D03*
X004096Y017932D03*
D16*
X004089Y017931D03*
X004089Y018374D03*
X004086Y018374D03*
X004096Y018374D03*
X004066Y018374D03*
X004059Y018374D03*
X004019Y018378D03*
X004016Y018378D03*
X004009Y018378D03*
X004006Y018378D03*
X003999Y018378D03*
X003996Y018378D03*
X003989Y018378D03*
X003986Y018378D03*
X003976Y018378D03*
X003969Y018378D03*
X003966Y018378D03*
X003959Y018378D03*
X003956Y018378D03*
X003939Y018378D03*
X003936Y018378D03*
X003929Y018378D03*
X003926Y018378D03*
X003869Y018384D03*
X003866Y018384D03*
X003859Y018384D03*
X003856Y018384D03*
X003846Y018384D03*
X003839Y018384D03*
X003836Y018384D03*
X003829Y018384D03*
X003826Y018384D03*
X003806Y018384D03*
X003799Y018388D03*
X003766Y018391D03*
X003759Y018391D03*
X003709Y018398D03*
X003699Y018401D03*
X003686Y018408D03*
X003659Y018418D03*
X003696Y018551D03*
X003699Y018551D03*
X003706Y018551D03*
X003709Y018551D03*
X003719Y018554D03*
X003736Y018558D03*
X003749Y018561D03*
X003759Y018564D03*
X003766Y018568D03*
X003769Y018568D03*
X003776Y018568D03*
X003779Y018568D03*
X003596Y018568D03*
X003576Y018568D03*
X003566Y018568D03*
X003559Y018568D03*
X003549Y018568D03*
X003546Y018568D03*
X003446Y018571D03*
X003429Y018568D03*
X003426Y018568D03*
X003416Y018568D03*
X003406Y018568D03*
X003396Y018568D03*
X003386Y018564D03*
X003379Y018564D03*
X003369Y018561D03*
X003366Y018558D03*
X003359Y018558D03*
X003356Y018558D03*
X003349Y018558D03*
X003336Y018551D03*
X003329Y018548D03*
X003326Y018548D03*
X003169Y018478D03*
X003166Y018478D03*
X003159Y018474D03*
X003139Y018468D03*
X003136Y018468D03*
X003096Y018478D03*
X003089Y018481D03*
X003086Y018444D03*
X003089Y018441D03*
X003109Y018428D03*
X003186Y018378D03*
X003189Y018378D03*
X003209Y018384D03*
X003096Y018538D03*
X003106Y018548D03*
X003116Y018621D03*
X003119Y018621D03*
X002999Y018748D03*
X002989Y018741D03*
X002986Y018738D03*
X002966Y018728D03*
X002936Y018718D03*
X002906Y018711D03*
X002896Y018711D03*
X002889Y018714D03*
X002766Y019084D03*
X002776Y019091D03*
X002779Y019094D03*
X002786Y019098D03*
X002796Y019104D03*
X002799Y019108D03*
X002806Y019111D03*
X002836Y019124D03*
X002949Y019114D03*
X002966Y019108D03*
X002969Y019104D03*
X002976Y019101D03*
X002986Y019094D03*
X002999Y019298D03*
X002959Y019414D03*
X002936Y019428D03*
X002929Y019428D03*
X002926Y019428D03*
X002909Y019431D03*
X002879Y019438D03*
X002869Y019438D03*
X002839Y019438D03*
X002829Y019438D03*
X002819Y019434D03*
X002816Y019434D03*
X002809Y019434D03*
X002806Y019431D03*
X002799Y019428D03*
X003076Y019454D03*
X003106Y019458D03*
X003109Y019458D03*
X003116Y019454D03*
X003216Y019428D03*
X003269Y019458D03*
X003436Y019448D03*
X003489Y019284D03*
X003496Y019281D03*
X003509Y019288D03*
X003779Y019218D03*
X003786Y019221D03*
X003809Y019234D03*
X003856Y019258D03*
X003859Y019258D03*
X003929Y019288D03*
X003959Y019298D03*
X003966Y019298D03*
X003969Y019301D03*
X003976Y019301D03*
X003979Y019304D03*
X003986Y019304D03*
X003989Y019308D03*
X003996Y019308D03*
X003999Y019308D03*
X004006Y019311D03*
X004036Y019314D03*
X004039Y019318D03*
X004049Y019318D03*
X004066Y019321D03*
X004079Y019321D03*
X004039Y019414D03*
X004046Y019418D03*
X004066Y019428D03*
X004069Y019428D03*
X004076Y019431D03*
X004079Y019431D03*
X004086Y019434D03*
X003869Y018984D03*
X003759Y019081D03*
X003739Y019091D03*
X002429Y018571D03*
X002209Y018068D03*
X001749Y018781D03*
D17*
X001752Y018799D03*
X001922Y019222D03*
X001942Y019242D03*
X002092Y018879D03*
X002102Y018829D03*
X002082Y018739D03*
X002432Y018529D03*
X002512Y018592D03*
X002822Y018702D03*
X002892Y018722D03*
X002942Y018749D03*
X002972Y018649D03*
X002982Y018649D03*
X003042Y018649D03*
X003122Y018609D03*
X003122Y018482D03*
X003122Y018459D03*
X003122Y018432D03*
X003052Y018179D03*
X003272Y018419D03*
X003402Y018579D03*
X003412Y018582D03*
X003532Y018582D03*
X003592Y018552D03*
X003612Y018549D03*
X003562Y018469D03*
X003822Y018399D03*
X003872Y018369D03*
X003932Y018392D03*
X003942Y018392D03*
X003972Y018392D03*
X004062Y018389D03*
X004072Y018389D03*
X004082Y018389D03*
X004092Y018389D03*
X003922Y018079D03*
X003992Y018002D03*
X004042Y017952D03*
X004062Y017932D03*
X004092Y017919D03*
X003862Y018829D03*
X003862Y018852D03*
X003652Y019149D03*
X003592Y019162D03*
X003502Y019269D03*
X003482Y019279D03*
X003452Y019049D03*
X003192Y019259D03*
X003192Y019279D03*
X003182Y019389D03*
X003142Y019419D03*
X003092Y019442D03*
X003002Y019359D03*
X002982Y019242D03*
X002892Y019242D03*
X002892Y019252D03*
X002902Y019192D03*
X002832Y019169D03*
X002892Y019112D03*
X002902Y019019D03*
X002892Y018859D03*
X002832Y018842D03*
X002912Y018642D03*
X002722Y019049D03*
X002542Y019132D03*
X002542Y019142D03*
X002522Y019049D03*
X002522Y019029D03*
X002552Y019289D03*
X002512Y019382D03*
X002722Y019302D03*
X002832Y019282D03*
X002872Y019329D03*
X002852Y019372D03*
X002842Y019369D03*
X002892Y019449D03*
X003432Y019529D03*
X003442Y019562D03*
X003882Y019302D03*
X004092Y019309D03*
X002542Y018059D03*
X002512Y017992D03*
X002472Y017932D03*
X002302Y019432D03*
D18*
X002812Y019112D03*
X002832Y019122D03*
X002862Y019129D03*
X002852Y019089D03*
X002922Y019122D03*
X002932Y019119D03*
X002942Y019119D03*
X002952Y019112D03*
X003022Y019309D03*
X002962Y018729D03*
X002942Y018719D03*
X002912Y018712D03*
X002892Y018709D03*
X003122Y018622D03*
X003092Y018479D03*
X003112Y018472D03*
X003152Y018472D03*
X003112Y018429D03*
X003532Y018569D03*
X003852Y018382D03*
X003872Y018382D03*
X003922Y018379D03*
X004092Y017932D03*
X003492Y019282D03*
D19*
X003502Y019284D03*
X003732Y019094D03*
X003752Y019084D03*
X003962Y019298D03*
X003972Y019301D03*
X003982Y019304D03*
X003992Y019308D03*
X004012Y019311D03*
X004022Y019311D03*
X004062Y019424D03*
X004072Y019428D03*
X004082Y019431D03*
X003782Y018571D03*
X003772Y018568D03*
X003762Y018568D03*
X003752Y018561D03*
X003742Y018558D03*
X003722Y018554D03*
X003692Y018551D03*
X003612Y018564D03*
X003592Y018568D03*
X003562Y018568D03*
X003542Y018568D03*
X003432Y018568D03*
X003412Y018568D03*
X003392Y018568D03*
X003382Y018561D03*
X003372Y018561D03*
X003362Y018558D03*
X003352Y018558D03*
X003342Y018554D03*
X003332Y018551D03*
X003182Y018488D03*
X003162Y018474D03*
X003132Y018468D03*
X003102Y018431D03*
X003092Y018438D03*
X003132Y018361D03*
X003192Y018378D03*
X003092Y018534D03*
X003102Y018544D03*
X003112Y018551D03*
X002992Y018744D03*
X002972Y018731D03*
X002932Y018718D03*
X002982Y019094D03*
X002972Y019104D03*
X002942Y019178D03*
X002822Y019118D03*
X002802Y019108D03*
X002792Y019104D03*
X002782Y019098D03*
X002692Y019341D03*
X002802Y019431D03*
X002822Y019438D03*
X002872Y019438D03*
X002922Y019428D03*
X002932Y019428D03*
X002872Y019351D03*
X003082Y019458D03*
X003642Y018428D03*
X003652Y018421D03*
X003682Y018408D03*
X003712Y018398D03*
X003762Y018391D03*
X003832Y018384D03*
X003842Y018384D03*
X003862Y018384D03*
X003932Y018378D03*
X003942Y018378D03*
X003962Y018378D03*
X003972Y018378D03*
X003982Y018378D03*
X003992Y018378D03*
X004002Y018378D03*
X004012Y018378D03*
X004022Y018378D03*
X004062Y018374D03*
X004092Y018374D03*
X002212Y018071D03*
D20*
X002082Y018517D03*
X002072Y018564D03*
X002072Y018574D03*
X002072Y018684D03*
X002072Y018694D03*
X001782Y019057D03*
X001892Y019194D03*
X001902Y019204D03*
X001912Y019214D03*
X002552Y019194D03*
X002592Y019257D03*
X002552Y019297D03*
X002702Y019314D03*
X002832Y019264D03*
X002832Y019244D03*
X002842Y019204D03*
X002842Y019187D03*
X002872Y019294D03*
X003022Y019254D03*
X003162Y019294D03*
X003162Y019304D03*
X003162Y019317D03*
X002902Y019054D03*
X002902Y019044D03*
X002832Y019047D03*
X002902Y018914D03*
X002832Y018864D03*
X002832Y018854D03*
X002822Y018714D03*
X003142Y018624D03*
X003192Y018484D03*
X003302Y018567D03*
X003862Y018844D03*
X004092Y019317D03*
X004092Y019327D03*
D21*
X004092Y019426D03*
X004062Y019146D03*
X003862Y018836D03*
X003542Y018536D03*
X003532Y018556D03*
X003382Y018576D03*
X003282Y018566D03*
X003192Y018536D03*
X003292Y018456D03*
X003182Y018366D03*
X003102Y018376D03*
X003072Y018436D03*
X003062Y018646D03*
X002892Y018866D03*
X002902Y018926D03*
X002832Y019056D03*
X002862Y019116D03*
X002892Y019096D03*
X002892Y019086D03*
X002882Y019206D03*
X002832Y019256D03*
X002872Y019336D03*
X002892Y019376D03*
X002892Y019386D03*
X002842Y019406D03*
X002552Y019186D03*
X002382Y019436D03*
X002342Y019436D03*
X002002Y019296D03*
X001952Y019026D03*
X001942Y019016D03*
X001922Y018996D03*
X001892Y018966D03*
X001882Y018956D03*
X001822Y018886D03*
X001752Y018766D03*
X002082Y018746D03*
X002072Y018676D03*
X002072Y018556D03*
X002442Y018526D03*
X002492Y018576D03*
X002612Y018606D03*
X002752Y018056D03*
X003022Y018146D03*
X002482Y017926D03*
X003322Y019476D03*
X003452Y019536D03*
X003762Y018376D03*
X003912Y018136D03*
D22*
X003759Y018376D03*
X003696Y018566D03*
X003636Y018576D03*
X003626Y018576D03*
X003619Y018576D03*
X003536Y018546D03*
X003529Y018556D03*
X003306Y018496D03*
X003136Y018626D03*
X003116Y018546D03*
X002946Y018646D03*
X002869Y018736D03*
X002936Y018766D03*
X002896Y018846D03*
X002909Y018866D03*
X002906Y018886D03*
X002886Y018906D03*
X002899Y018916D03*
X002876Y018966D03*
X002856Y018966D03*
X002849Y018966D03*
X002899Y019016D03*
X002886Y019056D03*
X002856Y019096D03*
X002896Y019106D03*
X002886Y019186D03*
X002886Y019196D03*
X002879Y019216D03*
X002819Y019226D03*
X002836Y019336D03*
X002836Y019376D03*
X002819Y019376D03*
X002826Y019396D03*
X002869Y019366D03*
X002879Y019396D03*
X002769Y019396D03*
X002649Y019296D03*
X002589Y019266D03*
X002509Y019386D03*
X002379Y019436D03*
X002359Y019436D03*
X002356Y019436D03*
X002346Y019436D03*
X002339Y019436D03*
X002336Y019436D03*
X002316Y019436D03*
X001936Y019236D03*
X001926Y019226D03*
X001916Y019216D03*
X001906Y019206D03*
X001896Y019196D03*
X001839Y019136D03*
X001779Y019056D03*
X001966Y019036D03*
X001999Y019066D03*
X001806Y018866D03*
X002089Y018776D03*
X002079Y018746D03*
X002079Y018726D03*
X002076Y018686D03*
X002076Y018546D03*
X002156Y018356D03*
X002216Y018296D03*
X002439Y018526D03*
X002609Y018606D03*
X002839Y018826D03*
X002739Y019046D03*
X003196Y019256D03*
X003209Y019416D03*
X003206Y019436D03*
X003336Y019486D03*
X003346Y019496D03*
X003356Y019506D03*
X003366Y019556D03*
X003449Y019546D03*
X003459Y019516D03*
X003599Y019156D03*
X003609Y019146D03*
X003629Y019166D03*
X003466Y019096D03*
X003859Y019016D03*
X003859Y018826D03*
X004039Y019146D03*
X004049Y019146D03*
X004059Y019146D03*
X004056Y019306D03*
X004079Y019336D03*
X004089Y019336D03*
X004089Y017946D03*
X002859Y018056D03*
D23*
X003026Y018149D03*
X003109Y018289D03*
X003139Y018369D03*
X003179Y018382D03*
X003186Y018362D03*
X003149Y018459D03*
X003129Y018459D03*
X003119Y018459D03*
X003119Y018482D03*
X003079Y018472D03*
X003076Y018472D03*
X003066Y018442D03*
X003069Y018439D03*
X003199Y018499D03*
X003186Y018522D03*
X003276Y018489D03*
X003279Y018489D03*
X003279Y018499D03*
X003306Y018502D03*
X003276Y018419D03*
X003386Y018549D03*
X003396Y018552D03*
X003399Y018579D03*
X003426Y018582D03*
X003436Y018582D03*
X003529Y018582D03*
X003536Y018582D03*
X003539Y018582D03*
X003549Y018582D03*
X003566Y018582D03*
X003586Y018579D03*
X003579Y018552D03*
X003619Y018532D03*
X003646Y018529D03*
X003646Y018572D03*
X003639Y018572D03*
X003546Y018489D03*
X003559Y018472D03*
X003569Y018462D03*
X003576Y018459D03*
X003586Y018449D03*
X003806Y018399D03*
X003809Y018399D03*
X003859Y018369D03*
X003876Y018369D03*
X003916Y018392D03*
X003919Y018392D03*
X003936Y018392D03*
X003939Y018392D03*
X003969Y018392D03*
X004066Y018389D03*
X004069Y018389D03*
X004076Y018389D03*
X004079Y018389D03*
X004086Y018389D03*
X004089Y018389D03*
X003899Y018109D03*
X003929Y018072D03*
X003996Y017999D03*
X004046Y017949D03*
X003856Y018789D03*
X004029Y019142D03*
X004009Y019322D03*
X003969Y019389D03*
X003929Y019352D03*
X003889Y019309D03*
X003586Y019172D03*
X003519Y019269D03*
X003439Y019099D03*
X003449Y019062D03*
X003176Y019249D03*
X003189Y019279D03*
X003189Y019289D03*
X003159Y019442D03*
X003106Y019442D03*
X003096Y019442D03*
X002906Y019449D03*
X002899Y019449D03*
X002896Y019389D03*
X002859Y019332D03*
X002819Y019369D03*
X002836Y019252D03*
X002819Y019212D03*
X002826Y019192D03*
X002839Y019199D03*
X002879Y019209D03*
X002879Y019222D03*
X002896Y019239D03*
X002899Y019199D03*
X002899Y019192D03*
X002889Y019172D03*
X002939Y019182D03*
X002986Y019209D03*
X002996Y019252D03*
X002996Y019099D03*
X002989Y019099D03*
X002909Y019099D03*
X002896Y019112D03*
X002856Y019089D03*
X002836Y019079D03*
X002836Y019062D03*
X002846Y019112D03*
X002766Y019099D03*
X002826Y019002D03*
X002899Y018949D03*
X002899Y018929D03*
X002906Y018892D03*
X002906Y018879D03*
X002849Y018849D03*
X002836Y018839D03*
X002839Y018819D03*
X002826Y018892D03*
X002839Y018719D03*
X002819Y018709D03*
X002909Y018702D03*
X002969Y018649D03*
X002986Y018649D03*
X003039Y018649D03*
X002606Y018599D03*
X002569Y018502D03*
X002579Y018479D03*
X002499Y018582D03*
X002439Y018672D03*
X002439Y018679D03*
X002446Y018709D03*
X002446Y018719D03*
X002469Y018829D03*
X002516Y019019D03*
X002536Y019099D03*
X002546Y019139D03*
X002549Y019182D03*
X002526Y019369D03*
X002496Y019399D03*
X002469Y019412D03*
X002396Y019432D03*
X002386Y019432D03*
X002309Y019432D03*
X001996Y019289D03*
X001939Y019239D03*
X001919Y019222D03*
X001949Y019022D03*
X001919Y018992D03*
X001899Y018972D03*
X001889Y018962D03*
X001879Y018952D03*
X001816Y018879D03*
X001759Y018809D03*
X002046Y018869D03*
X002109Y018879D03*
X002099Y018819D03*
X002086Y018759D03*
X002069Y018592D03*
X002076Y018559D03*
X002076Y018552D03*
X002116Y018422D03*
X002159Y018349D03*
X002166Y018342D03*
X002169Y018339D03*
X002199Y018309D03*
X002196Y018052D03*
X002426Y018012D03*
X002469Y017929D03*
X002489Y017942D03*
X002109Y019149D03*
X003329Y019482D03*
X003359Y019509D03*
D24*
X003166Y019366D03*
X002996Y018586D03*
X004089Y018866D03*
D25*
X004089Y019082D03*
X003816Y019062D03*
X003889Y019282D03*
X003616Y019159D03*
X003596Y019179D03*
X003569Y019219D03*
X003556Y019242D03*
X003549Y019252D03*
X003509Y018559D03*
X003549Y018502D03*
X003626Y018549D03*
X003636Y018549D03*
X003756Y018342D03*
X003769Y018319D03*
X003779Y018302D03*
X003786Y018292D03*
X003939Y018079D03*
X003276Y018449D03*
X003266Y018429D03*
X003306Y018532D03*
X003089Y018619D03*
X003126Y018349D03*
X002856Y018789D03*
X002956Y019189D03*
X002999Y019382D03*
X002636Y019299D03*
X001766Y018789D03*
D26*
X001746Y018781D03*
X002096Y018801D03*
X002089Y018491D03*
X002549Y019291D03*
X002826Y019201D03*
X002896Y019251D03*
X002956Y019161D03*
X002909Y019081D03*
X002906Y019081D03*
X002899Y019031D03*
X002849Y019041D03*
X002906Y018871D03*
X002849Y018861D03*
X002836Y018831D03*
X002619Y018641D03*
X002619Y018631D03*
X003006Y018741D03*
X003299Y018481D03*
X003436Y019121D03*
X003186Y019311D03*
X003159Y019321D03*
X003339Y019491D03*
X003349Y019501D03*
X002896Y019381D03*
X003856Y018801D03*
X004089Y019141D03*
D27*
X004089Y019427D03*
X003436Y019494D03*
X003209Y019427D03*
X003159Y019357D03*
X003189Y019264D03*
X003026Y019344D03*
X003026Y019364D03*
X002896Y019227D03*
X002889Y019127D03*
X002886Y019127D03*
X002879Y019127D03*
X002876Y019127D03*
X002869Y019127D03*
X002956Y018724D03*
X002929Y018717D03*
X002909Y018714D03*
X002869Y018707D03*
X002866Y018707D03*
X002859Y018707D03*
X002856Y018707D03*
X002849Y018707D03*
X002846Y018707D03*
X002839Y018707D03*
X002836Y018707D03*
X002829Y018707D03*
X003099Y018477D03*
X003106Y018474D03*
X002546Y019154D03*
X002079Y018527D03*
D28*
X002596Y019263D03*
X002619Y019283D03*
X002656Y019319D03*
X002699Y019339D03*
X002766Y019409D03*
X002836Y019396D03*
X002836Y019356D03*
X002859Y019353D03*
X002866Y019353D03*
X002886Y019436D03*
X003049Y019439D03*
X003056Y019443D03*
X003139Y019439D03*
X003146Y019436D03*
X003149Y019433D03*
X003299Y019476D03*
X003309Y019486D03*
X003326Y019499D03*
X003329Y019503D03*
X003366Y019536D03*
X003376Y019546D03*
X003386Y019556D03*
X003389Y019559D03*
X003526Y019283D03*
X003529Y019279D03*
X003656Y019136D03*
X003686Y019156D03*
X003799Y019063D03*
X003806Y019063D03*
X003866Y019266D03*
X003869Y019266D03*
X003929Y019333D03*
X003966Y019366D03*
X003976Y019376D03*
X003689Y018553D03*
X003686Y018549D03*
X003679Y018553D03*
X003676Y018549D03*
X003669Y018553D03*
X003596Y018463D03*
X003606Y018453D03*
X003609Y018449D03*
X003719Y018393D03*
X003726Y018389D03*
X003496Y018569D03*
X003309Y018539D03*
X003199Y018519D03*
X003186Y018493D03*
X003249Y018413D03*
X003246Y018409D03*
X003239Y018403D03*
X003236Y018399D03*
X003086Y018533D03*
X002856Y018946D03*
X002849Y018946D03*
X002736Y019056D03*
X002749Y019073D03*
X004046Y017969D03*
X004076Y017943D03*
X004086Y017933D03*
D29*
X004086Y018911D03*
D30*
X003956Y019296D03*
X003926Y019286D03*
X003849Y019256D03*
X003829Y019246D03*
X003776Y019216D03*
X003709Y019106D03*
X003706Y019106D03*
X003689Y019116D03*
X003726Y019096D03*
X003729Y019096D03*
X003746Y019086D03*
X003749Y019086D03*
X003769Y019076D03*
X003789Y019066D03*
X003649Y019136D03*
X003646Y019136D03*
X003519Y019286D03*
X003399Y019566D03*
X003249Y019446D03*
X003229Y019436D03*
X003129Y019446D03*
X003079Y019456D03*
X002956Y019416D03*
X002939Y019426D03*
X002876Y019436D03*
X002836Y019436D03*
X002686Y019336D03*
X002679Y019336D03*
X002839Y019126D03*
X002866Y019126D03*
X002769Y019086D03*
X003086Y018486D03*
X003079Y018446D03*
X003179Y018486D03*
X003216Y018386D03*
X003319Y018546D03*
X003346Y018556D03*
X003389Y018566D03*
X003606Y018566D03*
X003726Y018556D03*
X003729Y018556D03*
X003789Y018576D03*
X003789Y018386D03*
X003776Y018386D03*
X003716Y018396D03*
X003689Y018406D03*
X003666Y018416D03*
X003649Y018426D03*
X003646Y018426D03*
X004046Y019316D03*
X004086Y019326D03*
X004019Y019406D03*
D31*
X003942Y019346D03*
X003662Y019136D03*
X003592Y019186D03*
X003332Y019506D03*
X002972Y019216D03*
X002632Y019296D03*
X002872Y018746D03*
X003502Y018566D03*
X004082Y017936D03*
D32*
X004082Y018372D03*
X004072Y018372D03*
X003952Y018379D03*
X003912Y018382D03*
X003902Y018379D03*
X003882Y018382D03*
X003792Y018389D03*
X003702Y018399D03*
X003692Y018402D03*
X003672Y018412D03*
X003632Y018432D03*
X003622Y018439D03*
X003602Y018562D03*
X003572Y018569D03*
X003472Y018572D03*
X003462Y018569D03*
X003452Y018569D03*
X003442Y018572D03*
X003712Y018552D03*
X003782Y019069D03*
X003722Y019099D03*
X003712Y019102D03*
X003702Y019109D03*
X003682Y019119D03*
X003652Y019132D03*
X003642Y019139D03*
X003752Y019202D03*
X003762Y019209D03*
X003782Y019219D03*
X003802Y019232D03*
X003822Y019239D03*
X003932Y019289D03*
X003942Y019292D03*
X004002Y019309D03*
X004052Y019319D03*
X004072Y019319D03*
X004082Y019319D03*
X004032Y019412D03*
X004052Y019422D03*
X003982Y019379D03*
X003272Y019459D03*
X003262Y019452D03*
X003242Y019442D03*
X003222Y019432D03*
X003072Y019452D03*
X003062Y019449D03*
X002962Y019412D03*
X002942Y019422D03*
X002912Y019432D03*
X002902Y019432D03*
X002862Y019439D03*
X002852Y019439D03*
X002842Y019439D03*
X002672Y019329D03*
X002772Y019089D03*
X002752Y019072D03*
X002852Y019129D03*
X002912Y019119D03*
X003112Y018622D03*
X003172Y018482D03*
X003082Y018442D03*
X003202Y018379D03*
X001752Y018782D03*
D33*
X004082Y018912D03*
D34*
X003926Y019327D03*
X003939Y019344D03*
X003959Y019364D03*
X003969Y019367D03*
X003979Y019377D03*
X003659Y019134D03*
X003626Y019154D03*
X003436Y019307D03*
X003339Y019514D03*
X003349Y019524D03*
X003356Y019527D03*
X003369Y019544D03*
X003046Y019437D03*
X002989Y019394D03*
X002629Y019294D03*
X002616Y019277D03*
X002866Y018947D03*
X002916Y018804D03*
X003079Y018524D03*
X003059Y018477D03*
X003499Y018567D03*
X003566Y018487D03*
X003569Y018484D03*
X003599Y018457D03*
X003889Y018144D03*
X003906Y018124D03*
X003929Y018094D03*
X003956Y018064D03*
X003979Y018037D03*
X004026Y017987D03*
X004049Y017967D03*
X004066Y017947D03*
X004069Y017947D03*
X004079Y017937D03*
X002609Y018627D03*
D35*
X002826Y018709D03*
X002846Y018949D03*
X002606Y019269D03*
X002676Y019332D03*
X002689Y019339D03*
X002696Y019342D03*
X002769Y019412D03*
X002779Y019419D03*
X002786Y019422D03*
X002796Y019429D03*
X002846Y019439D03*
X002849Y019439D03*
X002856Y019439D03*
X002859Y019439D03*
X002866Y019439D03*
X002906Y019432D03*
X002916Y019432D03*
X002919Y019429D03*
X002946Y019422D03*
X002949Y019419D03*
X002969Y019409D03*
X003066Y019452D03*
X003069Y019452D03*
X003119Y019452D03*
X003126Y019449D03*
X003219Y019429D03*
X003226Y019432D03*
X003236Y019439D03*
X003256Y019449D03*
X003289Y019469D03*
X003406Y019569D03*
X003409Y019569D03*
X003416Y019569D03*
X003769Y019212D03*
X003796Y019229D03*
X003799Y019229D03*
X003806Y019232D03*
X003816Y019239D03*
X003819Y019239D03*
X003826Y019242D03*
X003836Y019249D03*
X003839Y019249D03*
X003846Y019252D03*
X003936Y019289D03*
X003939Y019289D03*
X003946Y019292D03*
X004016Y019312D03*
X004026Y019312D03*
X004029Y019312D03*
X004076Y019319D03*
X004026Y019409D03*
X004009Y019399D03*
X003986Y019382D03*
X004049Y019419D03*
X004056Y019422D03*
X004059Y019422D03*
X003796Y019062D03*
X003786Y019069D03*
X003776Y019072D03*
X003766Y019079D03*
X003756Y019082D03*
X003719Y019099D03*
X003716Y019102D03*
X003699Y019109D03*
X003696Y019112D03*
X003786Y018572D03*
X003756Y018562D03*
X003746Y018559D03*
X003716Y018552D03*
X003619Y018559D03*
X003599Y018562D03*
X003569Y018569D03*
X003556Y018569D03*
X003476Y018572D03*
X003469Y018572D03*
X003459Y018569D03*
X003456Y018569D03*
X003449Y018569D03*
X003439Y018572D03*
X003419Y018569D03*
X003409Y018569D03*
X003339Y018552D03*
X003219Y018389D03*
X003206Y018382D03*
X003199Y018379D03*
X003196Y018379D03*
X003129Y018359D03*
X003079Y018489D03*
X003099Y018542D03*
X003109Y018549D03*
X003639Y018429D03*
X003656Y018422D03*
X003669Y018412D03*
X003676Y018412D03*
X003679Y018409D03*
X003696Y018402D03*
X003706Y018399D03*
X003779Y018389D03*
X003796Y018389D03*
X003886Y018382D03*
X003899Y018379D03*
X003906Y018379D03*
X003909Y018382D03*
X003949Y018379D03*
X003979Y018379D03*
X004069Y018372D03*
X004076Y018372D03*
X004079Y018372D03*
D36*
X004066Y018906D03*
X004076Y018913D03*
X004079Y018913D03*
D37*
X003802Y019063D03*
X003692Y019163D03*
X003682Y019153D03*
X003632Y019149D03*
X003532Y019276D03*
X003522Y019283D03*
X003462Y019073D03*
X003302Y019479D03*
X003312Y019486D03*
X003322Y019496D03*
X003372Y019543D03*
X003382Y019553D03*
X003422Y019566D03*
X003142Y019439D03*
X002882Y019436D03*
X002762Y019406D03*
X002702Y019339D03*
X002662Y019323D03*
X002612Y019276D03*
X002742Y019063D03*
X002872Y018949D03*
X003082Y018529D03*
X003202Y018523D03*
X003242Y018406D03*
X003542Y018513D03*
X003592Y018463D03*
X003602Y018456D03*
X003722Y018393D03*
X004072Y017943D03*
X003872Y019269D03*
X003972Y019373D03*
D38*
X004072Y018911D03*
X002492Y019161D03*
D39*
X002686Y018311D03*
X004069Y018911D03*
D40*
X003949Y019294D03*
X003919Y019287D03*
X003989Y019384D03*
X003999Y019394D03*
X004006Y019397D03*
X004016Y019404D03*
X004036Y019414D03*
X004069Y019324D03*
X003789Y019224D03*
X003759Y019207D03*
X003756Y019204D03*
X003746Y019197D03*
X003739Y019194D03*
X003729Y019187D03*
X003726Y019184D03*
X003716Y019177D03*
X003709Y019174D03*
X003699Y019167D03*
X003696Y019164D03*
X003686Y019117D03*
X003636Y019144D03*
X003629Y019147D03*
X003516Y019284D03*
X003506Y019284D03*
X003296Y019474D03*
X003286Y019467D03*
X003279Y019464D03*
X003266Y019454D03*
X003246Y019444D03*
X003059Y019444D03*
X002976Y019404D03*
X002869Y019347D03*
X002826Y019437D03*
X002789Y019424D03*
X002776Y019414D03*
X002666Y019324D03*
X002659Y019324D03*
X002649Y019314D03*
X002599Y019267D03*
X002756Y019077D03*
X002746Y019067D03*
X002739Y019064D03*
X002856Y019127D03*
X002899Y019174D03*
X002946Y019177D03*
X002986Y019227D03*
X002996Y019234D03*
X002879Y018947D03*
X002876Y018947D03*
X002869Y018754D03*
X003089Y018534D03*
X003176Y018484D03*
X003229Y018394D03*
X003316Y018544D03*
X003609Y018564D03*
X003616Y018564D03*
X003616Y018444D03*
X003626Y018437D03*
X003629Y018434D03*
X003756Y018387D03*
X003769Y018387D03*
X003786Y018387D03*
X003426Y019564D03*
X003419Y019567D03*
X003396Y019564D03*
X001786Y019057D03*
D41*
X002622Y019284D03*
X002642Y019307D03*
X002982Y019397D03*
X003042Y019434D03*
X003152Y019427D03*
X002992Y019234D03*
X002852Y018947D03*
X003252Y018414D03*
X003582Y018474D03*
X003912Y018114D03*
X003992Y018024D03*
X004042Y017974D03*
X004062Y017954D03*
X003622Y019157D03*
X003932Y019334D03*
X003952Y019357D03*
X003962Y019364D03*
D42*
X004062Y018906D03*
X003452Y019293D03*
D43*
X003512Y019286D03*
X003742Y019196D03*
X003812Y019236D03*
X003832Y019246D03*
X003852Y019256D03*
X003922Y019286D03*
X003952Y019296D03*
X004042Y019316D03*
X004062Y019316D03*
X003992Y019386D03*
X004042Y019416D03*
X003792Y019066D03*
X003772Y019076D03*
X003742Y019086D03*
X003732Y018556D03*
X003662Y018416D03*
X003612Y018446D03*
X003772Y018386D03*
X003802Y018386D03*
X003322Y018546D03*
X003212Y018386D03*
X003082Y018486D03*
X002602Y019266D03*
X002682Y019336D03*
X002772Y019416D03*
X002792Y019426D03*
X002812Y019436D03*
X002832Y019436D03*
X002952Y019416D03*
X003112Y019456D03*
X003212Y019426D03*
X003232Y019436D03*
D44*
X003039Y019431D03*
X002996Y019388D03*
X002966Y019204D03*
X002849Y019138D03*
X002826Y018948D03*
X002859Y018778D03*
X003086Y018618D03*
X003269Y018438D03*
X003506Y018564D03*
X003529Y018528D03*
X003729Y018384D03*
X003776Y018308D03*
X003796Y018278D03*
X003799Y018271D03*
X003806Y018261D03*
X003816Y018248D03*
X003819Y018241D03*
X003829Y018228D03*
X003836Y018218D03*
X003846Y018204D03*
X003849Y018198D03*
X003856Y018188D03*
X003859Y018184D03*
X003879Y018158D03*
X003909Y018118D03*
X003946Y018074D03*
X003949Y018068D03*
X003976Y018041D03*
X003986Y018028D03*
X003999Y018014D03*
X004009Y018004D03*
X004019Y017994D03*
X004029Y017984D03*
X004036Y017978D03*
X004039Y017974D03*
X004059Y017954D03*
X003799Y018584D03*
X003606Y019168D03*
X003589Y019188D03*
X003579Y019201D03*
X003576Y019208D03*
X003546Y019258D03*
X003539Y019268D03*
X002749Y019394D03*
X002736Y019371D03*
X002639Y019308D03*
X002219Y018081D03*
D45*
X003449Y019304D03*
X003446Y019314D03*
X004056Y018904D03*
X004059Y018904D03*
D46*
X003879Y019276D03*
X003949Y019356D03*
X003619Y019156D03*
X003586Y019196D03*
X003359Y019536D03*
X002986Y019396D03*
X002746Y019386D03*
X002626Y019286D03*
X002859Y018946D03*
X002866Y018766D03*
X002926Y018776D03*
X003256Y018416D03*
X003539Y018516D03*
X003559Y018496D03*
X003579Y018476D03*
X003589Y018466D03*
X003789Y018286D03*
X003809Y018256D03*
X003866Y018176D03*
X003969Y018046D03*
X004016Y017996D03*
X004056Y017956D03*
X002216Y018076D03*
X001759Y018786D03*
D47*
X002816Y019116D03*
X002819Y019116D03*
X002896Y019126D03*
X002919Y019126D03*
X002946Y019116D03*
X002999Y019326D03*
X003086Y019456D03*
X003089Y019456D03*
X003096Y019456D03*
X003099Y019456D03*
X003436Y019146D03*
X003466Y019066D03*
X003399Y018566D03*
X003579Y018566D03*
X003586Y018566D03*
X003589Y018566D03*
X003809Y018386D03*
X003816Y018386D03*
X003819Y018386D03*
X004026Y018376D03*
X004029Y018376D03*
X004036Y018376D03*
X004039Y018376D03*
X004046Y018376D03*
X004049Y018376D03*
X004056Y018376D03*
X003096Y018436D03*
X002926Y018716D03*
X002959Y018726D03*
X002979Y018736D03*
X002996Y018746D03*
D48*
X002882Y018722D03*
X002882Y018949D03*
X002852Y019349D03*
X002992Y019389D03*
X003002Y019382D03*
X003642Y018549D03*
X003562Y018492D03*
X003852Y018192D03*
X003862Y018179D03*
X003892Y018139D03*
X003922Y018102D03*
X004022Y017992D03*
X004052Y017959D03*
D49*
X004052Y018376D03*
X004042Y018376D03*
X004032Y018376D03*
X003822Y018386D03*
X003812Y018386D03*
X003582Y018566D03*
X003402Y018566D03*
X003102Y018476D03*
X002922Y018716D03*
X002982Y018736D03*
X002882Y019126D03*
X003092Y019456D03*
X003102Y019456D03*
X002552Y019226D03*
X002072Y018656D03*
D50*
X003442Y019319D03*
X004052Y018902D03*
D51*
X004049Y018902D03*
X002689Y018309D03*
D52*
X004029Y018898D03*
X004036Y018898D03*
X004039Y018901D03*
X004046Y018901D03*
D53*
X004042Y018899D03*
D54*
X003812Y019061D03*
X003882Y019278D03*
X003602Y019171D03*
X003582Y019198D03*
X003572Y019214D03*
X003552Y019248D03*
X003432Y019554D03*
X002952Y019188D03*
X002752Y019398D03*
X002852Y018804D03*
X002862Y018771D03*
X002922Y018784D03*
X003192Y018511D03*
X003272Y018444D03*
X003262Y018424D03*
X003552Y018498D03*
X003772Y018314D03*
X003782Y018298D03*
X003792Y018281D03*
X003802Y018268D03*
X003812Y018251D03*
X003822Y018238D03*
X003832Y018221D03*
X003842Y018208D03*
X003872Y018168D03*
X003882Y018151D03*
X003902Y018128D03*
X003942Y018078D03*
X003952Y018068D03*
X003972Y018044D03*
X003982Y018031D03*
X004002Y018011D03*
X004012Y018001D03*
X004032Y017981D03*
X001802Y019068D03*
X001762Y018788D03*
D55*
X002692Y018311D03*
X004032Y018898D03*
D56*
X003792Y018577D03*
X003702Y018547D03*
X003782Y018387D03*
X003692Y019114D03*
X003712Y019177D03*
X003722Y019184D03*
X003772Y019214D03*
X003792Y019224D03*
X003862Y019264D03*
X004032Y019314D03*
X004002Y019394D03*
X004022Y019407D03*
X003412Y019567D03*
X003402Y019567D03*
X003282Y019464D03*
X003252Y019447D03*
X003132Y019444D03*
X002972Y019407D03*
X002982Y019224D03*
X002762Y019084D03*
X002732Y019054D03*
X002652Y019317D03*
X002932Y018764D03*
X003072Y018454D03*
X003232Y018397D03*
X002072Y018617D03*
D57*
X002669Y019331D03*
X002899Y019431D03*
X002966Y019411D03*
X002979Y019401D03*
X002989Y019231D03*
X003136Y019441D03*
X003239Y019441D03*
X003259Y019451D03*
X003276Y019461D03*
X003306Y019481D03*
X003379Y019551D03*
X003499Y019281D03*
X003639Y019141D03*
X003689Y019161D03*
X003706Y019171D03*
X003719Y019181D03*
X003736Y019191D03*
X003749Y019201D03*
X003766Y019211D03*
X003736Y019091D03*
X003779Y019071D03*
X003996Y019391D03*
X004029Y019411D03*
X003489Y018571D03*
X003486Y018571D03*
X003479Y018571D03*
X003466Y018571D03*
X003376Y018561D03*
X003226Y018391D03*
X003109Y018621D03*
X003106Y018621D03*
X003619Y018441D03*
X003636Y018431D03*
X003889Y018381D03*
X003896Y018381D03*
X003946Y018381D03*
D58*
X004026Y018896D03*
D59*
X004022Y018896D03*
X004002Y018889D03*
D60*
X004016Y018893D03*
X004019Y018893D03*
X002706Y018313D03*
D61*
X004012Y018891D03*
D62*
X003762Y019081D03*
X003702Y019171D03*
X003732Y019191D03*
X003842Y019251D03*
X004012Y019401D03*
X003552Y018571D03*
X003492Y018571D03*
X003482Y018571D03*
X003422Y018571D03*
X003312Y018541D03*
X003222Y018391D03*
X002612Y018631D03*
X002842Y019351D03*
X002782Y019421D03*
X003122Y019451D03*
X003292Y019471D03*
X003392Y019561D03*
X003892Y018381D03*
D63*
X004009Y018891D03*
D64*
X003809Y019062D03*
X003609Y019169D03*
X003599Y019179D03*
X003536Y019272D03*
X003319Y019492D03*
X003316Y019489D03*
X003336Y019509D03*
X003346Y019519D03*
X003156Y019422D03*
X002979Y019222D03*
X002976Y019219D03*
X002856Y019349D03*
X002839Y019352D03*
X002759Y019402D03*
X002756Y019399D03*
X002646Y019312D03*
X002849Y019079D03*
X002869Y018949D03*
X002919Y018792D03*
X002929Y018762D03*
X003096Y018619D03*
X003099Y018619D03*
X003076Y018449D03*
X003259Y018419D03*
X003556Y018499D03*
X003639Y018549D03*
X003826Y018232D03*
X003839Y018212D03*
X003869Y018169D03*
X003876Y018162D03*
X003899Y018132D03*
X003926Y018099D03*
X003966Y018052D03*
X003989Y018022D03*
X004006Y018009D03*
X003919Y019322D03*
X003936Y019339D03*
X003946Y019349D03*
X003956Y019359D03*
X002606Y018622D03*
X001796Y019062D03*
X001789Y019059D03*
D65*
X003986Y018882D03*
X004006Y018889D03*
D66*
X003999Y018886D03*
X003996Y018886D03*
D67*
X003796Y018581D03*
X003666Y018551D03*
X003659Y018551D03*
X003656Y018551D03*
X003649Y018551D03*
X003646Y018551D03*
X003576Y018481D03*
X003586Y018471D03*
X003546Y018511D03*
X003536Y018521D03*
X003916Y018111D03*
X003996Y018021D03*
X003876Y019271D03*
X003429Y019561D03*
X002969Y019211D03*
X002909Y019121D03*
X002759Y019081D03*
X002609Y019271D03*
X002846Y019351D03*
X002849Y019351D03*
X002886Y018721D03*
X001756Y018781D03*
D68*
X003992Y018886D03*
D69*
X003989Y018884D03*
X002709Y018314D03*
D70*
X003972Y018878D03*
X003982Y018881D03*
D71*
X003979Y018882D03*
X003976Y018879D03*
X003969Y018879D03*
D72*
X003966Y018877D03*
X003959Y018874D03*
X002726Y018314D03*
D73*
X003122Y018349D03*
X003092Y018619D03*
X002862Y018949D03*
X002962Y019202D03*
X002742Y019382D03*
X003342Y019512D03*
X003352Y019522D03*
X003612Y019162D03*
X003922Y019322D03*
X003632Y018549D03*
X003622Y018549D03*
X003532Y018522D03*
X003762Y018329D03*
X003932Y018089D03*
X003962Y018052D03*
D74*
X003962Y018874D03*
D75*
X003629Y018554D03*
X003919Y018104D03*
X003959Y018057D03*
X003196Y018514D03*
X002879Y018724D03*
X002959Y019197D03*
X002226Y018087D03*
X001809Y019074D03*
D76*
X002729Y018316D03*
X003939Y018869D03*
X003946Y018869D03*
X003956Y018873D03*
D77*
X003952Y018872D03*
D78*
X003949Y018871D03*
X002486Y019151D03*
D79*
X003902Y018856D03*
X003922Y018863D03*
X003932Y018866D03*
X003942Y018869D03*
D80*
X003669Y019136D03*
X003666Y019136D03*
X003566Y019226D03*
X003559Y019236D03*
X003036Y019426D03*
X003759Y018336D03*
X003766Y018326D03*
X003886Y018146D03*
X003896Y018136D03*
X003936Y018086D03*
X001799Y019066D03*
X001769Y018796D03*
D81*
X002736Y018317D03*
X003899Y018854D03*
X003906Y018857D03*
X003926Y018864D03*
X003929Y018864D03*
X003936Y018867D03*
D82*
X003919Y018861D03*
X003916Y018861D03*
X003886Y018851D03*
D83*
X003916Y019304D03*
X003116Y018337D03*
X002719Y019334D03*
D84*
X002742Y018319D03*
X003882Y018849D03*
X003912Y018859D03*
D85*
X003912Y019301D03*
D86*
X003909Y018859D03*
X003896Y018852D03*
X003889Y018852D03*
X002739Y018319D03*
X002436Y018259D03*
D87*
X002236Y018101D03*
X001799Y018821D03*
X001796Y018821D03*
X003056Y018611D03*
X003436Y019541D03*
X003909Y019301D03*
X003846Y019061D03*
X003839Y019061D03*
D88*
X003836Y019061D03*
X003679Y019138D03*
X003906Y019298D03*
X003809Y018598D03*
X002896Y019188D03*
X002726Y019348D03*
X002716Y019331D03*
X002229Y018094D03*
X001829Y019094D03*
X001836Y019098D03*
D89*
X001822Y019086D03*
X003072Y018616D03*
X003902Y019296D03*
D90*
X003899Y019292D03*
X003676Y019139D03*
X003806Y018592D03*
X003519Y018552D03*
X003066Y018612D03*
X002596Y018609D03*
D91*
X002909Y018831D03*
X002846Y019071D03*
X002709Y019331D03*
X003026Y019401D03*
X003829Y019061D03*
X003896Y019291D03*
D92*
X003892Y018854D03*
X002732Y018317D03*
X002432Y018264D03*
X002482Y019144D03*
D93*
X002732Y019363D03*
X002892Y019419D03*
X003302Y018536D03*
X003892Y019289D03*
X001772Y018796D03*
D94*
X001816Y019079D03*
X002706Y019333D03*
X002846Y019143D03*
X002906Y018839D03*
X003076Y018616D03*
X003189Y018503D03*
X003279Y018456D03*
X003736Y018379D03*
X003826Y019063D03*
X003886Y019283D03*
X002999Y019249D03*
D95*
X003876Y018846D03*
X003879Y018846D03*
D96*
X003872Y018746D03*
D97*
X003832Y018634D03*
X003872Y019044D03*
X002572Y018571D03*
X001942Y019178D03*
D98*
X003869Y018733D03*
D99*
X003869Y019057D03*
X003029Y018604D03*
X003026Y018604D03*
X003106Y018324D03*
X002899Y019087D03*
X001896Y019144D03*
D100*
X002099Y019011D03*
X003026Y018281D03*
X003866Y018711D03*
D101*
X003866Y019056D03*
X002889Y019226D03*
X002249Y018119D03*
X001826Y018846D03*
D102*
X002072Y018998D03*
X003032Y018281D03*
X003862Y018704D03*
D103*
X003862Y019059D03*
X002842Y018849D03*
X002582Y018589D03*
X002242Y018109D03*
X001812Y018832D03*
X001822Y018839D03*
D104*
X002046Y018986D03*
X003859Y018696D03*
D105*
X003859Y019061D03*
X003036Y018604D03*
X003069Y018484D03*
X002586Y018594D03*
X001819Y018838D03*
X001816Y018834D03*
X001809Y018831D03*
D106*
X001996Y018961D03*
X001999Y018961D03*
X002089Y019251D03*
X003856Y018684D03*
D107*
X003856Y019059D03*
X003049Y018612D03*
X003109Y018332D03*
X002549Y019242D03*
X001866Y019122D03*
X001859Y019119D03*
D108*
X003852Y018677D03*
D109*
X003852Y018782D03*
D110*
X003852Y019061D03*
D111*
X003849Y018667D03*
X003006Y019314D03*
X001956Y018934D03*
D112*
X001849Y019111D03*
X002589Y018601D03*
X002899Y018871D03*
X003849Y019061D03*
D113*
X003846Y018661D03*
X002009Y019218D03*
X001936Y018924D03*
D114*
X001992Y019213D03*
X002282Y018159D03*
X003842Y018653D03*
D115*
X003842Y019059D03*
X002592Y018602D03*
D116*
X003086Y018308D03*
X003839Y018648D03*
X001976Y019198D03*
X001969Y019198D03*
X001899Y018898D03*
D117*
X001946Y019179D03*
X001949Y019182D03*
X003179Y019312D03*
X003836Y018639D03*
D118*
X003832Y019059D03*
X003072Y018502D03*
X003062Y018482D03*
X002722Y019342D03*
D119*
X003459Y019111D03*
X003829Y018631D03*
X001859Y018871D03*
D120*
X001889Y019144D03*
X002256Y018124D03*
X003016Y018598D03*
X003019Y018601D03*
X003826Y018621D03*
D121*
X003822Y018617D03*
D122*
X003732Y018381D03*
X003822Y019061D03*
X003562Y019231D03*
X003032Y019421D03*
D123*
X003819Y018611D03*
D124*
X003819Y019061D03*
X003186Y019281D03*
X003029Y019411D03*
X002896Y019421D03*
X002876Y019341D03*
X002739Y019381D03*
X002949Y019181D03*
X002906Y019111D03*
X001806Y019071D03*
X001776Y018801D03*
D125*
X001806Y018824D03*
X003046Y018607D03*
X003816Y018604D03*
D126*
X003812Y018603D03*
X003112Y018336D03*
X001792Y018816D03*
X001852Y019113D03*
D127*
X002842Y018957D03*
X002912Y018817D03*
X003082Y018617D03*
X003512Y018557D03*
X003802Y018587D03*
X003542Y019267D03*
D128*
X003052Y018614D03*
X002902Y019097D03*
X002892Y019197D03*
X002832Y019377D03*
X003752Y018364D03*
D129*
X003749Y018366D03*
X003066Y018483D03*
X002886Y018969D03*
X002836Y019193D03*
X002829Y019223D03*
X002829Y019376D03*
X002239Y018106D03*
X001846Y019106D03*
X001856Y019113D03*
D130*
X001839Y019099D03*
X001786Y018812D03*
X003059Y018612D03*
X003526Y018549D03*
X003746Y018369D03*
D131*
X003742Y018371D03*
X003522Y018551D03*
X003062Y018611D03*
X001782Y018811D03*
D132*
X001826Y019087D03*
X002599Y018614D03*
X002846Y018834D03*
X002876Y018727D03*
X003079Y018617D03*
X003119Y018344D03*
X003516Y018554D03*
X003739Y018374D03*
X002839Y019167D03*
D133*
X002862Y019351D03*
X003052Y019441D03*
X003102Y018621D03*
X003572Y018481D03*
X003652Y018551D03*
X003662Y018551D03*
X003672Y018551D03*
X003682Y018551D03*
X001792Y019061D03*
D134*
X003672Y019137D03*
D135*
X003456Y019277D03*
X002666Y018307D03*
D136*
X002026Y018976D03*
X003439Y019466D03*
D137*
X003436Y019216D03*
X003069Y018616D03*
X003076Y018506D03*
X002849Y018816D03*
X002729Y019356D03*
X001819Y019086D03*
X001779Y018806D03*
D138*
X001812Y019076D03*
X002222Y018086D03*
X002602Y018616D03*
X003362Y019536D03*
D139*
X002889Y019409D03*
X002829Y018949D03*
X003299Y018529D03*
X001879Y019132D03*
X001876Y019129D03*
D140*
X001839Y018856D03*
X003296Y018516D03*
D141*
X003292Y018514D03*
X003012Y018594D03*
X003162Y019387D03*
X001922Y019164D03*
X001852Y018864D03*
D142*
X001869Y018878D03*
X001876Y018881D03*
X002266Y018138D03*
X002569Y018568D03*
X003289Y018508D03*
D143*
X003286Y018504D03*
X001956Y019187D03*
X001879Y018884D03*
D144*
X003282Y018476D03*
D145*
X003282Y018527D03*
X002952Y018724D03*
X002872Y018707D03*
X002862Y018707D03*
X002852Y018707D03*
X002842Y018707D03*
X002832Y018707D03*
X002842Y018924D03*
X002872Y019127D03*
X002892Y019127D03*
X002962Y019107D03*
X002872Y019317D03*
X002552Y019264D03*
D146*
X002552Y019246D03*
X002552Y019206D03*
X002592Y019269D03*
X002832Y019036D03*
X002902Y019033D03*
X002992Y019099D03*
X002842Y018903D03*
X002622Y018639D03*
X003002Y018743D03*
X003132Y018623D03*
X003282Y018549D03*
X003182Y018376D03*
X003182Y019373D03*
X002202Y018059D03*
X002072Y018586D03*
D147*
X001862Y019119D03*
X003182Y019292D03*
D148*
X003182Y019351D03*
X003022Y019281D03*
X002842Y018991D03*
X002902Y018901D03*
X002902Y018711D03*
X003122Y018471D03*
X003142Y018471D03*
D149*
X003079Y018303D03*
X003176Y019329D03*
X001999Y019213D03*
X001986Y019206D03*
X001919Y018913D03*
X001916Y018909D03*
D150*
X001932Y018921D03*
X002012Y019218D03*
X003172Y019338D03*
D151*
X003169Y019346D03*
X002979Y018566D03*
X001926Y018916D03*
X002006Y019216D03*
D152*
X001789Y018816D03*
X003159Y019406D03*
D153*
X002939Y019171D03*
X002926Y019121D03*
X002829Y019121D03*
X002809Y019111D03*
X002946Y018721D03*
X002949Y018721D03*
X003126Y018621D03*
X003126Y018471D03*
X003129Y018471D03*
X003119Y018471D03*
X003146Y018471D03*
X003116Y018431D03*
D154*
X003122Y018321D03*
X002952Y019161D03*
X002902Y019161D03*
X002902Y019171D03*
X002902Y019181D03*
X003002Y019351D03*
X002552Y019281D03*
X002522Y019041D03*
D155*
X003022Y018602D03*
X003102Y018322D03*
X002252Y018122D03*
X001832Y018849D03*
D156*
X001849Y018863D03*
X001926Y019166D03*
X002259Y018133D03*
X003099Y018319D03*
X003009Y018596D03*
D157*
X003096Y018316D03*
X001939Y019176D03*
D158*
X003092Y018312D03*
D159*
X003089Y018311D03*
X002879Y019321D03*
X001959Y019191D03*
D160*
X001982Y019204D03*
X001912Y018907D03*
X003082Y018304D03*
D161*
X003076Y018299D03*
X001929Y018919D03*
D162*
X003072Y018299D03*
D163*
X003069Y018296D03*
X002079Y018623D03*
X001949Y018933D03*
X002039Y019233D03*
D164*
X002036Y019229D03*
X001966Y018942D03*
X003066Y018292D03*
D165*
X003062Y018292D03*
X002062Y019242D03*
D166*
X002059Y019239D03*
X001979Y018953D03*
X003059Y018293D03*
D167*
X003056Y018289D03*
X002086Y019252D03*
X002079Y019249D03*
X001989Y018959D03*
D168*
X002092Y019252D03*
X003052Y018289D03*
D169*
X003049Y018282D03*
D170*
X003046Y018282D03*
X002036Y018982D03*
D171*
X002032Y018981D03*
X003042Y018284D03*
D172*
X003042Y018606D03*
X001802Y018826D03*
D173*
X003039Y018279D03*
D174*
X003039Y018606D03*
D175*
X003036Y018281D03*
D176*
X003032Y018601D03*
D177*
X003029Y018277D03*
D178*
X003022Y018279D03*
D179*
X003022Y019379D03*
X001892Y019143D03*
D180*
X003016Y018279D03*
X003019Y018276D03*
D181*
X002889Y018974D03*
X003019Y019344D03*
D182*
X003016Y019324D03*
X002056Y019241D03*
X002049Y019238D03*
X001969Y018944D03*
X001959Y018938D03*
D183*
X003012Y018281D03*
D184*
X003012Y019316D03*
X002032Y019229D03*
D185*
X003009Y018281D03*
D186*
X003009Y019314D03*
X002029Y019227D03*
X002026Y019227D03*
X002019Y019224D03*
D187*
X003006Y018281D03*
D188*
X002999Y018589D03*
X003006Y018592D03*
X001929Y019172D03*
X001866Y018872D03*
D189*
X003002Y018279D03*
D190*
X003002Y018592D03*
X001932Y019172D03*
X001872Y018879D03*
D191*
X003002Y019279D03*
D192*
X002999Y018277D03*
D193*
X002996Y018279D03*
D194*
X002992Y018279D03*
D195*
X002992Y018586D03*
X001962Y019193D03*
D196*
X002989Y018281D03*
D197*
X002989Y018582D03*
X002566Y018559D03*
X002276Y018152D03*
X002546Y019242D03*
D198*
X002986Y018283D03*
D199*
X002986Y018576D03*
X001896Y018896D03*
D200*
X002982Y018284D03*
D201*
X002982Y018574D03*
X001902Y018901D03*
D202*
X002979Y018291D03*
D203*
X002976Y018376D03*
X002779Y018326D03*
D204*
X002972Y018376D03*
D205*
X002969Y018374D03*
X002789Y018328D03*
X002786Y018328D03*
D206*
X002796Y018329D03*
X002966Y018372D03*
D207*
X002962Y018373D03*
X002952Y018369D03*
X002802Y018333D03*
D208*
X002816Y018334D03*
X002819Y018334D03*
X002936Y018364D03*
X002949Y018367D03*
X002959Y018374D03*
D209*
X002956Y018373D03*
X002946Y018366D03*
X002809Y018333D03*
D210*
X002812Y018334D03*
X002942Y018367D03*
D211*
X002939Y018366D03*
X002826Y018336D03*
D212*
X002832Y018334D03*
X002842Y018338D03*
X002852Y018341D03*
X002912Y018358D03*
X002932Y018364D03*
X002472Y019131D03*
D213*
X002849Y018339D03*
X002896Y018352D03*
X002916Y018359D03*
X002926Y018362D03*
X002929Y018362D03*
D214*
X002922Y018362D03*
X002532Y018322D03*
D215*
X002536Y018328D03*
X002539Y018331D03*
X002449Y018254D03*
X002829Y018334D03*
X002836Y018338D03*
X002839Y018338D03*
X002856Y018341D03*
X002919Y018358D03*
D216*
X002909Y018356D03*
X002879Y018346D03*
X002869Y018346D03*
X002846Y018336D03*
D217*
X002859Y018344D03*
X002866Y018344D03*
X002876Y018344D03*
X002886Y018347D03*
X002899Y018354D03*
X002906Y018354D03*
D218*
X002902Y018354D03*
X002882Y018347D03*
X002872Y018344D03*
X002862Y018344D03*
D219*
X002902Y018856D03*
X002842Y019146D03*
X002832Y019206D03*
X002232Y018096D03*
X001832Y019096D03*
D220*
X002069Y018998D03*
X002076Y019001D03*
X002839Y018951D03*
X002896Y018981D03*
D221*
X002892Y018351D03*
D222*
X002892Y018976D03*
D223*
X002889Y018351D03*
D224*
X002886Y019309D03*
X002109Y019259D03*
X002019Y018973D03*
D225*
X001962Y018939D03*
X002042Y019232D03*
X002882Y019312D03*
D226*
X002842Y019051D03*
X001902Y019151D03*
D227*
X002836Y018951D03*
D228*
X002832Y018947D03*
X002002Y019214D03*
X001922Y018914D03*
D229*
X001976Y018949D03*
X002826Y019299D03*
D230*
X002822Y018336D03*
D231*
X002822Y019301D03*
D232*
X002819Y019297D03*
X001919Y019164D03*
X001856Y018867D03*
D233*
X002546Y018341D03*
X002799Y018331D03*
X002806Y018331D03*
D234*
X002792Y018328D03*
D235*
X002782Y018328D03*
D236*
X002776Y018322D03*
D237*
X002772Y018324D03*
X002442Y018254D03*
D238*
X002429Y018283D03*
X002556Y018356D03*
X002769Y018323D03*
D239*
X002766Y018324D03*
D240*
X002762Y018321D03*
D241*
X002759Y018321D03*
D242*
X002756Y018321D03*
X002559Y018361D03*
X002479Y019141D03*
D243*
X002752Y018322D03*
D244*
X002749Y018321D03*
X002746Y018321D03*
D245*
X002722Y018316D03*
D246*
X002719Y018316D03*
D247*
X002716Y018314D03*
D248*
X002712Y018314D03*
D249*
X002712Y019331D03*
D250*
X002702Y018314D03*
D251*
X002699Y018312D03*
X002696Y018312D03*
X002489Y019159D03*
D252*
X002682Y018311D03*
D253*
X002679Y018311D03*
D254*
X002676Y018309D03*
D255*
X002672Y018308D03*
D256*
X002669Y018309D03*
D257*
X002662Y018307D03*
D258*
X002659Y018306D03*
D259*
X002656Y018306D03*
D260*
X002652Y018304D03*
D261*
X002649Y018304D03*
X002646Y018304D03*
D262*
X002642Y018304D03*
D263*
X002639Y018303D03*
D264*
X002636Y018306D03*
D265*
X002632Y018302D03*
X002502Y019182D03*
D266*
X002506Y019182D03*
X002109Y018649D03*
X002629Y018302D03*
D267*
X002626Y018301D03*
D268*
X002622Y018303D03*
D269*
X002619Y018302D03*
D270*
X002616Y018301D03*
D271*
X002612Y018299D03*
D272*
X002609Y018299D03*
D273*
X002606Y018299D03*
D274*
X002602Y018301D03*
D275*
X002599Y018299D03*
X002509Y019189D03*
D276*
X002596Y018299D03*
D277*
X002592Y018301D03*
D278*
X002589Y018299D03*
D279*
X002586Y018296D03*
D280*
X002582Y018298D03*
D281*
X002579Y018296D03*
D282*
X002579Y018586D03*
D283*
X002576Y018294D03*
X002099Y018634D03*
D284*
X001846Y018859D03*
X001899Y019152D03*
X001916Y019159D03*
X002576Y018579D03*
D285*
X002572Y018294D03*
D286*
X002569Y018293D03*
X002516Y019199D03*
D287*
X002566Y018291D03*
D288*
X002562Y018364D03*
D289*
X002552Y018349D03*
D290*
X002549Y018346D03*
D291*
X002542Y018337D03*
D292*
X002542Y019236D03*
D293*
X002539Y019236D03*
D294*
X002536Y019224D03*
X002049Y018987D03*
D295*
X002532Y019221D03*
D296*
X002529Y018318D03*
D297*
X002529Y019216D03*
D298*
X002526Y018312D03*
D299*
X002526Y019214D03*
D300*
X002522Y018307D03*
D301*
X002522Y019211D03*
D302*
X002519Y018303D03*
X002516Y018296D03*
D303*
X002519Y019202D03*
D304*
X002512Y018293D03*
D305*
X002102Y018639D03*
X002512Y019193D03*
D306*
X002509Y018286D03*
X002466Y018246D03*
D307*
X002506Y018283D03*
D308*
X002502Y018274D03*
D309*
X002499Y018271D03*
D310*
X002499Y019174D03*
D311*
X002496Y018266D03*
X002469Y018246D03*
D312*
X002496Y019166D03*
D313*
X002492Y018262D03*
D314*
X002489Y018259D03*
D315*
X002486Y018251D03*
D316*
X002482Y018249D03*
D317*
X005219Y020992D03*
D318*
X002459Y019104D03*
X002476Y018244D03*
D319*
X002446Y018254D03*
X002476Y019134D03*
D320*
X002462Y019106D03*
X002472Y018246D03*
D321*
X002456Y018251D03*
X002469Y019121D03*
D322*
X002466Y019112D03*
D323*
X002462Y018248D03*
D324*
X002459Y018251D03*
D325*
X002456Y019094D03*
D326*
X002452Y018256D03*
D327*
X002452Y019088D03*
D328*
X002449Y019084D03*
D329*
X002446Y019072D03*
D330*
X002442Y019066D03*
D331*
X002439Y018256D03*
D332*
X002439Y019057D03*
D333*
X002436Y019044D03*
D334*
X002432Y019032D03*
D335*
X002429Y019009D03*
D336*
X002426Y018721D03*
D337*
X002422Y018724D03*
D338*
X002419Y018729D03*
D339*
X002416Y018733D03*
D340*
X002412Y018736D03*
D341*
X002409Y018741D03*
D342*
X002406Y018743D03*
D343*
X002402Y018746D03*
D344*
X002399Y018748D03*
D345*
X002396Y018753D03*
D346*
X002392Y018756D03*
D347*
X002389Y018759D03*
X002299Y018759D03*
X002296Y018759D03*
D348*
X002326Y018766D03*
X002386Y018763D03*
D349*
X002382Y018766D03*
X002322Y018766D03*
D350*
X002339Y018769D03*
X002346Y018769D03*
X002379Y018769D03*
D351*
X002376Y018772D03*
X002369Y018772D03*
X002359Y018772D03*
X002356Y018772D03*
D352*
X002372Y018772D03*
D353*
X002366Y018774D03*
D354*
X002362Y018774D03*
D355*
X002352Y018776D03*
D356*
X002349Y018774D03*
X002336Y018767D03*
X002329Y018767D03*
D357*
X002342Y018769D03*
D358*
X002332Y018767D03*
D359*
X002319Y018764D03*
X002316Y018764D03*
D360*
X002312Y018768D03*
X002292Y018758D03*
D361*
X002306Y018761D03*
X002309Y018761D03*
D362*
X002302Y018761D03*
D363*
X002289Y018758D03*
X002286Y018758D03*
D364*
X002282Y018838D03*
D365*
X002279Y018157D03*
D366*
X002279Y018841D03*
D367*
X002276Y018841D03*
D368*
X002272Y018151D03*
D369*
X002272Y018842D03*
D370*
X001966Y019193D03*
X001889Y018893D03*
X001886Y018889D03*
X002269Y018143D03*
D371*
X002269Y018842D03*
D372*
X002266Y018844D03*
D373*
X002262Y018136D03*
D374*
X002262Y018844D03*
D375*
X002259Y018844D03*
D376*
X002256Y018846D03*
D377*
X002252Y018847D03*
D378*
X002249Y018846D03*
D379*
X001886Y019137D03*
X001869Y019127D03*
X002246Y018114D03*
D380*
X002246Y018849D03*
D381*
X002242Y018851D03*
D382*
X002239Y018849D03*
D383*
X002236Y018847D03*
D384*
X002232Y018849D03*
D385*
X002229Y018851D03*
D386*
X002226Y018849D03*
D387*
X002222Y018852D03*
D388*
X002219Y018856D03*
D389*
X002216Y018856D03*
D390*
X002212Y018854D03*
D391*
X002209Y018854D03*
D392*
X002206Y018856D03*
D393*
X002202Y018857D03*
D394*
X002199Y018859D03*
X002196Y018859D03*
D395*
X002192Y018861D03*
D396*
X002189Y018859D03*
D397*
X002186Y018861D03*
D398*
X002182Y018861D03*
D399*
X002179Y018863D03*
D400*
X002176Y018864D03*
D401*
X002172Y018866D03*
D402*
X002169Y018867D03*
D403*
X002166Y018869D03*
D404*
X002162Y018868D03*
D405*
X002159Y018872D03*
D406*
X002156Y018872D03*
D407*
X002152Y018876D03*
D408*
X002149Y018874D03*
D409*
X002146Y018879D03*
D410*
X002142Y018879D03*
D411*
X002139Y018881D03*
D412*
X002136Y018883D03*
D413*
X002132Y018884D03*
D414*
X002129Y018886D03*
D415*
X002126Y018889D03*
D416*
X002122Y018892D03*
D417*
X002119Y018891D03*
D418*
X002116Y018898D03*
D419*
X002112Y018651D03*
D420*
X002112Y019017D03*
D421*
X002112Y019261D03*
D422*
X002109Y019014D03*
D423*
X002106Y018641D03*
D424*
X002106Y019012D03*
D425*
X002106Y019254D03*
D426*
X002102Y019011D03*
D427*
X002102Y019257D03*
D428*
X002099Y019256D03*
D429*
X002096Y018636D03*
D430*
X002079Y019003D03*
X002096Y019009D03*
D431*
X002009Y018967D03*
X002006Y018967D03*
X002096Y019254D03*
D432*
X002092Y018634D03*
D433*
X002092Y019007D03*
D434*
X002089Y018634D03*
D435*
X002086Y019004D03*
X002089Y019007D03*
D436*
X002086Y018626D03*
D437*
X002082Y018629D03*
D438*
X002082Y019002D03*
D439*
X002082Y019249D03*
D440*
X001906Y019152D03*
X001829Y018849D03*
X002076Y018622D03*
D441*
X001986Y018954D03*
X002069Y019244D03*
X002076Y019247D03*
D442*
X002072Y019246D03*
X001982Y018953D03*
D443*
X002066Y018996D03*
D444*
X002066Y019244D03*
D445*
X002062Y018994D03*
D446*
X002059Y018993D03*
X002056Y018993D03*
D447*
X002052Y018991D03*
D448*
X002052Y019238D03*
D449*
X002046Y019236D03*
D450*
X002042Y018984D03*
D451*
X002039Y018984D03*
X002029Y018981D03*
D452*
X002022Y018976D03*
D453*
X001942Y018927D03*
X002022Y019224D03*
D454*
X002016Y018971D03*
D455*
X002016Y019222D03*
D456*
X002012Y018971D03*
D457*
X002002Y018964D03*
X001992Y018961D03*
D458*
X001996Y019211D03*
D459*
X001989Y019211D03*
D460*
X001979Y019202D03*
X001906Y018902D03*
D461*
X001972Y018946D03*
D462*
X001972Y019196D03*
D463*
X001952Y018934D03*
D464*
X001882Y018887D03*
X001952Y019184D03*
D465*
X001946Y018931D03*
D466*
X001939Y018926D03*
D467*
X001936Y019174D03*
D468*
X001912Y019158D03*
X001842Y018858D03*
D469*
X001909Y018906D03*
D470*
X001909Y019161D03*
D471*
X001892Y018894D03*
D472*
X001882Y019134D03*
D473*
X001872Y019128D03*
D474*
X001862Y018871D03*
D475*
X001842Y019104D03*
D476*
X001836Y018851D03*
D477*
X000936Y021850D02*
X000938Y021923D01*
X000944Y021996D01*
X000954Y022068D01*
X000968Y022140D01*
X000985Y022211D01*
X001007Y022281D01*
X001032Y022350D01*
X001061Y022417D01*
X001093Y022482D01*
X001129Y022546D01*
X001169Y022608D01*
X001211Y022667D01*
X001257Y022724D01*
X001306Y022778D01*
X001358Y022830D01*
X001412Y022879D01*
X001469Y022925D01*
X001528Y022967D01*
X001590Y023007D01*
X001654Y023043D01*
X001719Y023075D01*
X001786Y023104D01*
X001855Y023129D01*
X001925Y023151D01*
X001996Y023168D01*
X002068Y023182D01*
X002140Y023192D01*
X002213Y023198D01*
X002286Y023200D01*
X002359Y023198D01*
X002432Y023192D01*
X002504Y023182D01*
X002576Y023168D01*
X002647Y023151D01*
X002717Y023129D01*
X002786Y023104D01*
X002853Y023075D01*
X002918Y023043D01*
X002982Y023007D01*
X003044Y022967D01*
X003103Y022925D01*
X003160Y022879D01*
X003214Y022830D01*
X003266Y022778D01*
X003315Y022724D01*
X003361Y022667D01*
X003403Y022608D01*
X003443Y022546D01*
X003479Y022482D01*
X003511Y022417D01*
X003540Y022350D01*
X003565Y022281D01*
X003587Y022211D01*
X003604Y022140D01*
X003618Y022068D01*
X003628Y021996D01*
X003634Y021923D01*
X003636Y021850D01*
X003634Y021777D01*
X003628Y021704D01*
X003618Y021632D01*
X003604Y021560D01*
X003587Y021489D01*
X003565Y021419D01*
X003540Y021350D01*
X003511Y021283D01*
X003479Y021218D01*
X003443Y021154D01*
X003403Y021092D01*
X003361Y021033D01*
X003315Y020976D01*
X003266Y020922D01*
X003214Y020870D01*
X003160Y020821D01*
X003103Y020775D01*
X003044Y020733D01*
X002982Y020693D01*
X002918Y020657D01*
X002853Y020625D01*
X002786Y020596D01*
X002717Y020571D01*
X002647Y020549D01*
X002576Y020532D01*
X002504Y020518D01*
X002432Y020508D01*
X002359Y020502D01*
X002286Y020500D01*
X002213Y020502D01*
X002140Y020508D01*
X002068Y020518D01*
X001996Y020532D01*
X001925Y020549D01*
X001855Y020571D01*
X001786Y020596D01*
X001719Y020625D01*
X001654Y020657D01*
X001590Y020693D01*
X001528Y020733D01*
X001469Y020775D01*
X001412Y020821D01*
X001358Y020870D01*
X001306Y020922D01*
X001257Y020976D01*
X001211Y021033D01*
X001169Y021092D01*
X001129Y021154D01*
X001093Y021218D01*
X001061Y021283D01*
X001032Y021350D01*
X001007Y021419D01*
X000985Y021489D01*
X000968Y021560D01*
X000954Y021632D01*
X000944Y021704D01*
X000938Y021777D01*
X000936Y021850D01*
X005036Y021100D02*
X005036Y022600D01*
X005286Y022850D01*
X005786Y022850D01*
X006036Y022600D01*
X006036Y021100D01*
X005786Y020850D01*
X005286Y020850D01*
X005036Y021100D01*
X006036Y021100D02*
X006286Y020850D01*
X006786Y020850D01*
X007036Y021100D01*
X007036Y022600D01*
X006786Y022850D01*
X006286Y022850D01*
X006036Y022600D01*
X007036Y022600D02*
X007286Y022850D01*
X007786Y022850D01*
X008036Y022600D01*
X008036Y021100D01*
X007786Y020850D01*
X007286Y020850D01*
X007036Y021100D01*
X008036Y021100D02*
X008286Y020850D01*
X008786Y020850D01*
X009036Y021100D01*
X009036Y022600D01*
X008786Y022850D01*
X008286Y022850D01*
X008036Y022600D01*
X010186Y021850D02*
X010188Y021923D01*
X010194Y021996D01*
X010204Y022068D01*
X010218Y022140D01*
X010235Y022211D01*
X010257Y022281D01*
X010282Y022350D01*
X010311Y022417D01*
X010343Y022482D01*
X010379Y022546D01*
X010419Y022608D01*
X010461Y022667D01*
X010507Y022724D01*
X010556Y022778D01*
X010608Y022830D01*
X010662Y022879D01*
X010719Y022925D01*
X010778Y022967D01*
X010840Y023007D01*
X010904Y023043D01*
X010969Y023075D01*
X011036Y023104D01*
X011105Y023129D01*
X011175Y023151D01*
X011246Y023168D01*
X011318Y023182D01*
X011390Y023192D01*
X011463Y023198D01*
X011536Y023200D01*
X011609Y023198D01*
X011682Y023192D01*
X011754Y023182D01*
X011826Y023168D01*
X011897Y023151D01*
X011967Y023129D01*
X012036Y023104D01*
X012103Y023075D01*
X012168Y023043D01*
X012232Y023007D01*
X012294Y022967D01*
X012353Y022925D01*
X012410Y022879D01*
X012464Y022830D01*
X012516Y022778D01*
X012565Y022724D01*
X012611Y022667D01*
X012653Y022608D01*
X012693Y022546D01*
X012729Y022482D01*
X012761Y022417D01*
X012790Y022350D01*
X012815Y022281D01*
X012837Y022211D01*
X012854Y022140D01*
X012868Y022068D01*
X012878Y021996D01*
X012884Y021923D01*
X012886Y021850D01*
X012884Y021777D01*
X012878Y021704D01*
X012868Y021632D01*
X012854Y021560D01*
X012837Y021489D01*
X012815Y021419D01*
X012790Y021350D01*
X012761Y021283D01*
X012729Y021218D01*
X012693Y021154D01*
X012653Y021092D01*
X012611Y021033D01*
X012565Y020976D01*
X012516Y020922D01*
X012464Y020870D01*
X012410Y020821D01*
X012353Y020775D01*
X012294Y020733D01*
X012232Y020693D01*
X012168Y020657D01*
X012103Y020625D01*
X012036Y020596D01*
X011967Y020571D01*
X011897Y020549D01*
X011826Y020532D01*
X011754Y020518D01*
X011682Y020508D01*
X011609Y020502D01*
X011536Y020500D01*
X011463Y020502D01*
X011390Y020508D01*
X011318Y020518D01*
X011246Y020532D01*
X011175Y020549D01*
X011105Y020571D01*
X011036Y020596D01*
X010969Y020625D01*
X010904Y020657D01*
X010840Y020693D01*
X010778Y020733D01*
X010719Y020775D01*
X010662Y020821D01*
X010608Y020870D01*
X010556Y020922D01*
X010507Y020976D01*
X010461Y021033D01*
X010419Y021092D01*
X010379Y021154D01*
X010343Y021218D01*
X010311Y021283D01*
X010282Y021350D01*
X010257Y021419D01*
X010235Y021489D01*
X010218Y021560D01*
X010204Y021632D01*
X010194Y021704D01*
X010188Y021777D01*
X010186Y021850D01*
X011786Y019850D02*
X011536Y019600D01*
X011536Y019100D01*
X011786Y018850D01*
X012286Y018850D01*
X012536Y019100D01*
X012536Y019600D01*
X012286Y019850D01*
X011786Y019850D01*
X011786Y018850D02*
X011536Y018600D01*
X011536Y018100D01*
X011786Y017850D01*
X012286Y017850D01*
X012536Y017600D01*
X012536Y017100D01*
X012286Y016850D01*
X012536Y016600D01*
X012536Y016100D01*
X012286Y015850D01*
X011786Y015850D01*
X011536Y016100D01*
X011536Y016600D01*
X011786Y016850D01*
X011536Y017100D01*
X011536Y017600D01*
X011786Y017850D01*
X012286Y017850D02*
X012536Y018100D01*
X012536Y018600D01*
X012286Y018850D01*
X012286Y016850D02*
X011786Y016850D01*
X011786Y015350D02*
X012286Y015350D01*
X012536Y015100D01*
X012536Y014600D01*
X012286Y014350D01*
X012536Y014100D01*
X012536Y013600D01*
X012286Y013350D01*
X012536Y013100D01*
X012536Y012600D01*
X012286Y012350D01*
X012536Y012100D01*
X012536Y011600D01*
X012286Y011350D01*
X012536Y011100D01*
X012536Y010600D01*
X012286Y010350D01*
X012536Y010100D01*
X012536Y009600D01*
X012286Y009350D01*
X012536Y009100D01*
X012536Y008600D01*
X012286Y008350D01*
X011786Y008350D01*
X011536Y008600D01*
X011536Y009100D01*
X011786Y009350D01*
X011536Y009600D01*
X011536Y010100D01*
X011786Y010350D01*
X012286Y010350D01*
X011786Y010350D02*
X011536Y010600D01*
X011536Y011100D01*
X011786Y011350D01*
X011536Y011600D01*
X011536Y012100D01*
X011786Y012350D01*
X011536Y012600D01*
X011536Y013100D01*
X011786Y013350D01*
X012286Y013350D01*
X011786Y013350D02*
X011536Y013600D01*
X011536Y014100D01*
X011786Y014350D01*
X011536Y014600D01*
X011536Y015100D01*
X011786Y015350D01*
X011786Y014350D02*
X012286Y014350D01*
X012286Y012350D02*
X011786Y012350D01*
X011786Y011350D02*
X012286Y011350D01*
X012286Y009350D02*
X011786Y009350D01*
X009101Y011050D02*
X009101Y013671D01*
X008961Y013810D01*
X006341Y013810D01*
X006341Y011050D01*
X009101Y011050D01*
X008660Y013510D02*
X008662Y013533D01*
X008668Y013556D01*
X008677Y013577D01*
X008690Y013597D01*
X008706Y013614D01*
X008724Y013628D01*
X008744Y013639D01*
X008766Y013647D01*
X008789Y013651D01*
X008813Y013651D01*
X008836Y013647D01*
X008858Y013639D01*
X008878Y013628D01*
X008896Y013614D01*
X008912Y013597D01*
X008925Y013577D01*
X008934Y013556D01*
X008940Y013533D01*
X008942Y013510D01*
X008940Y013487D01*
X008934Y013464D01*
X008925Y013443D01*
X008912Y013423D01*
X008896Y013406D01*
X008878Y013392D01*
X008858Y013381D01*
X008836Y013373D01*
X008813Y013369D01*
X008789Y013369D01*
X008766Y013373D01*
X008744Y013381D01*
X008724Y013392D01*
X008706Y013406D01*
X008690Y013423D01*
X008677Y013443D01*
X008668Y013464D01*
X008662Y013487D01*
X008660Y013510D01*
X003629Y013857D02*
X003629Y011457D01*
X003279Y012407D02*
X002979Y012407D01*
X002979Y012157D01*
X002979Y012407D02*
X002679Y012407D01*
X002679Y012557D02*
X002679Y012757D01*
X003279Y012757D01*
X003279Y012557D01*
X002679Y012557D01*
X002679Y012907D02*
X002979Y012907D01*
X002979Y013157D01*
X002979Y012907D02*
X003279Y012907D01*
X003629Y013857D02*
X003627Y013907D01*
X003621Y013956D01*
X003612Y014005D01*
X003599Y014053D01*
X003582Y014100D01*
X003562Y014145D01*
X003538Y014189D01*
X003511Y014231D01*
X003480Y014271D01*
X003447Y014308D01*
X003411Y014342D01*
X003373Y014374D01*
X003332Y014403D01*
X003290Y014428D01*
X003245Y014450D01*
X003199Y014469D01*
X003151Y014484D01*
X003103Y014495D01*
X003054Y014503D01*
X003004Y014507D01*
X002954Y014507D01*
X002904Y014503D01*
X002855Y014495D01*
X002807Y014484D01*
X002759Y014469D01*
X002713Y014450D01*
X002668Y014428D01*
X002626Y014403D01*
X002585Y014374D01*
X002547Y014342D01*
X002511Y014308D01*
X002478Y014271D01*
X002447Y014231D01*
X002420Y014189D01*
X002396Y014145D01*
X002376Y014100D01*
X002359Y014053D01*
X002346Y014005D01*
X002337Y013956D01*
X002331Y013907D01*
X002329Y013857D01*
X002329Y011457D01*
X002331Y011407D01*
X002337Y011358D01*
X002346Y011309D01*
X002359Y011261D01*
X002376Y011214D01*
X002396Y011169D01*
X002420Y011125D01*
X002447Y011083D01*
X002478Y011043D01*
X002511Y011006D01*
X002547Y010972D01*
X002585Y010940D01*
X002626Y010911D01*
X002668Y010886D01*
X002713Y010864D01*
X002759Y010845D01*
X002807Y010830D01*
X002855Y010819D01*
X002904Y010811D01*
X002954Y010807D01*
X003004Y010807D01*
X003054Y010811D01*
X003103Y010819D01*
X003151Y010830D01*
X003199Y010845D01*
X003245Y010864D01*
X003290Y010886D01*
X003332Y010911D01*
X003373Y010940D01*
X003411Y010972D01*
X003447Y011006D01*
X003480Y011043D01*
X003511Y011083D01*
X003538Y011125D01*
X003562Y011169D01*
X003582Y011214D01*
X003599Y011261D01*
X003612Y011309D01*
X003621Y011358D01*
X003627Y011407D01*
X003629Y011457D01*
X000686Y001850D02*
X000688Y001923D01*
X000694Y001996D01*
X000704Y002068D01*
X000718Y002140D01*
X000735Y002211D01*
X000757Y002281D01*
X000782Y002350D01*
X000811Y002417D01*
X000843Y002482D01*
X000879Y002546D01*
X000919Y002608D01*
X000961Y002667D01*
X001007Y002724D01*
X001056Y002778D01*
X001108Y002830D01*
X001162Y002879D01*
X001219Y002925D01*
X001278Y002967D01*
X001340Y003007D01*
X001404Y003043D01*
X001469Y003075D01*
X001536Y003104D01*
X001605Y003129D01*
X001675Y003151D01*
X001746Y003168D01*
X001818Y003182D01*
X001890Y003192D01*
X001963Y003198D01*
X002036Y003200D01*
X002109Y003198D01*
X002182Y003192D01*
X002254Y003182D01*
X002326Y003168D01*
X002397Y003151D01*
X002467Y003129D01*
X002536Y003104D01*
X002603Y003075D01*
X002668Y003043D01*
X002732Y003007D01*
X002794Y002967D01*
X002853Y002925D01*
X002910Y002879D01*
X002964Y002830D01*
X003016Y002778D01*
X003065Y002724D01*
X003111Y002667D01*
X003153Y002608D01*
X003193Y002546D01*
X003229Y002482D01*
X003261Y002417D01*
X003290Y002350D01*
X003315Y002281D01*
X003337Y002211D01*
X003354Y002140D01*
X003368Y002068D01*
X003378Y001996D01*
X003384Y001923D01*
X003386Y001850D01*
X003384Y001777D01*
X003378Y001704D01*
X003368Y001632D01*
X003354Y001560D01*
X003337Y001489D01*
X003315Y001419D01*
X003290Y001350D01*
X003261Y001283D01*
X003229Y001218D01*
X003193Y001154D01*
X003153Y001092D01*
X003111Y001033D01*
X003065Y000976D01*
X003016Y000922D01*
X002964Y000870D01*
X002910Y000821D01*
X002853Y000775D01*
X002794Y000733D01*
X002732Y000693D01*
X002668Y000657D01*
X002603Y000625D01*
X002536Y000596D01*
X002467Y000571D01*
X002397Y000549D01*
X002326Y000532D01*
X002254Y000518D01*
X002182Y000508D01*
X002109Y000502D01*
X002036Y000500D01*
X001963Y000502D01*
X001890Y000508D01*
X001818Y000518D01*
X001746Y000532D01*
X001675Y000549D01*
X001605Y000571D01*
X001536Y000596D01*
X001469Y000625D01*
X001404Y000657D01*
X001340Y000693D01*
X001278Y000733D01*
X001219Y000775D01*
X001162Y000821D01*
X001108Y000870D01*
X001056Y000922D01*
X001007Y000976D01*
X000961Y001033D01*
X000919Y001092D01*
X000879Y001154D01*
X000843Y001218D01*
X000811Y001283D01*
X000782Y001350D01*
X000757Y001419D01*
X000735Y001489D01*
X000718Y001560D01*
X000704Y001632D01*
X000694Y001704D01*
X000688Y001777D01*
X000686Y001850D01*
X004036Y001350D02*
X004038Y001413D01*
X004044Y001475D01*
X004054Y001537D01*
X004067Y001599D01*
X004085Y001659D01*
X004106Y001718D01*
X004131Y001776D01*
X004160Y001832D01*
X004192Y001886D01*
X004227Y001938D01*
X004265Y001987D01*
X004307Y002035D01*
X004351Y002079D01*
X004399Y002121D01*
X004448Y002159D01*
X004500Y002194D01*
X004554Y002226D01*
X004610Y002255D01*
X004668Y002280D01*
X004727Y002301D01*
X004787Y002319D01*
X004849Y002332D01*
X004911Y002342D01*
X004973Y002348D01*
X005036Y002350D01*
X005099Y002348D01*
X005161Y002342D01*
X005223Y002332D01*
X005285Y002319D01*
X005345Y002301D01*
X005404Y002280D01*
X005462Y002255D01*
X005518Y002226D01*
X005572Y002194D01*
X005624Y002159D01*
X005673Y002121D01*
X005721Y002079D01*
X005765Y002035D01*
X005807Y001987D01*
X005845Y001938D01*
X005880Y001886D01*
X005912Y001832D01*
X005941Y001776D01*
X005966Y001718D01*
X005987Y001659D01*
X006005Y001599D01*
X006018Y001537D01*
X006028Y001475D01*
X006034Y001413D01*
X006036Y001350D01*
X006034Y001287D01*
X006028Y001225D01*
X006018Y001163D01*
X006005Y001101D01*
X005987Y001041D01*
X005966Y000982D01*
X005941Y000924D01*
X005912Y000868D01*
X005880Y000814D01*
X005845Y000762D01*
X005807Y000713D01*
X005765Y000665D01*
X005721Y000621D01*
X005673Y000579D01*
X005624Y000541D01*
X005572Y000506D01*
X005518Y000474D01*
X005462Y000445D01*
X005404Y000420D01*
X005345Y000399D01*
X005285Y000381D01*
X005223Y000368D01*
X005161Y000358D01*
X005099Y000352D01*
X005036Y000350D01*
X004973Y000352D01*
X004911Y000358D01*
X004849Y000368D01*
X004787Y000381D01*
X004727Y000399D01*
X004668Y000420D01*
X004610Y000445D01*
X004554Y000474D01*
X004500Y000506D01*
X004448Y000541D01*
X004399Y000579D01*
X004351Y000621D01*
X004307Y000665D01*
X004265Y000713D01*
X004227Y000762D01*
X004192Y000814D01*
X004160Y000868D01*
X004131Y000924D01*
X004106Y000982D01*
X004085Y001041D01*
X004067Y001101D01*
X004054Y001163D01*
X004044Y001225D01*
X004038Y001287D01*
X004036Y001350D01*
X010186Y001850D02*
X010188Y001923D01*
X010194Y001996D01*
X010204Y002068D01*
X010218Y002140D01*
X010235Y002211D01*
X010257Y002281D01*
X010282Y002350D01*
X010311Y002417D01*
X010343Y002482D01*
X010379Y002546D01*
X010419Y002608D01*
X010461Y002667D01*
X010507Y002724D01*
X010556Y002778D01*
X010608Y002830D01*
X010662Y002879D01*
X010719Y002925D01*
X010778Y002967D01*
X010840Y003007D01*
X010904Y003043D01*
X010969Y003075D01*
X011036Y003104D01*
X011105Y003129D01*
X011175Y003151D01*
X011246Y003168D01*
X011318Y003182D01*
X011390Y003192D01*
X011463Y003198D01*
X011536Y003200D01*
X011609Y003198D01*
X011682Y003192D01*
X011754Y003182D01*
X011826Y003168D01*
X011897Y003151D01*
X011967Y003129D01*
X012036Y003104D01*
X012103Y003075D01*
X012168Y003043D01*
X012232Y003007D01*
X012294Y002967D01*
X012353Y002925D01*
X012410Y002879D01*
X012464Y002830D01*
X012516Y002778D01*
X012565Y002724D01*
X012611Y002667D01*
X012653Y002608D01*
X012693Y002546D01*
X012729Y002482D01*
X012761Y002417D01*
X012790Y002350D01*
X012815Y002281D01*
X012837Y002211D01*
X012854Y002140D01*
X012868Y002068D01*
X012878Y001996D01*
X012884Y001923D01*
X012886Y001850D01*
X012884Y001777D01*
X012878Y001704D01*
X012868Y001632D01*
X012854Y001560D01*
X012837Y001489D01*
X012815Y001419D01*
X012790Y001350D01*
X012761Y001283D01*
X012729Y001218D01*
X012693Y001154D01*
X012653Y001092D01*
X012611Y001033D01*
X012565Y000976D01*
X012516Y000922D01*
X012464Y000870D01*
X012410Y000821D01*
X012353Y000775D01*
X012294Y000733D01*
X012232Y000693D01*
X012168Y000657D01*
X012103Y000625D01*
X012036Y000596D01*
X011967Y000571D01*
X011897Y000549D01*
X011826Y000532D01*
X011754Y000518D01*
X011682Y000508D01*
X011609Y000502D01*
X011536Y000500D01*
X011463Y000502D01*
X011390Y000508D01*
X011318Y000518D01*
X011246Y000532D01*
X011175Y000549D01*
X011105Y000571D01*
X011036Y000596D01*
X010969Y000625D01*
X010904Y000657D01*
X010840Y000693D01*
X010778Y000733D01*
X010719Y000775D01*
X010662Y000821D01*
X010608Y000870D01*
X010556Y000922D01*
X010507Y000976D01*
X010461Y001033D01*
X010419Y001092D01*
X010379Y001154D01*
X010343Y001218D01*
X010311Y001283D01*
X010282Y001350D01*
X010257Y001419D01*
X010235Y001489D01*
X010218Y001560D01*
X010204Y001632D01*
X010194Y001704D01*
X010188Y001777D01*
X010186Y001850D01*
D478*
X007238Y005505D02*
X007138Y005505D01*
X007188Y005505D02*
X007188Y005655D01*
X007138Y005605D01*
X007091Y005630D02*
X007066Y005655D01*
X007016Y005655D01*
X006991Y005630D01*
X006991Y005530D01*
X007016Y005505D01*
X007066Y005505D01*
X007091Y005530D01*
X005816Y000318D02*
X005762Y000390D01*
X005763Y000389D02*
X005816Y000432D01*
X005867Y000477D01*
X005915Y000526D01*
X005960Y000577D01*
X006003Y000631D01*
X006042Y000687D01*
X006078Y000745D01*
X006111Y000805D01*
X006140Y000866D01*
X006165Y000930D01*
X006187Y000994D01*
X006206Y001060D01*
X006220Y001127D01*
X006231Y001194D01*
X006238Y001262D01*
X006241Y001330D01*
X006240Y001399D01*
X006235Y001467D01*
X006227Y001535D01*
X006214Y001602D01*
X006198Y001668D01*
X006178Y001733D01*
X006155Y001798D01*
X006128Y001860D01*
X006097Y001921D01*
X006063Y001980D01*
X006026Y002038D01*
X005985Y002093D01*
X005941Y002145D01*
X005895Y002195D01*
X005846Y002242D01*
X005794Y002287D01*
X005740Y002328D01*
X005683Y002367D01*
X005624Y002402D01*
X005564Y002433D01*
X005502Y002461D01*
X005438Y002486D01*
X005373Y002507D01*
X005307Y002524D01*
X005240Y002538D01*
X005172Y002547D01*
X005104Y002553D01*
X005036Y002555D01*
X004968Y002553D01*
X004900Y002547D01*
X004832Y002538D01*
X004765Y002524D01*
X004699Y002507D01*
X004634Y002486D01*
X004570Y002461D01*
X004508Y002433D01*
X004448Y002402D01*
X004389Y002367D01*
X004332Y002328D01*
X004278Y002287D01*
X004226Y002242D01*
X004177Y002195D01*
X004131Y002145D01*
X004087Y002093D01*
X004046Y002038D01*
X004009Y001980D01*
X003975Y001921D01*
X003944Y001860D01*
X003917Y001798D01*
X003894Y001733D01*
X003874Y001668D01*
X003858Y001602D01*
X003845Y001535D01*
X003837Y001467D01*
X003832Y001399D01*
X003831Y001330D01*
X003834Y001262D01*
X003841Y001194D01*
X003852Y001127D01*
X003866Y001060D01*
X003885Y000994D01*
X003907Y000930D01*
X003932Y000866D01*
X003961Y000805D01*
X003994Y000745D01*
X004030Y000687D01*
X004069Y000631D01*
X004112Y000577D01*
X004157Y000526D01*
X004205Y000477D01*
X004256Y000432D01*
X004309Y000389D01*
X004256Y000318D01*
X004255Y000317D01*
X004200Y000361D01*
X004147Y000409D01*
X004096Y000459D01*
X004049Y000512D01*
X004005Y000567D01*
X003963Y000625D01*
X003925Y000685D01*
X003890Y000746D01*
X003859Y000810D01*
X003831Y000875D01*
X003807Y000942D01*
X003786Y001010D01*
X003770Y001079D01*
X003757Y001149D01*
X003748Y001219D01*
X003742Y001290D01*
X003741Y001361D01*
X003744Y001432D01*
X003750Y001503D01*
X003760Y001573D01*
X003774Y001642D01*
X003792Y001711D01*
X003814Y001779D01*
X003839Y001845D01*
X003868Y001910D01*
X003901Y001973D01*
X003937Y002034D01*
X003976Y002093D01*
X004018Y002150D01*
X004063Y002205D01*
X004112Y002257D01*
X004163Y002306D01*
X004216Y002353D01*
X004273Y002396D01*
X004331Y002436D01*
X004392Y002473D01*
X004454Y002507D01*
X004518Y002537D01*
X004584Y002564D01*
X004651Y002587D01*
X004720Y002606D01*
X004789Y002621D01*
X004859Y002633D01*
X004930Y002641D01*
X005001Y002645D01*
X005071Y002645D01*
X005142Y002641D01*
X005213Y002633D01*
X005283Y002621D01*
X005352Y002606D01*
X005421Y002587D01*
X005488Y002564D01*
X005554Y002537D01*
X005618Y002507D01*
X005680Y002473D01*
X005741Y002436D01*
X005799Y002396D01*
X005856Y002353D01*
X005909Y002306D01*
X005960Y002257D01*
X006009Y002205D01*
X006054Y002150D01*
X006096Y002093D01*
X006135Y002034D01*
X006171Y001973D01*
X006204Y001910D01*
X006233Y001845D01*
X006258Y001779D01*
X006280Y001711D01*
X006298Y001642D01*
X006312Y001573D01*
X006322Y001503D01*
X006328Y001432D01*
X006331Y001361D01*
X006330Y001290D01*
X006324Y001219D01*
X006315Y001149D01*
X006302Y001079D01*
X006286Y001010D01*
X006265Y000942D01*
X006241Y000875D01*
X006213Y000810D01*
X006182Y000746D01*
X006147Y000685D01*
X006109Y000625D01*
X006067Y000567D01*
X006023Y000512D01*
X005976Y000459D01*
X005925Y000409D01*
X005872Y000361D01*
X005817Y000317D01*
X005812Y000324D01*
X005867Y000369D01*
X005920Y000416D01*
X005971Y000467D01*
X006018Y000520D01*
X006063Y000576D01*
X006104Y000634D01*
X006142Y000694D01*
X006177Y000756D01*
X006208Y000820D01*
X006235Y000886D01*
X006259Y000953D01*
X006279Y001022D01*
X006296Y001091D01*
X006308Y001161D01*
X006317Y001232D01*
X006321Y001303D01*
X006322Y001374D01*
X006318Y001445D01*
X006311Y001516D01*
X006300Y001587D01*
X006285Y001656D01*
X006266Y001725D01*
X006243Y001793D01*
X006217Y001859D01*
X006187Y001924D01*
X006153Y001986D01*
X006117Y002047D01*
X006076Y002106D01*
X006033Y002163D01*
X005986Y002217D01*
X005937Y002268D01*
X005884Y002316D01*
X005830Y002362D01*
X005772Y002404D01*
X005713Y002443D01*
X005651Y002479D01*
X005588Y002512D01*
X005523Y002540D01*
X005456Y002566D01*
X005388Y002587D01*
X005319Y002605D01*
X005249Y002618D01*
X005178Y002628D01*
X005107Y002634D01*
X005036Y002636D01*
X004965Y002634D01*
X004894Y002628D01*
X004823Y002618D01*
X004753Y002605D01*
X004684Y002587D01*
X004616Y002566D01*
X004549Y002540D01*
X004484Y002512D01*
X004421Y002479D01*
X004359Y002443D01*
X004300Y002404D01*
X004242Y002362D01*
X004188Y002316D01*
X004135Y002268D01*
X004086Y002217D01*
X004039Y002163D01*
X003996Y002106D01*
X003955Y002047D01*
X003919Y001986D01*
X003885Y001924D01*
X003855Y001859D01*
X003829Y001793D01*
X003806Y001725D01*
X003787Y001656D01*
X003772Y001587D01*
X003761Y001516D01*
X003754Y001445D01*
X003750Y001374D01*
X003751Y001303D01*
X003755Y001232D01*
X003764Y001161D01*
X003776Y001091D01*
X003793Y001022D01*
X003813Y000953D01*
X003837Y000886D01*
X003864Y000820D01*
X003895Y000756D01*
X003930Y000694D01*
X003968Y000634D01*
X004009Y000576D01*
X004054Y000520D01*
X004101Y000467D01*
X004152Y000416D01*
X004205Y000369D01*
X004260Y000324D01*
X004266Y000331D01*
X004211Y000376D01*
X004158Y000423D01*
X004108Y000473D01*
X004061Y000526D01*
X004017Y000581D01*
X003975Y000639D01*
X003938Y000698D01*
X003903Y000760D01*
X003872Y000824D01*
X003845Y000889D01*
X003821Y000956D01*
X003801Y001024D01*
X003785Y001093D01*
X003773Y001162D01*
X003764Y001233D01*
X003760Y001303D01*
X003759Y001374D01*
X003763Y001445D01*
X003770Y001515D01*
X003781Y001585D01*
X003796Y001654D01*
X003815Y001722D01*
X003837Y001790D01*
X003863Y001855D01*
X003893Y001920D01*
X003926Y001982D01*
X003963Y002042D01*
X004003Y002101D01*
X004046Y002157D01*
X004092Y002211D01*
X004142Y002261D01*
X004193Y002310D01*
X004248Y002355D01*
X004305Y002397D01*
X004364Y002436D01*
X004425Y002471D01*
X004488Y002504D01*
X004553Y002532D01*
X004619Y002557D01*
X004687Y002578D01*
X004755Y002596D01*
X004825Y002609D01*
X004895Y002619D01*
X004965Y002625D01*
X005036Y002627D01*
X005107Y002625D01*
X005177Y002619D01*
X005247Y002609D01*
X005317Y002596D01*
X005385Y002578D01*
X005453Y002557D01*
X005519Y002532D01*
X005584Y002504D01*
X005647Y002471D01*
X005708Y002436D01*
X005767Y002397D01*
X005824Y002355D01*
X005879Y002310D01*
X005930Y002261D01*
X005980Y002211D01*
X006026Y002157D01*
X006069Y002101D01*
X006109Y002042D01*
X006146Y001982D01*
X006179Y001920D01*
X006209Y001855D01*
X006235Y001790D01*
X006257Y001722D01*
X006276Y001654D01*
X006291Y001585D01*
X006302Y001515D01*
X006309Y001445D01*
X006313Y001374D01*
X006312Y001303D01*
X006308Y001233D01*
X006299Y001162D01*
X006287Y001093D01*
X006271Y001024D01*
X006251Y000956D01*
X006227Y000889D01*
X006200Y000824D01*
X006169Y000760D01*
X006134Y000698D01*
X006097Y000639D01*
X006055Y000581D01*
X006011Y000526D01*
X005964Y000473D01*
X005914Y000423D01*
X005861Y000376D01*
X005806Y000331D01*
X005801Y000339D01*
X005856Y000383D01*
X005909Y000431D01*
X005959Y000481D01*
X006007Y000534D01*
X006051Y000590D01*
X006092Y000648D01*
X006129Y000708D01*
X006164Y000770D01*
X006194Y000834D01*
X006221Y000900D01*
X006245Y000967D01*
X006264Y001035D01*
X006280Y001105D01*
X006292Y001175D01*
X006300Y001245D01*
X006304Y001316D01*
X006303Y001387D01*
X006299Y001458D01*
X006291Y001529D01*
X006279Y001599D01*
X006263Y001668D01*
X006244Y001736D01*
X006220Y001804D01*
X006193Y001869D01*
X006162Y001933D01*
X006128Y001995D01*
X006090Y002055D01*
X006048Y002113D01*
X006004Y002169D01*
X005957Y002222D01*
X005906Y002272D01*
X005853Y002319D01*
X005798Y002364D01*
X005740Y002405D01*
X005680Y002442D01*
X005617Y002477D01*
X005553Y002508D01*
X005488Y002535D01*
X005421Y002558D01*
X005352Y002578D01*
X005283Y002594D01*
X005213Y002606D01*
X005142Y002614D01*
X005072Y002618D01*
X005000Y002618D01*
X004930Y002614D01*
X004859Y002606D01*
X004789Y002594D01*
X004720Y002578D01*
X004651Y002558D01*
X004584Y002535D01*
X004519Y002508D01*
X004455Y002477D01*
X004392Y002442D01*
X004332Y002405D01*
X004274Y002364D01*
X004219Y002319D01*
X004166Y002272D01*
X004115Y002222D01*
X004068Y002169D01*
X004024Y002113D01*
X003982Y002055D01*
X003944Y001995D01*
X003910Y001933D01*
X003879Y001869D01*
X003852Y001804D01*
X003828Y001736D01*
X003809Y001668D01*
X003793Y001599D01*
X003781Y001529D01*
X003773Y001458D01*
X003769Y001387D01*
X003768Y001316D01*
X003772Y001245D01*
X003780Y001175D01*
X003792Y001105D01*
X003808Y001035D01*
X003827Y000967D01*
X003851Y000900D01*
X003878Y000834D01*
X003908Y000770D01*
X003943Y000708D01*
X003980Y000648D01*
X004021Y000590D01*
X004065Y000534D01*
X004113Y000481D01*
X004163Y000431D01*
X004216Y000383D01*
X004271Y000339D01*
X004277Y000346D01*
X004222Y000390D01*
X004169Y000437D01*
X004119Y000487D01*
X004072Y000540D01*
X004028Y000595D01*
X003988Y000653D01*
X003950Y000712D01*
X003916Y000774D01*
X003886Y000838D01*
X003859Y000903D01*
X003836Y000970D01*
X003816Y001038D01*
X003801Y001106D01*
X003789Y001176D01*
X003781Y001246D01*
X003777Y001317D01*
X003778Y001387D01*
X003782Y001458D01*
X003790Y001528D01*
X003802Y001597D01*
X003817Y001666D01*
X003837Y001734D01*
X003860Y001800D01*
X003887Y001865D01*
X003918Y001929D01*
X003952Y001991D01*
X003990Y002050D01*
X004031Y002108D01*
X004075Y002163D01*
X004122Y002216D01*
X004172Y002265D01*
X004224Y002312D01*
X004280Y002356D01*
X004337Y002397D01*
X004397Y002435D01*
X004459Y002469D01*
X004522Y002499D01*
X004587Y002526D01*
X004654Y002550D01*
X004722Y002569D01*
X004791Y002585D01*
X004860Y002597D01*
X004930Y002605D01*
X005001Y002609D01*
X005071Y002609D01*
X005142Y002605D01*
X005212Y002597D01*
X005281Y002585D01*
X005350Y002569D01*
X005418Y002550D01*
X005485Y002526D01*
X005550Y002499D01*
X005613Y002469D01*
X005675Y002435D01*
X005735Y002397D01*
X005792Y002356D01*
X005848Y002312D01*
X005900Y002265D01*
X005950Y002216D01*
X005997Y002163D01*
X006041Y002108D01*
X006082Y002050D01*
X006120Y001991D01*
X006154Y001929D01*
X006185Y001865D01*
X006212Y001800D01*
X006235Y001734D01*
X006255Y001666D01*
X006270Y001597D01*
X006282Y001528D01*
X006290Y001458D01*
X006294Y001387D01*
X006295Y001317D01*
X006291Y001246D01*
X006283Y001176D01*
X006271Y001106D01*
X006256Y001038D01*
X006236Y000970D01*
X006213Y000903D01*
X006186Y000838D01*
X006156Y000774D01*
X006122Y000712D01*
X006084Y000653D01*
X006044Y000595D01*
X006000Y000540D01*
X005953Y000487D01*
X005903Y000437D01*
X005850Y000390D01*
X005795Y000346D01*
X005790Y000353D01*
X005845Y000397D01*
X005897Y000444D01*
X005946Y000493D01*
X005993Y000546D01*
X006036Y000600D01*
X006077Y000658D01*
X006114Y000717D01*
X006148Y000778D01*
X006178Y000842D01*
X006205Y000906D01*
X006228Y000973D01*
X006247Y001040D01*
X006262Y001108D01*
X006274Y001177D01*
X006282Y001247D01*
X006286Y001317D01*
X006285Y001387D01*
X006281Y001457D01*
X006273Y001526D01*
X006262Y001595D01*
X006246Y001664D01*
X006227Y001731D01*
X006203Y001797D01*
X006176Y001862D01*
X006146Y001925D01*
X006112Y001986D01*
X006075Y002045D01*
X006034Y002103D01*
X005990Y002157D01*
X005944Y002209D01*
X005894Y002259D01*
X005842Y002306D01*
X005787Y002349D01*
X005730Y002390D01*
X005671Y002427D01*
X005609Y002461D01*
X005546Y002491D01*
X005481Y002518D01*
X005415Y002541D01*
X005348Y002560D01*
X005280Y002576D01*
X005211Y002588D01*
X005141Y002596D01*
X005071Y002600D01*
X005001Y002600D01*
X004931Y002596D01*
X004861Y002588D01*
X004792Y002576D01*
X004724Y002560D01*
X004657Y002541D01*
X004591Y002518D01*
X004526Y002491D01*
X004463Y002461D01*
X004401Y002427D01*
X004342Y002390D01*
X004285Y002349D01*
X004230Y002306D01*
X004178Y002259D01*
X004128Y002209D01*
X004082Y002157D01*
X004038Y002103D01*
X003997Y002045D01*
X003960Y001986D01*
X003926Y001925D01*
X003896Y001862D01*
X003869Y001797D01*
X003845Y001731D01*
X003826Y001664D01*
X003810Y001595D01*
X003799Y001526D01*
X003791Y001457D01*
X003787Y001387D01*
X003786Y001317D01*
X003790Y001247D01*
X003798Y001177D01*
X003810Y001108D01*
X003825Y001040D01*
X003844Y000973D01*
X003867Y000906D01*
X003894Y000842D01*
X003924Y000778D01*
X003958Y000717D01*
X003995Y000658D01*
X004036Y000600D01*
X004079Y000546D01*
X004126Y000493D01*
X004175Y000444D01*
X004227Y000397D01*
X004282Y000353D01*
X004287Y000360D01*
X004233Y000404D01*
X004181Y000450D01*
X004132Y000499D01*
X004086Y000551D01*
X004043Y000606D01*
X004003Y000663D01*
X003966Y000722D01*
X003932Y000783D01*
X003902Y000845D01*
X003876Y000910D01*
X003853Y000975D01*
X003834Y001042D01*
X003818Y001110D01*
X003807Y001179D01*
X003799Y001248D01*
X003795Y001317D01*
X003796Y001387D01*
X003800Y001456D01*
X003807Y001525D01*
X003819Y001594D01*
X003835Y001661D01*
X003854Y001728D01*
X003877Y001794D01*
X003904Y001858D01*
X003934Y001921D01*
X003968Y001982D01*
X004005Y002040D01*
X004045Y002097D01*
X004088Y002151D01*
X004135Y002203D01*
X004184Y002252D01*
X004236Y002299D01*
X004290Y002342D01*
X004347Y002382D01*
X004406Y002419D01*
X004467Y002453D01*
X004530Y002483D01*
X004594Y002510D01*
X004659Y002533D01*
X004726Y002552D01*
X004794Y002567D01*
X004863Y002579D01*
X004932Y002587D01*
X005001Y002591D01*
X005071Y002591D01*
X005140Y002587D01*
X005209Y002579D01*
X005278Y002567D01*
X005346Y002552D01*
X005413Y002533D01*
X005478Y002510D01*
X005542Y002483D01*
X005605Y002453D01*
X005666Y002419D01*
X005725Y002382D01*
X005782Y002342D01*
X005836Y002299D01*
X005888Y002252D01*
X005937Y002203D01*
X005984Y002151D01*
X006027Y002097D01*
X006067Y002040D01*
X006104Y001982D01*
X006138Y001921D01*
X006168Y001858D01*
X006195Y001794D01*
X006218Y001728D01*
X006237Y001661D01*
X006253Y001594D01*
X006265Y001525D01*
X006272Y001456D01*
X006276Y001387D01*
X006277Y001317D01*
X006273Y001248D01*
X006265Y001179D01*
X006254Y001110D01*
X006238Y001042D01*
X006219Y000975D01*
X006196Y000910D01*
X006170Y000845D01*
X006140Y000783D01*
X006106Y000722D01*
X006069Y000663D01*
X006029Y000606D01*
X005986Y000551D01*
X005940Y000499D01*
X005891Y000450D01*
X005839Y000404D01*
X005785Y000360D01*
X005779Y000367D01*
X005833Y000411D01*
X005884Y000457D01*
X005933Y000506D01*
X005979Y000557D01*
X006022Y000611D01*
X006062Y000668D01*
X006098Y000726D01*
X006132Y000787D01*
X006162Y000849D01*
X006188Y000913D01*
X006210Y000978D01*
X006229Y001044D01*
X006245Y001112D01*
X006256Y001180D01*
X006264Y001248D01*
X006268Y001317D01*
X006267Y001386D01*
X006263Y001455D01*
X006256Y001524D01*
X006244Y001592D01*
X006229Y001659D01*
X006209Y001726D01*
X006186Y001791D01*
X006160Y001854D01*
X006130Y001917D01*
X006097Y001977D01*
X006060Y002035D01*
X006020Y002092D01*
X005977Y002146D01*
X005931Y002197D01*
X005882Y002246D01*
X005830Y002292D01*
X005776Y002335D01*
X005720Y002375D01*
X005661Y002411D01*
X005601Y002445D01*
X005539Y002475D01*
X005475Y002501D01*
X005410Y002524D01*
X005343Y002543D01*
X005276Y002558D01*
X005208Y002570D01*
X005139Y002578D01*
X005071Y002582D01*
X005001Y002582D01*
X004933Y002578D01*
X004864Y002570D01*
X004796Y002558D01*
X004729Y002543D01*
X004662Y002524D01*
X004597Y002501D01*
X004533Y002475D01*
X004471Y002445D01*
X004411Y002411D01*
X004352Y002375D01*
X004296Y002335D01*
X004242Y002292D01*
X004190Y002246D01*
X004141Y002197D01*
X004095Y002146D01*
X004052Y002092D01*
X004012Y002035D01*
X003975Y001977D01*
X003942Y001917D01*
X003912Y001854D01*
X003886Y001791D01*
X003863Y001726D01*
X003843Y001659D01*
X003828Y001592D01*
X003816Y001524D01*
X003809Y001455D01*
X003805Y001386D01*
X003804Y001317D01*
X003808Y001248D01*
X003816Y001180D01*
X003827Y001112D01*
X003843Y001044D01*
X003862Y000978D01*
X003884Y000913D01*
X003910Y000849D01*
X003940Y000787D01*
X003974Y000726D01*
X004010Y000668D01*
X004050Y000611D01*
X004093Y000557D01*
X004139Y000506D01*
X004188Y000457D01*
X004239Y000411D01*
X004293Y000367D01*
X004298Y000375D01*
X004244Y000418D01*
X004193Y000464D01*
X004144Y000514D01*
X004098Y000565D01*
X004055Y000620D01*
X004015Y000677D01*
X003979Y000735D01*
X003945Y000796D01*
X003916Y000859D01*
X003890Y000923D01*
X003868Y000989D01*
X003849Y001056D01*
X003834Y001123D01*
X003823Y001192D01*
X003816Y001261D01*
X003813Y001330D01*
X003814Y001399D01*
X003819Y001469D01*
X003827Y001537D01*
X003840Y001605D01*
X003856Y001673D01*
X003877Y001739D01*
X003900Y001804D01*
X003928Y001868D01*
X003959Y001930D01*
X003994Y001990D01*
X004032Y002048D01*
X004073Y002104D01*
X004117Y002157D01*
X004164Y002208D01*
X004214Y002256D01*
X004267Y002301D01*
X004322Y002343D01*
X004379Y002382D01*
X004439Y002417D01*
X004500Y002449D01*
X004563Y002478D01*
X004628Y002503D01*
X004694Y002524D01*
X004761Y002542D01*
X004829Y002555D01*
X004898Y002565D01*
X004967Y002571D01*
X005036Y002573D01*
X005105Y002571D01*
X005174Y002565D01*
X005243Y002555D01*
X005311Y002542D01*
X005378Y002524D01*
X005444Y002503D01*
X005509Y002478D01*
X005572Y002449D01*
X005633Y002417D01*
X005693Y002382D01*
X005750Y002343D01*
X005805Y002301D01*
X005858Y002256D01*
X005908Y002208D01*
X005955Y002157D01*
X005999Y002104D01*
X006040Y002048D01*
X006078Y001990D01*
X006113Y001930D01*
X006144Y001868D01*
X006172Y001804D01*
X006195Y001739D01*
X006216Y001673D01*
X006232Y001605D01*
X006245Y001537D01*
X006253Y001469D01*
X006258Y001399D01*
X006259Y001330D01*
X006256Y001261D01*
X006249Y001192D01*
X006238Y001123D01*
X006223Y001056D01*
X006204Y000989D01*
X006182Y000923D01*
X006156Y000859D01*
X006127Y000796D01*
X006093Y000735D01*
X006057Y000677D01*
X006017Y000620D01*
X005974Y000565D01*
X005928Y000514D01*
X005879Y000464D01*
X005828Y000418D01*
X005774Y000375D01*
X005768Y000382D01*
X005822Y000425D01*
X005873Y000471D01*
X005922Y000520D01*
X005967Y000571D01*
X006010Y000625D01*
X006049Y000682D01*
X006086Y000740D01*
X006119Y000800D01*
X006148Y000863D01*
X006174Y000926D01*
X006196Y000992D01*
X006214Y001058D01*
X006229Y001125D01*
X006240Y001193D01*
X006247Y001262D01*
X006250Y001330D01*
X006249Y001399D01*
X006244Y001468D01*
X006236Y001536D01*
X006223Y001604D01*
X006207Y001670D01*
X006187Y001736D01*
X006163Y001801D01*
X006136Y001864D01*
X006105Y001925D01*
X006071Y001985D01*
X006033Y002043D01*
X005992Y002098D01*
X005948Y002151D01*
X005901Y002201D01*
X005852Y002249D01*
X005800Y002294D01*
X005745Y002336D01*
X005688Y002374D01*
X005629Y002409D01*
X005568Y002441D01*
X005505Y002470D01*
X005441Y002494D01*
X005375Y002516D01*
X005309Y002533D01*
X005241Y002546D01*
X005173Y002556D01*
X005105Y002562D01*
X005036Y002564D01*
X004967Y002562D01*
X004899Y002556D01*
X004831Y002546D01*
X004763Y002533D01*
X004697Y002516D01*
X004631Y002494D01*
X004567Y002470D01*
X004504Y002441D01*
X004443Y002409D01*
X004384Y002374D01*
X004327Y002336D01*
X004272Y002294D01*
X004220Y002249D01*
X004171Y002201D01*
X004124Y002151D01*
X004080Y002098D01*
X004039Y002043D01*
X004001Y001985D01*
X003967Y001925D01*
X003936Y001864D01*
X003909Y001801D01*
X003885Y001736D01*
X003865Y001670D01*
X003849Y001604D01*
X003836Y001536D01*
X003828Y001468D01*
X003823Y001399D01*
X003822Y001330D01*
X003825Y001262D01*
X003832Y001193D01*
X003843Y001125D01*
X003858Y001058D01*
X003876Y000992D01*
X003898Y000926D01*
X003924Y000863D01*
X003953Y000800D01*
X003986Y000740D01*
X004023Y000682D01*
X004062Y000625D01*
X004105Y000571D01*
X004150Y000520D01*
X004199Y000471D01*
X004250Y000425D01*
X004304Y000382D01*
X002544Y005295D02*
X002444Y005295D01*
X002544Y005395D01*
X002544Y005420D01*
X002519Y005445D01*
X002469Y005445D01*
X002444Y005420D01*
X002396Y005420D02*
X002371Y005445D01*
X002321Y005445D01*
X002296Y005420D01*
X002296Y005320D01*
X002321Y005295D01*
X002371Y005295D01*
X002396Y005320D01*
X004026Y010966D02*
X004001Y010991D01*
X004001Y011041D01*
X004026Y011066D01*
X004051Y011066D01*
X004151Y010966D01*
X004151Y011066D01*
X004151Y011113D02*
X004051Y011213D01*
X004026Y011213D01*
X004001Y011188D01*
X004001Y011138D01*
X004026Y011113D01*
X004151Y011113D02*
X004151Y011213D01*
X004151Y011260D02*
X004151Y011335D01*
X004126Y011360D01*
X004076Y011360D01*
X004051Y011335D01*
X004051Y011260D01*
X004201Y011260D01*
X004151Y011408D02*
X004001Y011408D01*
X004001Y011508D01*
X004076Y011458D02*
X004076Y011408D01*
X005101Y011408D02*
X005101Y011308D01*
X005176Y011308D01*
X005151Y011358D01*
X005151Y011383D01*
X005176Y011408D01*
X005226Y011408D01*
X005251Y011383D01*
X005251Y011333D01*
X005226Y011308D01*
X005226Y011260D02*
X005251Y011235D01*
X005251Y011185D01*
X005226Y011160D01*
X005126Y011160D01*
X005101Y011185D01*
X005101Y011235D01*
X005126Y011260D01*
X005276Y012109D02*
X005226Y012160D01*
X005276Y012210D01*
X005376Y012210D01*
X005301Y012210D02*
X005301Y012109D01*
X005276Y012109D02*
X005376Y012109D01*
X005376Y012307D02*
X005226Y012307D01*
X005226Y012257D02*
X005226Y012357D01*
X005226Y012404D02*
X005276Y012454D01*
X005226Y012504D01*
X005376Y012504D01*
X005376Y012551D02*
X005376Y012652D01*
X005351Y012699D02*
X005376Y012724D01*
X005376Y012774D01*
X005351Y012799D01*
X005301Y012799D01*
X005301Y012749D01*
X005251Y012799D02*
X005226Y012774D01*
X005226Y012724D01*
X005251Y012699D01*
X005351Y012699D01*
X005301Y012601D02*
X005301Y012551D01*
X005226Y012551D02*
X005376Y012551D01*
X005376Y012404D02*
X005226Y012404D01*
X005226Y012551D02*
X005226Y012652D01*
X005276Y012846D02*
X005226Y012896D01*
X005276Y012946D01*
X005376Y012946D01*
X005376Y012993D02*
X005376Y013094D01*
X005376Y013043D02*
X005226Y013043D01*
X005276Y012993D01*
X005301Y012946D02*
X005301Y012846D01*
X005276Y012846D02*
X005376Y012846D01*
X005351Y013141D02*
X005301Y013141D01*
X005301Y013216D01*
X005326Y013241D01*
X005351Y013241D01*
X005376Y013216D01*
X005376Y013166D01*
X005351Y013141D01*
X005301Y013141D02*
X005251Y013191D01*
X005226Y013241D01*
X005251Y013288D02*
X005276Y013288D01*
X005301Y013313D01*
X005301Y013363D01*
X005326Y013388D01*
X005351Y013388D01*
X005376Y013363D01*
X005376Y013313D01*
X005351Y013288D01*
X005326Y013288D01*
X005301Y013313D01*
X005301Y013363D02*
X005276Y013388D01*
X005251Y013388D01*
X005226Y013363D01*
X005226Y013313D01*
X005251Y013288D01*
X005269Y014397D02*
X005169Y014397D01*
X005144Y014422D01*
X005144Y014472D01*
X005169Y014497D01*
X005219Y014545D02*
X005144Y014620D01*
X005294Y014620D01*
X005219Y014645D02*
X005219Y014545D01*
X005269Y014497D02*
X005294Y014472D01*
X005294Y014422D01*
X005269Y014397D01*
X004244Y014497D02*
X004094Y014497D01*
X004094Y014572D01*
X004119Y014597D01*
X004169Y014597D01*
X004194Y014572D01*
X004194Y014497D01*
X004194Y014450D02*
X004194Y014350D01*
X004094Y014450D01*
X004069Y014450D01*
X004044Y014425D01*
X004044Y014375D01*
X004069Y014350D01*
X004069Y014303D02*
X004044Y014278D01*
X004044Y014228D01*
X004069Y014203D01*
X004069Y014303D02*
X004094Y014303D01*
X004194Y014203D01*
X004194Y014303D01*
X004194Y014645D02*
X004044Y014645D01*
X004044Y014745D01*
X004119Y014695D02*
X004119Y014645D01*
X009726Y013588D02*
X009876Y013588D01*
X009876Y013538D02*
X009876Y013638D01*
X009776Y013538D02*
X009726Y013588D01*
X009726Y013491D02*
X009851Y013491D01*
X009876Y013466D01*
X009876Y013416D01*
X009851Y013391D01*
X009726Y013391D01*
D479*
X009026Y015128D02*
X006546Y015128D01*
X006546Y016072D01*
X009026Y016072D01*
X009026Y015128D01*
X008936Y017050D02*
X008436Y017050D01*
X008186Y017300D01*
X008186Y018800D01*
X008436Y019050D01*
X008936Y019050D01*
X009186Y018800D01*
X009186Y017300D01*
X008936Y017050D01*
X008186Y017300D02*
X007936Y017050D01*
X007436Y017050D01*
X007186Y017300D01*
X007186Y018800D01*
X007436Y019050D01*
X007936Y019050D01*
X008186Y018800D01*
X007186Y018800D02*
X006936Y019050D01*
X006436Y019050D01*
X006186Y018800D01*
X006186Y017300D01*
X006436Y017050D01*
X006936Y017050D01*
X007186Y017300D01*
X006936Y016918D02*
X006436Y016918D01*
X004889Y014387D02*
X004389Y014387D01*
X004346Y011150D02*
X004846Y011150D01*
X005776Y010072D02*
X005776Y009128D01*
X003296Y009128D01*
X003296Y010072D01*
X005776Y010072D01*
X005776Y008822D02*
X005776Y007878D01*
X003296Y007878D01*
X003296Y008822D01*
X005776Y008822D01*
X006286Y005350D02*
X006786Y005350D01*
X005756Y004850D02*
X005758Y004921D01*
X005764Y004992D01*
X005774Y005063D01*
X005788Y005132D01*
X005805Y005201D01*
X005827Y005269D01*
X005852Y005336D01*
X005881Y005401D01*
X005913Y005464D01*
X005949Y005526D01*
X005988Y005585D01*
X006031Y005642D01*
X006076Y005697D01*
X006125Y005749D01*
X006176Y005798D01*
X006230Y005844D01*
X006287Y005888D01*
X006345Y005928D01*
X006406Y005964D01*
X006469Y005998D01*
X006534Y006027D01*
X006600Y006053D01*
X006668Y006076D01*
X006736Y006094D01*
X006806Y006109D01*
X006876Y006120D01*
X006947Y006127D01*
X007018Y006130D01*
X007089Y006129D01*
X007160Y006124D01*
X007231Y006115D01*
X007301Y006102D01*
X007370Y006086D01*
X007438Y006065D01*
X007505Y006041D01*
X007571Y006013D01*
X007634Y005981D01*
X007696Y005946D01*
X007756Y005908D01*
X007814Y005866D01*
X007869Y005822D01*
X007922Y005774D01*
X007972Y005723D01*
X008019Y005670D01*
X008063Y005614D01*
X008104Y005556D01*
X008142Y005495D01*
X008176Y005433D01*
X008206Y005368D01*
X008233Y005303D01*
X008257Y005235D01*
X008276Y005167D01*
X008292Y005098D01*
X008304Y005027D01*
X008312Y004957D01*
X008316Y004886D01*
X008316Y004814D01*
X008312Y004743D01*
X008304Y004673D01*
X008292Y004602D01*
X008276Y004533D01*
X008257Y004465D01*
X008233Y004397D01*
X008206Y004332D01*
X008176Y004267D01*
X008142Y004205D01*
X008104Y004144D01*
X008063Y004086D01*
X008019Y004030D01*
X007972Y003977D01*
X007922Y003926D01*
X007869Y003878D01*
X007814Y003834D01*
X007756Y003792D01*
X007696Y003754D01*
X007634Y003719D01*
X007571Y003687D01*
X007505Y003659D01*
X007438Y003635D01*
X007370Y003614D01*
X007301Y003598D01*
X007231Y003585D01*
X007160Y003576D01*
X007089Y003571D01*
X007018Y003570D01*
X006947Y003573D01*
X006876Y003580D01*
X006806Y003591D01*
X006736Y003606D01*
X006668Y003624D01*
X006600Y003647D01*
X006534Y003673D01*
X006469Y003702D01*
X006406Y003736D01*
X006345Y003772D01*
X006287Y003812D01*
X006230Y003856D01*
X006176Y003902D01*
X006125Y003951D01*
X006076Y004003D01*
X006031Y004058D01*
X005988Y004115D01*
X005949Y004174D01*
X005913Y004236D01*
X005881Y004299D01*
X005852Y004364D01*
X005827Y004431D01*
X005805Y004499D01*
X005788Y004568D01*
X005774Y004637D01*
X005764Y004708D01*
X005758Y004779D01*
X005756Y004850D01*
X007186Y002800D02*
X008886Y002800D01*
X009236Y001993D02*
X009236Y001200D01*
X008886Y000400D02*
X007186Y000400D01*
X006836Y001200D02*
X006836Y002005D01*
X005786Y000350D02*
X004286Y000350D01*
X004276Y003628D02*
X001796Y003628D01*
X001796Y004572D01*
X004276Y004572D01*
X004276Y003628D01*
X003036Y005600D02*
X002536Y005600D01*
X001006Y006100D02*
X001008Y006171D01*
X001014Y006242D01*
X001024Y006313D01*
X001038Y006382D01*
X001055Y006451D01*
X001077Y006519D01*
X001102Y006586D01*
X001131Y006651D01*
X001163Y006714D01*
X001199Y006776D01*
X001238Y006835D01*
X001281Y006892D01*
X001326Y006947D01*
X001375Y006999D01*
X001426Y007048D01*
X001480Y007094D01*
X001537Y007138D01*
X001595Y007178D01*
X001656Y007214D01*
X001719Y007248D01*
X001784Y007277D01*
X001850Y007303D01*
X001918Y007326D01*
X001986Y007344D01*
X002056Y007359D01*
X002126Y007370D01*
X002197Y007377D01*
X002268Y007380D01*
X002339Y007379D01*
X002410Y007374D01*
X002481Y007365D01*
X002551Y007352D01*
X002620Y007336D01*
X002688Y007315D01*
X002755Y007291D01*
X002821Y007263D01*
X002884Y007231D01*
X002946Y007196D01*
X003006Y007158D01*
X003064Y007116D01*
X003119Y007072D01*
X003172Y007024D01*
X003222Y006973D01*
X003269Y006920D01*
X003313Y006864D01*
X003354Y006806D01*
X003392Y006745D01*
X003426Y006683D01*
X003456Y006618D01*
X003483Y006553D01*
X003507Y006485D01*
X003526Y006417D01*
X003542Y006348D01*
X003554Y006277D01*
X003562Y006207D01*
X003566Y006136D01*
X003566Y006064D01*
X003562Y005993D01*
X003554Y005923D01*
X003542Y005852D01*
X003526Y005783D01*
X003507Y005715D01*
X003483Y005647D01*
X003456Y005582D01*
X003426Y005517D01*
X003392Y005455D01*
X003354Y005394D01*
X003313Y005336D01*
X003269Y005280D01*
X003222Y005227D01*
X003172Y005176D01*
X003119Y005128D01*
X003064Y005084D01*
X003006Y005042D01*
X002946Y005004D01*
X002884Y004969D01*
X002821Y004937D01*
X002755Y004909D01*
X002688Y004885D01*
X002620Y004864D01*
X002551Y004848D01*
X002481Y004835D01*
X002410Y004826D01*
X002339Y004821D01*
X002268Y004820D01*
X002197Y004823D01*
X002126Y004830D01*
X002056Y004841D01*
X001986Y004856D01*
X001918Y004874D01*
X001850Y004897D01*
X001784Y004923D01*
X001719Y004952D01*
X001656Y004986D01*
X001595Y005022D01*
X001537Y005062D01*
X001480Y005106D01*
X001426Y005152D01*
X001375Y005201D01*
X001326Y005253D01*
X001281Y005308D01*
X001238Y005365D01*
X001199Y005424D01*
X001163Y005486D01*
X001131Y005549D01*
X001102Y005614D01*
X001077Y005681D01*
X001055Y005749D01*
X001038Y005818D01*
X001024Y005887D01*
X001014Y005958D01*
X001008Y006029D01*
X001006Y006100D01*
X001406Y001850D02*
X001408Y001900D01*
X001414Y001950D01*
X001424Y001999D01*
X001438Y002047D01*
X001455Y002094D01*
X001476Y002139D01*
X001501Y002183D01*
X001529Y002224D01*
X001561Y002263D01*
X001595Y002300D01*
X001632Y002334D01*
X001672Y002364D01*
X001714Y002391D01*
X001758Y002415D01*
X001804Y002436D01*
X001851Y002452D01*
X001899Y002465D01*
X001949Y002474D01*
X001998Y002479D01*
X002049Y002480D01*
X002099Y002477D01*
X002148Y002470D01*
X002197Y002459D01*
X002245Y002444D01*
X002291Y002426D01*
X002336Y002404D01*
X002379Y002378D01*
X002420Y002349D01*
X002459Y002317D01*
X002495Y002282D01*
X002527Y002244D01*
X002557Y002204D01*
X002584Y002161D01*
X002607Y002117D01*
X002626Y002071D01*
X002642Y002023D01*
X002654Y001974D01*
X002662Y001925D01*
X002666Y001875D01*
X002666Y001825D01*
X002662Y001775D01*
X002654Y001726D01*
X002642Y001677D01*
X002626Y001629D01*
X002607Y001583D01*
X002584Y001539D01*
X002557Y001496D01*
X002527Y001456D01*
X002495Y001418D01*
X002459Y001383D01*
X002420Y001351D01*
X002379Y001322D01*
X002336Y001296D01*
X002291Y001274D01*
X002245Y001256D01*
X002197Y001241D01*
X002148Y001230D01*
X002099Y001223D01*
X002049Y001220D01*
X001998Y001221D01*
X001949Y001226D01*
X001899Y001235D01*
X001851Y001248D01*
X001804Y001264D01*
X001758Y001285D01*
X001714Y001309D01*
X001672Y001336D01*
X001632Y001366D01*
X001595Y001400D01*
X001561Y001437D01*
X001529Y001476D01*
X001501Y001517D01*
X001476Y001561D01*
X001455Y001606D01*
X001438Y001653D01*
X001424Y001701D01*
X001414Y001750D01*
X001408Y001800D01*
X001406Y001850D01*
X001758Y010610D02*
X000814Y010610D01*
X000814Y013090D01*
X001758Y013090D01*
X001758Y010610D01*
X007336Y001600D02*
X007338Y001652D01*
X007344Y001704D01*
X007354Y001756D01*
X007367Y001806D01*
X007384Y001856D01*
X007405Y001904D01*
X007430Y001950D01*
X007458Y001994D01*
X007489Y002036D01*
X007523Y002076D01*
X007560Y002113D01*
X007600Y002147D01*
X007642Y002178D01*
X007686Y002206D01*
X007732Y002231D01*
X007780Y002252D01*
X007830Y002269D01*
X007880Y002282D01*
X007932Y002292D01*
X007984Y002298D01*
X008036Y002300D01*
X008088Y002298D01*
X008140Y002292D01*
X008192Y002282D01*
X008242Y002269D01*
X008292Y002252D01*
X008340Y002231D01*
X008386Y002206D01*
X008430Y002178D01*
X008472Y002147D01*
X008512Y002113D01*
X008549Y002076D01*
X008583Y002036D01*
X008614Y001994D01*
X008642Y001950D01*
X008667Y001904D01*
X008688Y001856D01*
X008705Y001806D01*
X008718Y001756D01*
X008728Y001704D01*
X008734Y001652D01*
X008736Y001600D01*
X008734Y001548D01*
X008728Y001496D01*
X008718Y001444D01*
X008705Y001394D01*
X008688Y001344D01*
X008667Y001296D01*
X008642Y001250D01*
X008614Y001206D01*
X008583Y001164D01*
X008549Y001124D01*
X008512Y001087D01*
X008472Y001053D01*
X008430Y001022D01*
X008386Y000994D01*
X008340Y000969D01*
X008292Y000948D01*
X008242Y000931D01*
X008192Y000918D01*
X008140Y000908D01*
X008088Y000902D01*
X008036Y000900D01*
X007984Y000902D01*
X007932Y000908D01*
X007880Y000918D01*
X007830Y000931D01*
X007780Y000948D01*
X007732Y000969D01*
X007686Y000994D01*
X007642Y001022D01*
X007600Y001053D01*
X007560Y001087D01*
X007523Y001124D01*
X007489Y001164D01*
X007458Y001206D01*
X007430Y001250D01*
X007405Y001296D01*
X007384Y001344D01*
X007367Y001394D01*
X007354Y001444D01*
X007344Y001496D01*
X007338Y001548D01*
X007336Y001600D01*
X010906Y001850D02*
X010908Y001900D01*
X010914Y001950D01*
X010924Y001999D01*
X010938Y002047D01*
X010955Y002094D01*
X010976Y002139D01*
X011001Y002183D01*
X011029Y002224D01*
X011061Y002263D01*
X011095Y002300D01*
X011132Y002334D01*
X011172Y002364D01*
X011214Y002391D01*
X011258Y002415D01*
X011304Y002436D01*
X011351Y002452D01*
X011399Y002465D01*
X011449Y002474D01*
X011498Y002479D01*
X011549Y002480D01*
X011599Y002477D01*
X011648Y002470D01*
X011697Y002459D01*
X011745Y002444D01*
X011791Y002426D01*
X011836Y002404D01*
X011879Y002378D01*
X011920Y002349D01*
X011959Y002317D01*
X011995Y002282D01*
X012027Y002244D01*
X012057Y002204D01*
X012084Y002161D01*
X012107Y002117D01*
X012126Y002071D01*
X012142Y002023D01*
X012154Y001974D01*
X012162Y001925D01*
X012166Y001875D01*
X012166Y001825D01*
X012162Y001775D01*
X012154Y001726D01*
X012142Y001677D01*
X012126Y001629D01*
X012107Y001583D01*
X012084Y001539D01*
X012057Y001496D01*
X012027Y001456D01*
X011995Y001418D01*
X011959Y001383D01*
X011920Y001351D01*
X011879Y001322D01*
X011836Y001296D01*
X011791Y001274D01*
X011745Y001256D01*
X011697Y001241D01*
X011648Y001230D01*
X011599Y001223D01*
X011549Y001220D01*
X011498Y001221D01*
X011449Y001226D01*
X011399Y001235D01*
X011351Y001248D01*
X011304Y001264D01*
X011258Y001285D01*
X011214Y001309D01*
X011172Y001336D01*
X011132Y001366D01*
X011095Y001400D01*
X011061Y001437D01*
X011029Y001476D01*
X011001Y001517D01*
X010976Y001561D01*
X010955Y001606D01*
X010938Y001653D01*
X010924Y001701D01*
X010914Y001750D01*
X010908Y001800D01*
X010906Y001850D01*
X010906Y021850D02*
X010908Y021900D01*
X010914Y021950D01*
X010924Y021999D01*
X010938Y022047D01*
X010955Y022094D01*
X010976Y022139D01*
X011001Y022183D01*
X011029Y022224D01*
X011061Y022263D01*
X011095Y022300D01*
X011132Y022334D01*
X011172Y022364D01*
X011214Y022391D01*
X011258Y022415D01*
X011304Y022436D01*
X011351Y022452D01*
X011399Y022465D01*
X011449Y022474D01*
X011498Y022479D01*
X011549Y022480D01*
X011599Y022477D01*
X011648Y022470D01*
X011697Y022459D01*
X011745Y022444D01*
X011791Y022426D01*
X011836Y022404D01*
X011879Y022378D01*
X011920Y022349D01*
X011959Y022317D01*
X011995Y022282D01*
X012027Y022244D01*
X012057Y022204D01*
X012084Y022161D01*
X012107Y022117D01*
X012126Y022071D01*
X012142Y022023D01*
X012154Y021974D01*
X012162Y021925D01*
X012166Y021875D01*
X012166Y021825D01*
X012162Y021775D01*
X012154Y021726D01*
X012142Y021677D01*
X012126Y021629D01*
X012107Y021583D01*
X012084Y021539D01*
X012057Y021496D01*
X012027Y021456D01*
X011995Y021418D01*
X011959Y021383D01*
X011920Y021351D01*
X011879Y021322D01*
X011836Y021296D01*
X011791Y021274D01*
X011745Y021256D01*
X011697Y021241D01*
X011648Y021230D01*
X011599Y021223D01*
X011549Y021220D01*
X011498Y021221D01*
X011449Y021226D01*
X011399Y021235D01*
X011351Y021248D01*
X011304Y021264D01*
X011258Y021285D01*
X011214Y021309D01*
X011172Y021336D01*
X011132Y021366D01*
X011095Y021400D01*
X011061Y021437D01*
X011029Y021476D01*
X011001Y021517D01*
X010976Y021561D01*
X010955Y021606D01*
X010938Y021653D01*
X010924Y021701D01*
X010914Y021750D01*
X010908Y021800D01*
X010906Y021850D01*
X001656Y021850D02*
X001658Y021900D01*
X001664Y021950D01*
X001674Y021999D01*
X001688Y022047D01*
X001705Y022094D01*
X001726Y022139D01*
X001751Y022183D01*
X001779Y022224D01*
X001811Y022263D01*
X001845Y022300D01*
X001882Y022334D01*
X001922Y022364D01*
X001964Y022391D01*
X002008Y022415D01*
X002054Y022436D01*
X002101Y022452D01*
X002149Y022465D01*
X002199Y022474D01*
X002248Y022479D01*
X002299Y022480D01*
X002349Y022477D01*
X002398Y022470D01*
X002447Y022459D01*
X002495Y022444D01*
X002541Y022426D01*
X002586Y022404D01*
X002629Y022378D01*
X002670Y022349D01*
X002709Y022317D01*
X002745Y022282D01*
X002777Y022244D01*
X002807Y022204D01*
X002834Y022161D01*
X002857Y022117D01*
X002876Y022071D01*
X002892Y022023D01*
X002904Y021974D01*
X002912Y021925D01*
X002916Y021875D01*
X002916Y021825D01*
X002912Y021775D01*
X002904Y021726D01*
X002892Y021677D01*
X002876Y021629D01*
X002857Y021583D01*
X002834Y021539D01*
X002807Y021496D01*
X002777Y021456D01*
X002745Y021418D01*
X002709Y021383D01*
X002670Y021351D01*
X002629Y021322D01*
X002586Y021296D01*
X002541Y021274D01*
X002495Y021256D01*
X002447Y021241D01*
X002398Y021230D01*
X002349Y021223D01*
X002299Y021220D01*
X002248Y021221D01*
X002199Y021226D01*
X002149Y021235D01*
X002101Y021248D01*
X002054Y021264D01*
X002008Y021285D01*
X001964Y021309D01*
X001922Y021336D01*
X001882Y021366D01*
X001845Y021400D01*
X001811Y021437D01*
X001779Y021476D01*
X001751Y021517D01*
X001726Y021561D01*
X001705Y021606D01*
X001688Y021653D01*
X001674Y021701D01*
X001664Y021750D01*
X001658Y021800D01*
X001656Y021850D01*
D480*
X004123Y018275D02*
X004273Y018275D01*
X004198Y018275D02*
X004198Y017825D01*
X004123Y017825D02*
X004273Y017825D01*
X004430Y017900D02*
X004430Y018200D01*
X004505Y018275D01*
X004655Y018275D01*
X004730Y018200D01*
X004890Y018200D02*
X004890Y018125D01*
X004965Y018050D01*
X005115Y018050D01*
X005190Y017975D01*
X005190Y017900D01*
X005115Y017825D01*
X004965Y017825D01*
X004890Y017900D01*
X004730Y017900D02*
X004655Y017825D01*
X004505Y017825D01*
X004430Y017900D01*
X004890Y018200D02*
X004965Y018275D01*
X005115Y018275D01*
X005190Y018200D01*
X005351Y018275D02*
X005351Y017825D01*
X005351Y017975D02*
X005576Y017975D01*
X005651Y018050D01*
X005651Y018200D01*
X005576Y018275D01*
X005351Y018275D01*
X003172Y016807D02*
X003172Y016506D01*
X002872Y016807D01*
X002872Y016506D01*
X002947Y016346D02*
X002947Y016046D01*
X002722Y015886D02*
X002872Y015736D01*
X002722Y015586D01*
X003172Y015586D01*
X003097Y015425D02*
X003172Y015350D01*
X003172Y015200D01*
X003097Y015125D01*
X003022Y015125D01*
X002947Y015200D01*
X002947Y015350D01*
X003022Y015425D01*
X003097Y015425D01*
X002947Y015350D02*
X002872Y015425D01*
X002797Y015425D01*
X002722Y015350D01*
X002722Y015200D01*
X002797Y015125D01*
X002872Y015125D01*
X002947Y015200D01*
X002722Y015886D02*
X003172Y015886D01*
X003172Y016046D02*
X002722Y016046D01*
X002722Y016346D02*
X003172Y016346D01*
X002504Y013021D02*
X002504Y012721D01*
X002504Y012871D02*
X002054Y012871D01*
X002204Y012721D01*
X002129Y012561D02*
X002054Y012486D01*
X002054Y012336D01*
X002129Y012261D01*
X002429Y012261D01*
X002504Y012336D01*
X002504Y012486D01*
X002429Y012561D01*
X002129Y012561D01*
X002354Y012411D02*
X002504Y012561D01*
X001411Y011450D02*
X001276Y011315D01*
X001321Y011270D02*
X001141Y011450D01*
X001141Y011270D02*
X001411Y011270D01*
X001411Y011155D02*
X001411Y010975D01*
X001411Y011065D02*
X001141Y011065D01*
X001231Y010975D01*
X000511Y010920D02*
X000331Y011100D01*
X000286Y011100D01*
X000241Y011055D01*
X000241Y010965D01*
X000286Y010920D01*
X000286Y010805D02*
X000241Y010760D01*
X000241Y010625D01*
X000511Y010625D01*
X000421Y010625D02*
X000421Y010760D01*
X000376Y010805D01*
X000286Y010805D01*
X000421Y010715D02*
X000511Y010805D01*
X000511Y010920D02*
X000511Y011100D01*
X003311Y010645D02*
X003311Y010375D01*
X003311Y010465D02*
X003446Y010465D01*
X003491Y010510D01*
X003491Y010600D01*
X003446Y010645D01*
X003311Y010645D01*
X003401Y010465D02*
X003491Y010375D01*
X003606Y010510D02*
X003786Y010510D01*
X003741Y010375D02*
X003741Y010645D01*
X003606Y010510D01*
X003751Y009745D02*
X003751Y009475D01*
X003741Y009395D02*
X003786Y009350D01*
X003786Y009305D01*
X003741Y009260D01*
X003786Y009215D01*
X003786Y009170D01*
X003741Y009125D01*
X003651Y009125D01*
X003606Y009170D01*
X003491Y009125D02*
X003401Y009215D01*
X003446Y009215D02*
X003311Y009215D01*
X003311Y009125D02*
X003311Y009395D01*
X003446Y009395D01*
X003491Y009350D01*
X003491Y009260D01*
X003446Y009215D01*
X003606Y009350D02*
X003651Y009395D01*
X003741Y009395D01*
X003661Y009475D02*
X003841Y009475D01*
X003956Y009520D02*
X004136Y009700D01*
X004136Y009520D01*
X004091Y009475D01*
X004001Y009475D01*
X003956Y009520D01*
X003956Y009700D01*
X004001Y009745D01*
X004091Y009745D01*
X004136Y009700D01*
X004250Y009745D02*
X004250Y009475D01*
X004250Y009565D02*
X004385Y009655D01*
X004250Y009565D02*
X004385Y009475D01*
X004250Y008495D02*
X004250Y008225D01*
X004250Y008315D02*
X004385Y008405D01*
X004250Y008315D02*
X004385Y008225D01*
X004136Y008270D02*
X004091Y008225D01*
X004001Y008225D01*
X003956Y008270D01*
X004136Y008450D01*
X004136Y008270D01*
X004136Y008450D02*
X004091Y008495D01*
X004001Y008495D01*
X003956Y008450D01*
X003956Y008270D01*
X003841Y008225D02*
X003661Y008225D01*
X003751Y008225D02*
X003751Y008495D01*
X003661Y008405D01*
X003696Y009260D02*
X003741Y009260D01*
X003661Y009655D02*
X003751Y009745D01*
X003666Y004225D02*
X003666Y003955D01*
X003666Y004045D02*
X003847Y004225D01*
X003711Y004090D02*
X003847Y003955D01*
X003552Y003955D02*
X003372Y003955D01*
X003462Y003955D02*
X003462Y004225D01*
X003372Y004135D01*
X003722Y003325D02*
X003857Y003325D01*
X003902Y003280D01*
X003902Y003190D01*
X003857Y003145D01*
X003722Y003145D01*
X003812Y003145D02*
X003902Y003055D01*
X004016Y003055D02*
X004197Y003055D01*
X004106Y003055D02*
X004106Y003325D01*
X004016Y003235D01*
X003722Y003325D02*
X003722Y003055D01*
X004561Y002985D02*
X004786Y002985D01*
X004861Y003060D01*
X004861Y003210D01*
X004786Y003285D01*
X004561Y003285D01*
X004561Y002835D01*
X005021Y002835D02*
X005172Y002985D01*
X005322Y002835D01*
X005322Y003285D01*
X005482Y003285D02*
X005707Y003285D01*
X005782Y003210D01*
X005782Y003060D01*
X005707Y002985D01*
X005482Y002985D01*
X005632Y002985D02*
X005782Y002835D01*
X005482Y002835D02*
X005482Y003285D01*
X005021Y003285D02*
X005021Y002835D01*
X007061Y003200D02*
X007136Y003125D01*
X007286Y003125D01*
X007361Y003200D01*
X007361Y003275D01*
X007286Y003350D01*
X007136Y003350D01*
X007061Y003425D01*
X007061Y003500D01*
X007136Y003575D01*
X007286Y003575D01*
X007361Y003500D01*
X007521Y003425D02*
X007672Y003575D01*
X007672Y003125D01*
X007822Y003125D02*
X007521Y003125D01*
X010607Y004419D02*
X010607Y004569D01*
X010682Y004644D01*
X010757Y004644D01*
X010832Y004569D01*
X010907Y004644D01*
X010982Y004644D01*
X011057Y004569D01*
X011057Y004419D01*
X010982Y004344D01*
X010832Y004494D02*
X010832Y004569D01*
X010907Y004805D02*
X011057Y004955D01*
X010907Y005105D01*
X010607Y005105D01*
X010682Y005265D02*
X010607Y005340D01*
X010607Y005490D01*
X010682Y005565D01*
X010757Y005565D01*
X010832Y005490D01*
X010907Y005565D01*
X010982Y005565D01*
X011057Y005490D01*
X011057Y005340D01*
X010982Y005265D01*
X010832Y005415D02*
X010832Y005490D01*
X010907Y004805D02*
X010607Y004805D01*
X010607Y004419D02*
X010682Y004344D01*
X011336Y004000D02*
X011336Y007700D01*
X011436Y007800D01*
X012586Y007850D01*
X011476Y007620D02*
X011478Y007640D01*
X011484Y007658D01*
X011493Y007676D01*
X011505Y007691D01*
X011520Y007703D01*
X011538Y007712D01*
X011556Y007718D01*
X011576Y007720D01*
X011596Y007718D01*
X011614Y007712D01*
X011632Y007703D01*
X011647Y007691D01*
X011659Y007676D01*
X011668Y007658D01*
X011674Y007640D01*
X011676Y007620D01*
X011674Y007600D01*
X011668Y007582D01*
X011659Y007564D01*
X011647Y007549D01*
X011632Y007537D01*
X011614Y007528D01*
X011596Y007522D01*
X011576Y007520D01*
X011556Y007522D01*
X011538Y007528D01*
X011520Y007537D01*
X011505Y007549D01*
X011493Y007564D01*
X011484Y007582D01*
X011478Y007600D01*
X011476Y007620D01*
X011057Y007332D02*
X010982Y007407D01*
X010832Y007407D01*
X010832Y007257D01*
X010682Y007407D02*
X010607Y007332D01*
X010607Y007182D01*
X010682Y007107D01*
X010982Y007107D01*
X011057Y007182D01*
X011057Y007332D01*
X011057Y006946D02*
X011057Y006646D01*
X010607Y006646D01*
X010607Y006946D01*
X010832Y006796D02*
X010832Y006646D01*
X010832Y006486D02*
X010682Y006486D01*
X010607Y006411D01*
X010607Y006186D01*
X011057Y006186D01*
X010907Y006186D02*
X010907Y006411D01*
X010832Y006486D01*
X010907Y006336D02*
X011057Y006486D01*
X011336Y004000D02*
X011436Y003900D01*
X012586Y003850D01*
X012740Y005200D02*
X012740Y005350D01*
X012740Y005275D02*
X013190Y005275D01*
X013190Y005200D02*
X013190Y005350D01*
X013115Y005507D02*
X013190Y005582D01*
X013190Y005732D01*
X013115Y005807D01*
X013190Y005968D02*
X013190Y006268D01*
X013190Y006118D02*
X012740Y006118D01*
X012890Y005968D01*
X012815Y005807D02*
X012740Y005732D01*
X012740Y005582D01*
X012815Y005507D01*
X013115Y005507D01*
X013291Y010595D02*
X013291Y010745D01*
X013291Y010670D02*
X012841Y010670D01*
X012841Y010595D02*
X012841Y010745D01*
X012841Y010902D02*
X013291Y011202D01*
X012841Y011202D01*
X012841Y011362D02*
X012841Y011663D01*
X012841Y011512D02*
X013291Y011512D01*
X013291Y011823D02*
X013291Y012123D01*
X013291Y012283D02*
X012841Y012283D01*
X012841Y012508D01*
X012916Y012583D01*
X013066Y012583D01*
X013141Y012508D01*
X013141Y012283D01*
X013141Y012433D02*
X013291Y012583D01*
X013291Y012743D02*
X012841Y012743D01*
X012841Y013044D01*
X012991Y013204D02*
X012841Y013354D01*
X012991Y013504D01*
X013291Y013504D01*
X013216Y013664D02*
X013291Y013739D01*
X013291Y013889D01*
X013216Y013965D01*
X013291Y014125D02*
X013291Y014425D01*
X013291Y014125D02*
X012841Y014125D01*
X012841Y014425D01*
X013066Y014275D02*
X013066Y014125D01*
X012916Y013965D02*
X012841Y013889D01*
X012841Y013739D01*
X012916Y013664D01*
X013216Y013664D01*
X013066Y013504D02*
X013066Y013204D01*
X012991Y013204D02*
X013291Y013204D01*
X013066Y012894D02*
X013066Y012743D01*
X012841Y012123D02*
X012841Y011823D01*
X013291Y011823D01*
X013066Y011823D02*
X013066Y011973D01*
X013291Y010902D02*
X012841Y010902D01*
X012841Y015845D02*
X012841Y015995D01*
X012841Y015920D02*
X013291Y015920D01*
X013291Y015845D02*
X013291Y015995D01*
X013291Y016152D02*
X012991Y016452D01*
X012916Y016452D01*
X012841Y016377D01*
X012841Y016227D01*
X012916Y016152D01*
X012916Y016612D02*
X013216Y016612D01*
X013291Y016687D01*
X013291Y016838D01*
X013216Y016913D01*
X013366Y017073D02*
X013366Y017373D01*
X013291Y017533D02*
X012841Y017533D01*
X013066Y017533D02*
X013066Y017833D01*
X013066Y017993D02*
X013066Y018144D01*
X012841Y018294D02*
X012841Y017993D01*
X013291Y017993D01*
X013291Y018294D01*
X013291Y018454D02*
X012991Y018454D01*
X012841Y018604D01*
X012991Y018754D01*
X013291Y018754D01*
X013291Y018914D02*
X013291Y019139D01*
X013216Y019215D01*
X012916Y019215D01*
X012841Y019139D01*
X012841Y018914D01*
X013291Y018914D01*
X013066Y018754D02*
X013066Y018454D01*
X012841Y017833D02*
X013291Y017833D01*
X012916Y016913D02*
X012841Y016838D01*
X012841Y016687D01*
X012916Y016612D01*
X013291Y016452D02*
X013291Y016152D01*
X013291Y019375D02*
X012841Y019375D01*
X012841Y019675D01*
X012841Y019835D02*
X012841Y020060D01*
X012916Y020135D01*
X013066Y020135D01*
X013141Y020060D01*
X013141Y019835D01*
X013291Y019835D02*
X012841Y019835D01*
X013066Y019525D02*
X013066Y019375D01*
X013291Y019375D02*
X013291Y019675D01*
X013141Y019985D02*
X013291Y020135D01*
X008036Y015745D02*
X007856Y015745D01*
X007856Y015610D01*
X007946Y015655D01*
X007991Y015655D01*
X008036Y015610D01*
X008036Y015520D01*
X007991Y015475D01*
X007901Y015475D01*
X007856Y015520D01*
X007741Y015475D02*
X007651Y015565D01*
X007696Y015565D02*
X007561Y015565D01*
X007561Y015475D02*
X007561Y015745D01*
X007696Y015745D01*
X007741Y015700D01*
X007741Y015610D01*
X007696Y015565D01*
D481*
X008055Y007445D02*
X006055Y007445D01*
X006055Y006945D01*
X005805Y006945D01*
X006055Y006945D02*
X006055Y006445D01*
X008055Y006445D01*
X008055Y007445D01*
X008555Y007445D01*
X008555Y006945D01*
X008805Y006945D01*
X008555Y006945D02*
X008555Y006445D01*
X008055Y006445D01*
X009036Y005900D02*
X010036Y005900D01*
X010036Y003800D01*
X009036Y003800D01*
X009036Y005900D01*
X009286Y004850D02*
X009786Y004850D01*
D482*
X003829Y011457D02*
X003829Y013857D01*
X003827Y013914D01*
X003821Y013970D01*
X003812Y014026D01*
X003799Y014082D01*
X003782Y014136D01*
X003762Y014189D01*
X003738Y014240D01*
X003710Y014290D01*
X003680Y014338D01*
X003646Y014384D01*
X003609Y014427D01*
X003570Y014468D01*
X003528Y014506D01*
X003483Y014541D01*
X003436Y014573D01*
X003387Y014602D01*
X003337Y014628D01*
X003284Y014650D01*
X003231Y014669D01*
X003176Y014684D01*
X003120Y014695D01*
X003064Y014703D01*
X003007Y014707D01*
X002951Y014707D01*
X002894Y014703D01*
X002838Y014695D01*
X002782Y014684D01*
X002727Y014669D01*
X002674Y014650D01*
X002621Y014628D01*
X002571Y014602D01*
X002522Y014573D01*
X002475Y014541D01*
X002430Y014506D01*
X002388Y014468D01*
X002349Y014427D01*
X002312Y014384D01*
X002278Y014338D01*
X002248Y014290D01*
X002220Y014240D01*
X002196Y014189D01*
X002176Y014136D01*
X002159Y014082D01*
X002146Y014026D01*
X002137Y013970D01*
X002131Y013914D01*
X002129Y013857D01*
X002129Y011457D01*
X002131Y011400D01*
X002137Y011344D01*
X002146Y011288D01*
X002159Y011232D01*
X002176Y011178D01*
X002196Y011125D01*
X002220Y011074D01*
X002248Y011024D01*
X002278Y010976D01*
X002312Y010930D01*
X002349Y010887D01*
X002388Y010846D01*
X002430Y010808D01*
X002475Y010773D01*
X002522Y010741D01*
X002571Y010712D01*
X002621Y010686D01*
X002674Y010664D01*
X002727Y010645D01*
X002782Y010630D01*
X002838Y010619D01*
X002894Y010611D01*
X002951Y010607D01*
X003007Y010607D01*
X003064Y010611D01*
X003120Y010619D01*
X003176Y010630D01*
X003231Y010645D01*
X003284Y010664D01*
X003337Y010686D01*
X003387Y010712D01*
X003436Y010741D01*
X003483Y010773D01*
X003528Y010808D01*
X003570Y010846D01*
X003609Y010887D01*
X003646Y010930D01*
X003680Y010976D01*
X003710Y011024D01*
X003738Y011074D01*
X003762Y011125D01*
X003782Y011178D01*
X003799Y011232D01*
X003812Y011288D01*
X003821Y011344D01*
X003827Y011400D01*
X003829Y011457D01*
D483*
X012886Y005850D03*
D484*
X012636Y004125D03*
X012636Y007575D03*
D485*
X012636Y006350D03*
X012636Y005350D03*
M02*
